<?xml version="1.0" standalone="no"?>
<!DOCTYPE svg PUBLIC "-//W3C//DTD SVG 1.1//EN" "http://www.w3.org/Graphics/SVG/1.1/DTD/svg11.dtd" >
<svg xmlns="http://www.w3.org/2000/svg" xmlns:xlink="http://www.w3.org/1999/xlink" version="1.1">
<metadata>
Created by FontForge 20170731 at Thu Jul 13 09:58:33 2023
 By Aleksey,,,
Copyright (c) 2014 by groen. All rights reserved. Vietnamese by Viet Linh
</metadata>
<defs>
<font id="VLMonalisascript" horiz-adv-x="628" >
  <font-face 
    font-family="VL Monalisa script"
    font-weight="400"
    font-stretch="normal"
    units-per-em="2048"
    panose-1="2 0 0 0 0 0 0 0 0 0"
    ascent="1536"
    descent="-512"
    x-height="741"
    cap-height="1392"
    bbox="-4687.57 -1424.12 5480.68 2238.97"
    underline-thickness="102"
    underline-position="-307"
    unicode-range="U+0020-FB02"
  />
<missing-glyph horiz-adv-x="309" 
 />
    <glyph glyph-name="b_r" unicode="br" horiz-adv-x="1075" 
d="M934 649q-120 -443 -51 -487q24 -16 57.5 5.5t64.5 67t53.5 84.5t37.5 72q5 12 17 8.5t5 -22.5q-55 -135 -143 -266q-29 -42 -63 -70.5t-68.5 -36.5t-63 6t-46 64t-17.5 131q0 96 76 438q-78 -68 -138 -59q-1 -3 -3 -6q-1 -4 -1 -5q-28 -91 -77 -169t-117.5 -120.5
t-134.5 -13.5q-28 -113 -92 -195t-119 -75q-62 5 -103 93t-22 243q27 258 87.5 515t153.5 460q72 158 147 199q56 30 80 -26q38 -86 -28 -300l-16 -49q-64 -183 -138.5 -369t-107.5 -250l-12 -47q-9 -57 -12.5 -111.5t-1 -102t15 -75.5t34.5 -26q30 4 52 35t51 100
q-47 42 -65 115.5t-10 145.5t34 130q10 21 25 37.5t32.5 23.5t32.5 1.5t26.5 -35t14.5 -80.5q4 -72 -8.5 -159.5t-36.5 -154.5q39 -17 81.5 -1t82 55.5t71 90t50.5 101.5l6 27q-47 14 -69.5 71.5t-18 120t36.5 112.5t83 50q34 0 47 -31.5t7.5 -80.5t-15 -90t-22.5 -79
q13 -8 29 -7.5t45.5 11t52 21.5t48.5 23t36 16q8 3 17.5 7.5t14.5 7t11 5t8.5 2t5.5 -1.5t3 -6.5t0.5 -11.5t-2 -18t-5 -25t-6.5 -33zM172 606q43 82 209 537q67 189 52 242q-9 31 -41 -14q-65 -90 -127 -335l-11 -45q-10 -43 -22 -99.5t-29.5 -141t-30.5 -144.5zM305 334
q32 119 33 237q1 96 -28 90q-2 -1 -5 -2q-18 -8 -32.5 -74.5t-8.5 -144t41 -106.5zM655 676q48 141 25 155q-16 9 -32 -27q-23 -54 -7 -102q5 -15 14 -26z" />
    <glyph glyph-name="b_s" unicode="bs" horiz-adv-x="985" 
d="M653 612l-2 4q-57 125 -2 233q31 62 77 81q43 18 58 -20q18 -48 -30 -160q4 -10 21.5 -58.5t29.5 -85.5t28 -87t26 -93.5t13 -75.5q6 -96 -14 -164q101 86 152 213q5 8 16.5 5.5t7.5 -17.5q-61 -151 -174 -269t-192 -118h-9q-79 -5 -115.5 54.5t-24.5 134.5t56 116
q8 8 18 5t13 -11t-4 -16q-47 -66 -33.5 -107t74.5 -24q50 14 72 62t17 113t-21.5 129.5t-42.5 123.5h-2q-32 -81 -69 -144.5t-82.5 -110.5t-92.5 -60.5t-100 5.5q-28 -113 -92 -195t-119 -75q-62 5 -103 93t-22 243q27 258 87.5 515t153.5 460q72 158 147 199q56 30 80 -26
q38 -86 -28 -300l-16 -49q-64 -183 -138.5 -369t-107.5 -250l-12 -47q-9 -57 -12.5 -111.5t-1 -102t15 -75.5t34.5 -26q30 4 52 35t51 100q-47 42 -65 115.5t-10 145.5t34 130q10 21 25 37.5t32.5 23.5t32.5 1.5t26.5 -35t14.5 -80.5q4 -72 -8.5 -159.5t-36.5 -154.5
q53 -25 122 19t122 123t73 157zM172 606q43 82 209 537q67 189 52 242q-9 31 -41 -14q-65 -90 -127 -335l-11 -45q-10 -43 -22 -99.5t-29.5 -141t-30.5 -144.5zM305 334q32 119 33 237q1 96 -28 90q-2 -1 -5 -2q-18 -8 -32.5 -74.5t-8.5 -144t41 -106.5zM735 784q22 59 3 74
q-9 8 -15 -6l-2 -6q-10 -22 14 -62z" />
    <glyph glyph-name="b_x" unicode="bx" horiz-adv-x="1083" 
d="M788 682q2 -12 8.5 -77t14.5 -111l133 258q9 15 25 6q15 -9 6 -25l-156 -301q12 -65 18 -95t17 -77t21 -69.5t20 -28.5q25 -15 57.5 8t64.5 71.5t51 83.5t36 70q8 11 19 6.5t7 -16.5q-39 -127 -163 -299q-57 -80 -127 -84t-101 80q-20 58 -34 127l-103 -199
q-10 -16 -24 -8q-19 11 -9 25l123 237q-27 135 -41 236q-69 -139 -153.5 -202t-175.5 -28q-28 -113 -92 -195t-119 -75q-62 5 -103 93t-22 243q27 258 87.5 515t153.5 460q72 158 147 199q56 30 80 -26q38 -86 -28 -300l-16 -49q-64 -183 -138.5 -369t-107.5 -250l-12 -47
q-9 -57 -12.5 -111.5t-1 -102t15 -75.5t34.5 -26q30 4 52 35t51 100q-47 42 -65 115.5t-10 145.5t34 130q10 21 25 37.5t32.5 23.5t32.5 1.5t26.5 -35t14.5 -80.5q4 -72 -8.5 -159.5t-36.5 -154.5q73 -34 164 42.5t143 191.5l-2 22q-12 74 -12 93q-2 7 -7 11.5t-10.5 6.5
t-9 4t-1.5 4t11 6l119 49q31 11 44 -1t13 -60zM172 606q43 82 209 537q67 189 52 242q-9 31 -41 -14q-65 -90 -127 -335l-11 -45q-10 -43 -22 -99.5t-29.5 -141t-30.5 -144.5zM305 334q32 119 33 237q1 96 -28 90q-2 -1 -5 -2q-18 -8 -32.5 -74.5t-8.5 -144t41 -106.5z" />
    <glyph glyph-name="b_z" unicode="bz" horiz-adv-x="1128" 
d="M588 487l76 209q5 14 20 13q10 0 6 -9l-10 -26q34 5 126.5 32t131.5 35q44 6 44 -16q-1 -17 -34 -70q-37 -71 -205 -340q33 4 59.5 -3.5t49 -32.5t27.5 -72t-5 -121q98 63 163 129t114 178q5 9 17 7.5t8 -17.5q-14 -35 -29 -66t-33.5 -58t-31.5 -46.5t-36 -41
t-33.5 -32.5t-38 -30.5t-35.5 -25t-39 -25.5t-36 -23q-26 -127 -64 -229.5t-77 -167t-81.5 -106.5t-79.5 -58t-70 -13q-57 7 -76 69q-26 87 38 203q81 145 273 261q1 6 4 18q15 67 21 99.5t5.5 71t-14.5 59.5q-10 16 -34 16l-4 -6q-79 -147 -154 -185q-48 -24 -66 7
q-19 34 18 93q45 71 150 126q95 123 125.5 165.5t89.5 133.5l-237 -72v-2q-27 -82 -86 -158l-4 -2q-110 -131 -219 -88q-28 -113 -92 -195t-119 -75q-62 5 -103 93t-22 243q27 258 87.5 515t153.5 460q72 158 147 199q56 30 80 -26q38 -86 -28 -300l-16 -49
q-64 -183 -138.5 -369t-107.5 -250l-12 -47q-9 -57 -12.5 -111.5t-1 -102t15 -75.5t34.5 -26q30 4 52 35t51 100q-47 42 -65 115.5t-10 145.5t34 130q10 21 25 37.5t32.5 23.5t32.5 1.5t26.5 -35t14.5 -80.5q4 -72 -8.5 -159.5t-36.5 -154.5q27 -10 51 -10t49 13.5t46 31.5
t41.5 43t36 48.5t28.5 47.5zM172 606q43 82 209 537q67 189 52 242q-9 31 -41 -14q-65 -90 -127 -335l-11 -45q-10 -43 -22 -99.5t-29.5 -141t-30.5 -144.5zM721 -53q-82 -59 -138 -114.5t-81 -95.5t-34.5 -74t-5.5 -53t15 -30q18 -24 63.5 8t99.5 129.5t81 229.5zM305 334
q32 119 33 237q1 96 -28 90q-2 -1 -5 -2q-18 -8 -32.5 -74.5t-8.5 -144t41 -106.5zM610 231q-64 -41 -96 -94q-20 -34 -9 -38q15 -5 60 60q21 30 45 72z" />
    <glyph glyph-name="o_r" unicode="or" horiz-adv-x="1052" 
d="M911 649q-120 -443 -51 -487q24 -16 57.5 5.5t64.5 67t53.5 84.5t37.5 72q5 11 17 9q13 -3 6 -23q-54 -131 -144 -266q-29 -42 -63 -70.5t-68.5 -36.5t-63 6t-46 64t-17.5 131q0 96 76 438q-78 -68 -137 -59l-12 -41q-42 -161 -121.5 -237t-175.5 -36q-28 -113 -92 -195
t-119 -75q-62 5 -103 93t-22 243q12 102 46 200.5t75.5 166t84.5 108.5t74 41q18 0 35 -23.5t10 -62.5q41 -12 58 -67t11 -129.5t-18.5 -141.5t-29.5 -121q87 -35 159 40t107 218q0 5 4 21q-38 11 -61 51.5t-25 90.5t8 98.5t40 81t71 32.5q23 0 36.5 -15t16.5 -40.5t1 -54.5
t-9 -62.5t-14 -59.5t-15 -49q13 -8 29 -7.5t45.5 11t52 21.5t48.5 23t36 16q8 3 17.5 7.5t14.5 7t11 5t8.5 2t5.5 -1.5t3 -6.5t0.5 -11.5t-2 -18t-5 -25t-6.5 -33zM252 680q-45 -38 -81 -170.5t-33.5 -248t52.5 -107.5q30 4 52 35t51 100q-47 42 -65 115.5t-10 145.5t34 130
zM309 326q48 132 41 264q-4 87 -31 91q-7 1 -16 -7q-18 -18 -32.5 -82t-7 -143.5t45.5 -122.5zM633 676q47 140 24 155q-16 9 -31 -27q-23 -54 -7 -102q5 -15 14 -26z" />
    <glyph glyph-name="o_s" unicode="os" horiz-adv-x="962" 
d="M637 598l-8 18q-57 125 -3 233q31 61 76 80q43 19 58 -17q20 -48 -29 -162q1 -4 27 -76t40.5 -114.5t31.5 -106.5t20 -103q6 -96 -14 -164q99 85 151 213q5 8 17 5.5t8 -17.5q-60 -151 -174 -269t-193 -118h-8q-79 -5 -115.5 54.5t-24.5 134.5t56 116q8 8 18 5t13 -11
t-4 -16q-47 -66 -33.5 -107t74.5 -24q48 13 70 58t18 107t-19 124t-39 122q-58 -160 -144.5 -245.5t-182.5 -47.5q-28 -113 -92 -195t-119 -75q-62 5 -103 93t-22 243q12 102 46 200.5t75.5 166t84.5 108.5t74 41q18 0 35 -23.5t10 -62.5q41 -12 58 -67t11 -129.5
t-18.5 -141.5t-29.5 -121q44 -19 92 2.5t88 69t72 105t51 114.5zM252 680q-45 -38 -81 -170.5t-33.5 -248t52.5 -107.5q30 4 52 35t51 100q-47 42 -65 115.5t-10 145.5t34 130zM309 326q48 132 41 264q-4 87 -31 91q-7 1 -16 -7q-18 -18 -32.5 -82t-7 -143.5t45.5 -122.5z
M713 784q23 58 6 72q-7 4 -14 -2q-21 -21 8 -70z" />
    <glyph glyph-name="o_x" unicode="ox" horiz-adv-x="1060" 
d="M766 682q2 -12 8 -76.5t14 -111.5l134 258q9 15 24 6t6 -25l-155 -301q14 -72 18.5 -96t16 -74.5t21 -72t19.5 -27.5q25 -15 57.5 8t64.5 71.5t51 83.5t36 70q5 7 12.5 7.5t12.5 -4.5t2 -13q-38 -124 -164 -299q-57 -80 -126.5 -84t-100.5 80q-22 65 -35 127l-102 -199
q-10 -17 -25 -8q-18 11 -8 25l123 237q-32 158 -43 240q-18 -38 -40.5 -73.5t-53 -73t-63 -59.5t-71 -33.5t-75.5 5.5q-28 -113 -92 -195t-119 -75q-62 5 -103 93t-22 243q12 102 46 200.5t75.5 166t84.5 108.5t74 41q18 0 35 -23.5t10 -62.5q41 -12 58 -67t11 -129.5
t-18.5 -141.5t-29.5 -121q25 -8 47 -9t45.5 12t43 28t39.5 39t35.5 46t31 48.5t26 46t19.5 39.5l-3 12q-12 74 -12 93q-2 7 -7 11.5t-10 6.5t-8.5 4t-1.5 4t11 6l119 49q31 11 44 -1t13 -60zM252 680q-45 -38 -81 -170.5t-33.5 -248t52.5 -107.5q30 4 52 35t51 100
q-47 42 -65 115.5t-10 145.5t34 130zM309 326q48 132 41 264q-4 87 -31 91q-7 1 -16 -7q-18 -18 -32.5 -82t-7 -143.5t45.5 -122.5z" />
    <glyph glyph-name="o_z" unicode="oz" horiz-adv-x="1105" 
d="M549 442l92 254q5 14 20 13q11 0 7 -9l-11 -26q34 5 126.5 32t131.5 35q25 4 36 -0.5t7.5 -19.5t-10 -28t-22.5 -38q-37 -71 -205 -340q33 4 59.5 -3.5t49 -32.5t27.5 -72t-5 -121q97 62 162 128t114 179q5 9 17 7.5t8 -17.5q-14 -35 -28.5 -66t-33.5 -58t-31.5 -46
t-36 -41.5t-33.5 -33t-38.5 -30.5t-34.5 -24.5t-39 -25.5t-36 -23q-33 -157 -82 -276t-101 -182t-100 -91.5t-90 -24.5q-57 7 -76 69q-26 87 39 203q81 145 273 261q1 6 4 18q15 67 21 99.5t5.5 71t-14.5 59.5q-10 16 -35 16l-4 -6q-81 -150 -156 -186q-47 -22 -64 9
q-19 35 21 94q45 70 148 124q95 123 125.5 165.5t89.5 133.5l-240 -72q-14 -58 -40 -110t-63.5 -92t-82 -53.5t-96.5 5.5q-28 -113 -92 -195t-119 -75q-62 5 -103 93t-22 243q12 102 46 200.5t75.5 166t84.5 108.5t74 41q18 0 35 -23.5t10 -62.5q41 -12 58 -67t11 -129.5
t-18.5 -141.5t-29.5 -121q76 -29 131 14t84 121zM698 -53q-82 -59 -138 -114.5t-81 -95.5t-34 -74t-5 -53t15 -30q18 -24 63.5 8t99 129.5t80.5 229.5zM252 680q-45 -38 -81 -170.5t-33.5 -248t52.5 -107.5q30 4 52 35t51 100q-47 42 -65 115.5t-10 145.5t34 130zM309 326
q48 132 41 264q-4 87 -31 91q-7 1 -16 -7q-18 -18 -32.5 -82t-7 -143.5t45.5 -122.5zM588 231q-33 -20 -58 -45q-45 -45 -50 -77q-1 -12 7 -11q23 3 78 94q11 18 23 39z" />
    <glyph glyph-name="p_r" unicode="pr" horiz-adv-x="1198" 
d="M1057 649q-120 -443 -51 -487q24 -16 57.5 5.5t64.5 67t53.5 84.5t37.5 72q5 12 17 8.5t5 -22.5q-55 -135 -143 -266q-29 -42 -63 -70.5t-68.5 -36.5t-63 6t-46 64t-17.5 131q0 101 75 438q-78 -68 -137 -59l-8 -11q-24 -55 -69 -134.5t-70 -104.5q-81 -97 -203 -94
q-26 -81 -63 -138.5t-75.5 -78.5t-74 -13.5t-62 56.5t-36.5 131l-4 24l-133 -688q-12 -60 -64 -67q-42 -6 -71 23q-18 17 -15 38l219 1116q-2 7 -9.5 14t-11 11t4.5 11t33 17q112 51 120 53q22 7 24 -10q1 -10 -3 -39l-35 -178l-49 -250l6 -16q10 -53 29.5 -84.5t43.5 -36.5
t51.5 31.5t51.5 112.5q-69 45 -96 129q-28 101 6 202q22 57 58.5 100.5t86.5 43.5q46 0 75.5 -51t35 -149.5t-24.5 -242.5l-4 -14q72 -3 133 47q34 27 86.5 104t83.5 138q-46 15 -67.5 72.5t-16 120t38 112t82.5 49.5q34 0 47 -31.5t7.5 -80.5t-15 -90t-22.5 -79
q13 -8 29 -7.5t45.5 11t52 21.5t48.5 23t36 16q8 3 17.5 7.5t14.5 7t11 5t8.5 2t5.5 -1.5t3 -6.5t0.5 -11.5t-2 -18t-5 -25t-6.5 -33zM324 342q14 59 21.5 106.5t8.5 77t-3 49t-10 26.5t-15 5q-21 -5 -36.5 -45.5t-9.5 -103t44 -115.5zM778 676q48 141 25 155q-16 9 -32 -27
q-23 -54 -7 -102q5 -15 14 -26z" />
    <glyph glyph-name="p_s" unicode="ps" horiz-adv-x="1107" 
d="M172 522l-49 -250l6 -16q10 -53 29.5 -84.5t43.5 -36.5t51.5 31.5t51.5 112.5q-69 45 -96 129q-28 101 6 202q22 57 58.5 100.5t86.5 43.5q46 0 75.5 -51t35 -149.5t-24.5 -242.5l-4 -14q72 -3 133 47q37 33 104.5 126.5t92.5 147.5q-56 123 -2 229q31 62 79 81
q44 18 58 -19q19 -48 -30 -159q4 -10 21.5 -58.5t29.5 -85.5t28 -87t26 -93.5t13 -75.5q6 -96 -14 -164q101 86 152 213q5 8 16.5 5.5t7.5 -17.5q-61 -151 -174 -269t-192 -118h-9q-79 -5 -115.5 54.5t-24.5 134.5t56 116q8 8 18 5t13 -11t-4 -16q-47 -66 -33.5 -107
t74.5 -24q50 14 72 62t17 113t-21.5 129.5t-42.5 123.5l-5 6q-28 -59 -78 -142t-77 -110q-81 -97 -203 -94q-26 -81 -63 -138.5t-75.5 -78.5t-74 -13.5t-62 56.5t-36.5 131l-4 24l-133 -688q-12 -60 -64 -67q-42 -6 -71 23q-18 17 -15 38l219 1116q-2 7 -9.5 14t-11 11
t4.5 11t33 17q112 51 120 53q22 7 24 -10q1 -10 -3 -39zM324 342q14 59 21.5 106.5t8.5 77t-3 49t-10 26.5t-15 5q-21 -5 -36.5 -45.5t-9.5 -103t44 -115.5zM858 784q24 57 6 71q-6 4 -12 1q-9 -6 -9.5 -24t15.5 -48z" />
    <glyph glyph-name="p_x" unicode="px" horiz-adv-x="1206" 
d="M911 682q2 -12 8.5 -77t14.5 -111l133 258q9 15 25 6q15 -9 6 -25l-156 -301q12 -65 18 -95t17 -77t21 -69.5t20 -28.5q25 -15 57.5 8t64.5 71.5t51 83.5t36 70q8 11 19 6.5t7 -16.5q-39 -127 -163 -299q-57 -80 -127 -84t-101 80q-22 65 -35 127l-102 -199
q-10 -17 -25 -8q-18 11 -8 25l123 237q-30 150 -45 264l-4 31q-90 -175 -135 -225q-81 -97 -203 -94q-26 -81 -63 -138.5t-75.5 -78.5t-74 -13.5t-62 56.5t-36.5 131l-4 24l-133 -688q-12 -60 -64 -67q-42 -6 -71 23q-18 17 -15 38l219 1116q-2 7 -9.5 14t-11 11t4.5 11
t33 17q112 51 120 53q22 7 24 -10q1 -10 -3 -39l-35 -178l-49 -250l6 -16q10 -53 29.5 -84.5t43.5 -36.5t51.5 31.5t51.5 112.5q-69 45 -96 129q-28 101 6 202q22 57 58.5 100.5t86.5 43.5q46 0 75.5 -51t35 -149.5t-24.5 -242.5l-4 -14q72 -3 133 47q36 29 95 116.5
t88 145.5q-6 44 -6 56q-2 7 -7 11.5t-10.5 6.5t-9 4t-1.5 4t11 6l119 49q31 11 44 -1t13 -60zM324 342q14 59 21.5 106.5t8.5 77t-3 49t-10 26.5t-15 5q-21 -5 -36.5 -45.5t-9.5 -103t44 -115.5z" />
    <glyph glyph-name="p_z" unicode="pz" horiz-adv-x="1251" 
d="M729 526l57 170q5 14 20 13q11 0 7 -9l-10 -26q34 5 126.5 32t131.5 35q44 6 44 -16q-1 -17 -34 -70q-37 -71 -205 -340q33 4 59.5 -3.5t49 -32.5t27.5 -72t-5 -121q98 63 163 129t114 178q5 9 16.5 7.5t7.5 -17.5q-14 -35 -28.5 -66t-33.5 -58t-31.5 -46t-36 -41.5
t-33.5 -33t-38.5 -30.5t-34.5 -24.5t-39 -25.5t-36 -23q-33 -157 -82 -276t-101 -182t-100 -91.5t-90 -24.5q-57 7 -76 69q-26 87 39 203q81 145 273 261q1 6 4 18q15 67 21 99.5t5.5 71t-14.5 59.5q-10 16 -35 16l-4 -6q-81 -150 -156 -186q-47 -22 -64 9q-19 35 21 94
q45 70 148 124q95 123 125.5 165.5t89.5 133.5l-239 -72q-31 -92 -121 -186q-81 -97 -203 -94q-26 -81 -63 -138.5t-75.5 -78.5t-74 -13.5t-62 56.5t-36.5 131l-4 24l-133 -688q-12 -60 -64 -67q-42 -6 -71 23q-18 17 -15 38l219 1116q-2 7 -9.5 14t-11 11t4.5 11t33 17
q112 51 120 53q22 7 24 -10q1 -10 -3 -39l-35 -178l-49 -250l6 -16q10 -53 29.5 -84.5t43.5 -36.5t51.5 31.5t51.5 112.5q-69 45 -96 129q-28 101 6 202q22 57 58.5 100.5t86.5 43.5q46 0 75.5 -51t35 -149.5t-24.5 -242.5l-4 -14q81 0 171 75t116 154zM844 -53
q-82 -59 -138 -114.5t-81 -95.5t-34.5 -74t-5.5 -53t15 -30q18 -24 63.5 8t99.5 129.5t81 229.5zM324 342q14 59 21.5 106.5t8.5 77t-3 49t-10 26.5t-15 5q-21 -5 -36.5 -45.5t-9.5 -103t44 -115.5zM733 231q-26 -16 -55 -45q-45 -45 -51 -77q-2 -12 5 -11q22 2 78 94
q11 18 23 39z" />
    <glyph glyph-name="v_r" unicode="vr" horiz-adv-x="1050" 
d="M909 649q-120 -443 -51 -487q24 -16 57.5 5.5t64.5 67t53.5 84.5t37.5 72q5 11 17 9q13 -3 6 -23q-54 -131 -144 -266q-29 -42 -63 -70.5t-68.5 -36.5t-63 6t-46 64t-17.5 131q0 96 76 438q-78 -68 -137 -59q-9 -26 -21.5 -54.5t-30.5 -65.5t-38 -67.5t-45.5 -61
t-51 -46.5t-55.5 -24t-59 7q-38 -118 -101 -198.5t-118 -73.5q-62 5 -103 93t-22 243q4 31 11.5 95.5t15 116t18.5 97.5q3 16 -2.5 26.5t-11.5 13t-3.5 8t21.5 14.5l125 57q36 20 35 -22q0 -14 -19 -114q-2 -12 -4 -22l-20 -137q-9 -57 -12.5 -111.5t-1 -102t15 -75.5
t34.5 -26q30 4 52 35t51 100q-47 41 -65 117t-10 150t34 132q10 21 25 37.5t32.5 23.5t32.5 1.5t26.5 -35t14.5 -80.5q4 -74 -9 -165.5t-36 -162.5q34 -14 69 1t61.5 44t54.5 75.5t44.5 80t34.5 73.5q1 3 2 5q-38 11 -61 51.5t-25 90.5t8 98.5t40 81t71 32.5q23 0 36.5 -15
t16.5 -40.5t1 -54.5t-9 -62.5t-14 -59.5t-15 -49q13 -8 29 -7.5t45.5 11t52 21.5t48.5 23t36 16q8 3 17.5 7.5t14.5 7t11 5t8.5 2t5.5 -1.5t3 -6.5t0.5 -11.5t-2 -18t-5 -25t-6.5 -33zM307 334q34 127 34 244q-1 93 -31 85q-1 0 -3 -1q-21 -8 -32.5 -79t-3.5 -148.5
t36 -100.5zM631 676q47 140 24 155q-16 9 -31 -27q-23 -54 -7 -102q5 -15 14 -26z" />
    <glyph glyph-name="v_s" unicode="vs" horiz-adv-x="960" 
d="M629 612l-2 4q-57 125 -3 233q31 61 76 80q43 19 58 -17q20 -48 -29 -162q1 -4 27 -76t40.5 -114.5t31.5 -106.5t20 -103q6 -96 -14 -164q99 85 151 213q5 8 17 5.5t8 -17.5q-60 -151 -174 -269t-193 -118h-8q-79 -5 -115.5 54.5t-24.5 134.5t56 116q8 8 18 5t13 -11
t-4 -16q-47 -66 -33.5 -107t73.5 -24q64 18 81 95t-1.5 162.5t-54.5 165.5q-13 -30 -28 -59.5t-35.5 -65t-42 -64.5t-47.5 -56.5t-51.5 -42t-53.5 -21.5t-55 6q-38 -118 -101 -198.5t-118 -73.5q-62 5 -103 93t-22 243q4 31 11.5 95.5t15 116t18.5 97.5q3 16 -2.5 26.5
t-11.5 13t-3.5 8t21.5 14.5l125 57q36 20 35 -22q0 -14 -19 -114q-2 -12 -4 -22l-20 -137q-9 -57 -12.5 -111.5t-1 -102t15 -75.5t34.5 -26q30 4 52 35t51 100q-47 41 -65 117t-10 150t34 132q10 21 25 37.5t32.5 23.5t32.5 1.5t26.5 -35t14.5 -80.5q4 -74 -9 -165.5
t-36 -162.5q33 -14 71 3.5t68.5 51t63 84t52 88t38.5 78.5zM307 334q34 127 34 244q-1 93 -31 85q-1 0 -3 -1q-21 -8 -32.5 -79t-3.5 -148.5t36 -100.5zM711 784q14 32 10 62q-6 18 -17 11q-16 -11 -5 -46q4 -13 12 -27z" />
    <glyph glyph-name="v_x" unicode="vx" horiz-adv-x="1058" 
d="M764 682q2 -12 8 -76.5t14 -111.5l134 258q9 15 24 6t6 -25l-155 -301q14 -72 18.5 -96t16 -74.5t21 -72t19.5 -27.5q25 -15 57.5 8t64.5 71.5t51 83.5t36 70q5 7 12.5 7.5t12.5 -4.5t2 -13q-38 -124 -164 -299q-57 -80 -126.5 -84t-100.5 80q-22 65 -35 127l-102 -199
q-10 -17 -25 -8q-18 11 -8 25l123 237q-30 138 -45 252q-23 -51 -53 -97.5t-68 -88.5t-83.5 -58.5t-88.5 0.5q-38 -118 -101 -198.5t-118 -73.5q-62 5 -103 93t-22 243q4 31 11.5 95.5t15 116t18.5 97.5q3 16 -2.5 26.5t-11.5 13t-3.5 8t21.5 14.5l125 57q36 20 35 -22
q0 -14 -19 -114q-2 -12 -4 -22l-20 -137q-9 -57 -12.5 -111.5t-1 -102t15 -75.5t34.5 -26q30 4 52 35t51 100q-47 41 -65 117t-10 150t34 132q10 21 25 37.5t32.5 23.5t32.5 1.5t26.5 -35t14.5 -80.5q4 -74 -9 -165.5t-36 -162.5q125 -54 280 262q-12 74 -12 93
q-2 7 -7 11.5t-10 6.5t-8.5 4t-1.5 4t11 6l119 49q31 11 44 -1t13 -60zM307 334q34 127 34 244q-1 93 -31 85q-1 0 -3 -1q-21 -8 -32.5 -79t-3.5 -148.5t36 -100.5z" />
    <glyph glyph-name="v_z" unicode="vz" horiz-adv-x="1103" 
d="M543 438l96 258q5 14 20 13q11 0 7 -9l-11 -26q34 5 126.5 32t131.5 35q25 4 36 -0.5t7.5 -19.5t-10 -28t-22.5 -38q-37 -71 -205 -340q33 4 59.5 -3.5t49 -32.5t27.5 -72t-5 -121q97 62 162 128t114 179q5 9 17 7.5t8 -17.5q-14 -35 -28.5 -66t-33.5 -58t-31.5 -46
t-36 -41.5t-33.5 -33t-38.5 -30.5t-34.5 -24.5t-39 -25.5t-36 -23q-33 -157 -82 -276t-101 -182t-100 -91.5t-90 -24.5q-57 7 -76 69q-26 87 38 203q81 145 273 261q31 141 32 181q1 43 -15 67q-10 16 -35 16l-4 -6q-81 -150 -156 -186q-47 -22 -64 9q-19 35 21 94
q45 70 148 124q95 123 125.5 165.5t89.5 133.5l-240 -72q-3 -6 -5 -12.5t-3 -11.5t-2 -7v-2q-8 -27 -19.5 -54.5t-29.5 -58.5t-39.5 -54t-49 -40.5t-58.5 -19t-68 11.5q-38 -118 -101 -198.5t-118 -73.5q-62 5 -103 93t-22 243q4 31 11.5 95.5t15 116t18.5 97.5
q3 16 -2.5 26.5t-11.5 13t-3.5 8t21.5 14.5l125 57q36 20 35 -22q0 -14 -19 -114q-2 -12 -4 -22l-20 -137q-9 -57 -12.5 -111.5t-1 -102t15 -75.5t34.5 -26q30 4 52 35t51 100q-47 41 -65 117t-10 150t34 132q10 21 25 37.5t32.5 23.5t32.5 1.5t26.5 -35t14.5 -80.5
q4 -74 -9 -165.5t-36 -162.5q25 -11 47.5 -12t42 8.5t36 22t32 33.5t26 38.5t23.5 40.5zM696 -53q-82 -59 -138 -114.5t-81 -95.5t-34 -74t-5 -53t15 -30q18 -24 63.5 8t99 129.5t80.5 229.5zM307 334q34 127 34 244q-1 93 -31 85q-1 0 -3 -1q-21 -8 -32.5 -79t-3.5 -148.5
t36 -100.5zM586 231q-43 -26 -68 -55q-41 -44 -41 -70q0 -18 23 2q34 30 86 123z" />
    <glyph glyph-name="w_r" unicode="wr" horiz-adv-x="1363" 
d="M1223 649q-121 -443 -52 -487q24 -16 57.5 5.5t64.5 67t53.5 84.5t37.5 72q5 11 17 9q13 -3 6 -23q-55 -135 -143 -266q-29 -42 -63 -70.5t-68.5 -36.5t-63 6t-46 64t-17.5 131q0 101 75 438q-75 -62 -131 -59q-15 -40 -36.5 -83.5t-54 -93t-66.5 -85t-76 -52t-82 -0.5
q-33 -117 -93.5 -197t-117.5 -73q-47 5 -82 53.5t-45 141.5q-36 -88 -88 -143.5t-98 -51.5q-62 5 -103 93t-22 243q4 31 11.5 95.5t15 116t18.5 97.5q3 16 -2.5 26.5t-11.5 13t-3.5 8t21.5 14.5l125 57q36 20 35 -22q0 -14 -19 -114q-2 -12 -4 -22l-20 -137
q-9 -57 -12.5 -111.5t-1 -102t15 -75.5t34.5 -26q30 4 52 35t51 100l4 12q17 219 53 406l123 57q38 19 37 -19q0 -14 -19 -108q-4 -17 -6 -31q-11 -39 -20.5 -111.5t-14 -151.5t8.5 -135.5t45 -53.5q30 4 51 34.5t51 100.5q-47 41 -65 117t-10 150t34 132q10 21 25 37.5
t32.5 23.5t32.5 1.5t26.5 -35t14.5 -80.5q8 -117 -35 -285l-4 -18q30 -17 66.5 0t72 60.5t63.5 85.5t54 91q0 1 4 17q-38 11 -61 51.5t-25 90.5t8 98.5t40 81t71 32.5q34 0 47 -31.5t7.5 -80.5t-15 -90t-22.5 -79q13 -8 29 -7.5t45.5 11t52 21.5t48.5 23t36 16q8 3 17.5 7.5
t14.5 7t11 5t8.5 2t5.5 -1.5t3 -6.5t0.5 -11.5t-2 -18t-5 -25t-6.5 -33zM629 348q23 74 25 208q3 135 -28 129q-1 0 -3 -1q-23 -8 -36 -76t-3 -148t45 -112zM944 676q48 141 25 155q-16 9 -32 -27q-23 -54 -7 -102q5 -15 14 -26z" />
    <glyph glyph-name="w_s" unicode="ws" horiz-adv-x="1273" 
d="M563 688q10 21 25 37.5t32.5 23.5t32.5 1.5t26.5 -35t14.5 -80.5q8 -117 -35 -285l-4 -18q31 -19 73 5.5t82.5 77t72.5 104t55 99.5q-56 123 -2 229q31 61 77 81q44 18 59 -18q20 -47 -30 -160q1 -4 27 -76t40.5 -114.5t31.5 -106.5t20 -103q6 -96 -14 -164
q99 85 151 213q5 8 17 5.5t8 -17.5q-60 -151 -174 -269t-193 -118h-8q-79 -5 -115.5 54.5t-24.5 134.5t56 116q8 8 18 5t13 -11t-4 -16q-47 -66 -33.5 -107t74.5 -24q50 14 72 62t16.5 113t-22 129.5t-42.5 123.5h-2q-23 -56 -56 -112.5t-75.5 -110t-92.5 -79t-95 -8.5
q-33 -117 -93.5 -197t-117.5 -73q-47 5 -82 53.5t-45 141.5q-36 -88 -88 -143.5t-98 -51.5q-62 5 -103 93t-22 243q4 31 11.5 95.5t15 116t18.5 97.5q3 16 -2.5 26.5t-11.5 13t-3.5 8t21.5 14.5l125 57q36 20 35 -22q0 -14 -19 -114q-2 -12 -4 -22l-20 -137
q-9 -57 -12.5 -111.5t-1 -102t15 -75.5t34.5 -26q30 4 52 35t51 100l4 12q17 219 53 406l123 57q38 19 37 -19q0 -14 -19 -108q-4 -17 -6 -31q-11 -39 -20.5 -111.5t-14 -151.5t8.5 -135.5t45 -53.5q30 4 51 34.5t51 100.5q-47 41 -65 117t-10 150t34 132zM629 348
q23 74 25 208q3 135 -28 129q-1 0 -3 -1q-23 -8 -36 -76t-3 -148t45 -112zM1024 784q21 55 4 72q-10 10 -17 -5q-11 -25 13 -67z" />
    <glyph glyph-name="w_x" unicode="wx" horiz-adv-x="1372" 
d="M1077 682q2 -12 8.5 -77t14.5 -111l133 258q9 15 24 6q16 -10 7 -25l-156 -301q12 -65 18 -95t17 -77t21 -69.5t20 -28.5q25 -15 57.5 8t64.5 71.5t51 83.5t36 70q8 11 19 6.5t7 -16.5q-38 -124 -164 -299q-57 -80 -126.5 -84t-100.5 80q-22 65 -35 127l-102 -199
q-10 -17 -25 -8q-18 11 -8 25l123 237q-33 167 -43 242q-16 -32 -34.5 -62.5t-43 -62.5t-50 -56t-55.5 -42t-59 -20.5t-61 7.5q-33 -117 -93.5 -197t-117.5 -73q-47 5 -82 53.5t-45 141.5q-36 -88 -88 -143.5t-98 -51.5q-62 5 -103 93t-22 243q4 31 11.5 95.5t15 116
t18.5 97.5q3 16 -2.5 26.5t-11.5 13t-3.5 8t21.5 14.5l125 57q36 20 35 -22q0 -14 -19 -114q-2 -12 -4 -22l-20 -137q-9 -57 -12.5 -111.5t-1 -102t15 -75.5t34.5 -26q30 4 52 35t51 100l4 12q17 219 53 406l123 57q38 19 37 -19q0 -14 -19 -108q-4 -17 -6 -31
q-11 -39 -20.5 -111.5t-14 -151.5t8.5 -135.5t45 -53.5q30 4 51 34.5t51 100.5q-47 41 -65 117t-10 150t34 132q10 21 25 37.5t32.5 23.5t32.5 1.5t26.5 -35t14.5 -80.5q8 -117 -35 -285l-4 -18q34 -17 72.5 -0.5t79 58t72 86t51.5 83.5v10q-12 74 -12 93q-2 7 -7 11.5
t-10.5 6.5t-9 4t-1.5 4t11 6l119 49q31 11 44 -1t13 -60zM629 348q23 74 25 208q3 135 -28 129q-1 0 -3 -1q-23 -8 -36 -76t-3 -148t45 -112z" />
    <glyph glyph-name="w_z" unicode="wz" horiz-adv-x="1417" 
d="M952 696q5 14 20 13q11 0 7 -9l-10 -26q34 5 126.5 32t131.5 35q44 6 44 -16q-1 -17 -34 -70q-37 -71 -205 -340q33 4 59.5 -3.5t49 -32.5t27.5 -72t-5 -121q98 63 163 129t114 178q5 9 16.5 7.5t7.5 -17.5q-14 -35 -28.5 -66t-33.5 -58t-31.5 -46t-36 -41.5t-33.5 -33
t-38.5 -30.5t-34.5 -24.5t-39 -25.5t-36 -23q-33 -157 -82 -276t-101 -182t-100 -91.5t-90 -24.5q-57 7 -76 69q-26 87 39 203q81 145 273 261q1 6 4 18q15 67 21 99.5t5.5 71t-14.5 59.5q-10 16 -35 16l-4 -6q-81 -150 -156 -186q-47 -22 -64 9q-19 35 21 94q45 70 148 124
q95 123 125.5 165.5t89.5 133.5l-239 -72q-116 -316 -283 -250q-33 -117 -93.5 -197t-117.5 -73q-47 5 -82 53.5t-45 141.5q-36 -88 -88 -143.5t-98 -51.5q-62 5 -103 93t-22 243q4 31 11.5 95.5t15 116t18.5 97.5q3 16 -2.5 26.5t-11.5 13t-3.5 8t21.5 14.5l125 57
q36 20 35 -22q0 -14 -19 -114q-2 -12 -4 -22l-20 -137q-9 -57 -12.5 -111.5t-1 -102t15 -75.5t34.5 -26q30 4 52 35t51 100l4 12q17 219 53 406l123 57q38 19 37 -19q0 -14 -19 -108q-4 -17 -6 -31q-11 -39 -20.5 -111.5t-14 -151.5t8.5 -135.5t45 -53.5q30 4 51 34.5
t51 100.5q-47 41 -65 117t-10 150t34 132q10 21 25 37.5t32.5 23.5t32.5 1.5t26.5 -35t14.5 -80.5q8 -117 -35 -285l-4 -18q26 -16 52 -17t56.5 18.5t60.5 61t63 118t65 183.5zM1010 -53q-82 -59 -138 -114.5t-81 -95.5t-34.5 -74t-5.5 -53t15 -30q18 -24 63.5 8t99.5 129.5
t81 229.5zM629 348q23 74 25 208q3 135 -28 129q-1 0 -3 -1q-23 -8 -36 -76t-3 -148t45 -112zM899 231q-65 -43 -92 -88q-25 -35 -15 -43q11 -10 51 43q26 35 56 88z" />
    <glyph glyph-name="E_r" unicode="Er" horiz-adv-x="1245" 
d="M1104 649q-120 -443 -51 -487q24 -16 57.5 5.5t64.5 67t53.5 84.5t37.5 72q5 12 17 8.5t5 -22.5q-55 -135 -143 -266q-29 -42 -63 -70.5t-68.5 -36.5t-63 6t-46 64t-17.5 131q0 96 76 438q-78 -68 -138 -59q-30 -80 -68 -161t-96.5 -179t-120.5 -172t-140.5 -124
t-155.5 -50q-182 -3 -238 134q-49 119 11 294q58 169 180 285q47 44 98 73q-112 -34 -143 56q-31 87 26 235q63 166 188 280q120 111 257 125q44 4 77.5 -13t53.5 -54.5t14 -104t-41 -153.5q-3 -13 -16.5 -18.5t-24.5 1.5t-8 23q43 103 37.5 159.5t-33.5 77t-64 7.5
q-133 -40 -234 -190q-84 -125 -99 -245q-13 -108 44 -130q19 -8 46 -3q112 57 139 64q10 0 20 -14q24 -33 -57 -62q-31 -11 -76 -20q-171 -107 -246 -282q-62 -145 -32 -263q26 -103 110 -128q101 -29 248 72q104 69 192.5 211t123.5 271q-47 14 -69.5 71.5t-18 120
t36.5 112.5t83 50q34 0 47 -31.5t7.5 -80.5t-15 -90t-22.5 -79q13 -8 29 -7.5t45.5 11t52 21.5t48.5 23t36 16q8 3 17.5 7.5t14.5 7t11 5t8.5 2t5.5 -1.5t3 -6.5t0.5 -11.5t-2 -18t-5 -25t-6.5 -33zM825 676q48 141 25 155q-16 9 -32 -27q-23 -54 -7 -102q5 -15 14 -26z" />
    <glyph glyph-name="C_r" unicode="Cr" horiz-adv-x="1286" 
d="M1145 649q-120 -443 -51 -487q24 -16 57.5 5.5t64.5 67t53.5 84.5t37.5 72q5 12 17 8.5t5 -22.5q-55 -135 -143 -266q-29 -42 -63 -70.5t-68.5 -36.5t-63 6t-46 64t-17.5 131q0 96 76 438q-78 -68 -138 -59q-26 -70 -56 -137.5t-71 -143.5t-89.5 -141t-104 -121
t-122.5 -93.5t-138 -49.5q-176 -13 -237 172q-59 181 4 480q60 289 198 522q140 235 296 294q60 22 118 16q46 -4 78 -22t52.5 -54t14.5 -100t-41 -149q-3 -14 -15.5 -19.5t-24 1t-11.5 22.5q25 59 34 105t4 73.5t-20 44t-34 21.5t-42 2q-74 -14 -154.5 -98.5t-146.5 -206
t-115 -267t-67.5 -278t4 -243t90.5 -159.5q83 -54 177.5 -2t179 157t143 212t68.5 164q-47 14 -69.5 71.5t-18 120t36.5 112.5t83 50q34 0 47 -31.5t7.5 -80.5t-15 -90t-22.5 -79q13 -8 29 -7.5t45.5 11t52 21.5t48.5 23t36 16q8 3 17.5 7.5t14.5 7t11 5t8.5 2t5.5 -1.5
t3 -6.5t0.5 -11.5t-2 -18t-5 -25t-6.5 -33zM866 676q48 141 25 155q-16 9 -32 -27q-23 -54 -7 -102q5 -15 14 -26z" />
    <glyph glyph-name="E_x" unicode="Ex" horiz-adv-x="1253" 
d="M958 682q2 -12 8.5 -77t14.5 -111l133 258q9 15 25 6q15 -9 6 -25l-156 -301q12 -65 18 -95t17 -77t21 -69.5t20 -28.5q25 -15 57.5 8t64.5 71.5t51 83.5t36 70q8 11 19 6.5t7 -16.5q-39 -127 -163 -299q-57 -80 -127 -84t-101 80q-22 65 -35 127l-102 -199
q-10 -16 -24 -8q-19 11 -9 25l123 237q-30 150 -45 264q-19 -32 -51 -92t-55.5 -104t-59.5 -103.5t-67 -102.5t-72.5 -88.5t-81 -74t-88 -47t-98.5 -18.5q-182 -3 -238 134q-49 119 11 294q58 169 180 285q47 44 98 73q-112 -34 -143 56q-31 87 26 235q63 166 188 280
q120 111 257 125q44 4 77.5 -13t53.5 -54.5t14 -104t-41 -153.5q-3 -13 -16.5 -18.5t-24.5 1.5t-8 23q43 103 37.5 159.5t-33.5 77t-64 7.5q-133 -40 -234 -190q-84 -125 -99 -245q-13 -108 44 -130q19 -8 46 -3q112 57 139 64q10 0 20 -14q24 -33 -57 -62q-31 -11 -76 -20
q-171 -107 -246 -282q-62 -145 -32 -263q26 -103 110 -128q101 -29 248 72q136 91 330 465q-12 74 -12 93q-2 7 -7 11.5t-10.5 6.5t-9 4t-1.5 4t11 6l119 49q31 11 44 -1t13 -60z" />
    <glyph glyph-name="T_h" unicode="Th" horiz-adv-x="1409" 
d="M1245 565q-39 -153 -45 -209q-20 -174 21 -194q11 -8 25.5 -4t27.5 10.5t28 22.5t27.5 31t26 36.5t24 39t21 37.5t17 33l12.5 25q8 11 18 7.5t6 -19.5q-16 -59 -66 -149t-104 -152q-34 -38 -71 -58t-71.5 -19t-59.5 40t-31 115q-8 75 10 188q9 73 41 199q9 31 -13 17
q-42 -27 -135 -155q-38 -53 -69 -104l-47 -235q-12 -59 -64 -67q-43 -6 -71 21q-18 18 -15 39q14 68 50.5 262t60.5 313.5t65.5 282t83.5 277.5q-63 2 -192 21l-209 -920q-43 -191 -130.5 -295.5t-219.5 -103.5q-69 0 -117 32t-70 84t-30 103t-5 104q1 5 10 8t17.5 0.5
t7.5 -10.5q-7 -98 52 -173q56 -70 129 -62q99 11 169 166q36 79 60 190l198 895q-49 7 -82 10.5t-76.5 4t-72.5 -5t-60.5 -19t-51 -35.5t-34.5 -58t-20 -83q-3 -20 -20 -17q-17 0 -17 19q12 97 42.5 164.5t77.5 103t99 50.5t119 15q50 0 125 -11.5t181 -32t167 -29.5
q73 157 146 195q55 29 78 -29q24 -60 0 -185q146 3 180 84q6 16 22 13q19 -10 13 -25q-20 -64 -79 -102t-159 -56q-56 -174 -144.5 -401t-123.5 -293q-5 -20 -13.5 -61.5t-13.5 -63.5q15 20 74.5 112t107.5 149t99 87q41 24 63 -12q29 -46 0 -158zM936 602q45 89 82.5 184
t83 230t63.5 184q-43 -6 -90 -6q-38 -120 -57 -207q-10 -42 -35.5 -168.5t-46.5 -216.5zM1190 1292q22 92 -1 100q-18 6 -50 -50l-23 -46q54 -4 74 -4z" />
    <glyph glyph-name=".notdef" horiz-adv-x="309" 
 />
    <glyph glyph-name=".null" horiz-adv-x="0" 
 />
    <glyph glyph-name="nonmarkingreturn" horiz-adv-x="682" 
 />
    <glyph glyph-name="space" unicode=" " horiz-adv-x="352" 
 />
    <glyph glyph-name="space" unicode="&#xa0;" horiz-adv-x="352" 
 />
    <glyph glyph-name="exclam" unicode="!" horiz-adv-x="411" 
d="M20 197q7 120 97 408t176 517.5t94 233.5q157 40 166 -44q7 -64 -83 -250q-17 -36 -56 -114q-139 -280 -192 -432q-67 -191 -70 -340q0 -25 -34.5 -34.5t-67.5 5.5t-30 50zM8 94q7 23 70 23q57 -1 65 -18v-5l-12 -74q-3 -25 -37 -34.5t-65.5 5.5t-28.5 50q2 29 8 53z" />
    <glyph glyph-name="quotedbl" unicode="&#x22;" horiz-adv-x="901" 
d="M483 1282l-59 -295q-12 -47 -36 -64t-47 -6.5t-40.5 36.5t-17.5 55l57 305q10 35 35 53.5t50.5 15.5t43.5 -29.5t14 -70.5zM717 1282l-60 -295q-12 -47 -36 -64t-47 -6.5t-40.5 36.5t-17.5 55l57 305q13 47 50.5 63.5t68 -9.5t25.5 -85z" />
    <glyph glyph-name="numbersign" unicode="#" horiz-adv-x="1579" 
d="M659 20l99 351l-430 6l-105 -357h-157l102 359l-250 4q25 78 41 170l256 -4l172 604l-297 4q25 78 41 170l305 -6l101 354q111 -5 174 -2l-105 -354l420 -8l104 364q111 -5 175 -2l-109 -364l277 -4l-39 -168l-287 4l-178 -606l331 -5l-38 -168l-342 5l-103 -347h-158z
M557 1149l-178 -604l428 -6l172 604z" />
    <glyph glyph-name="dollar" unicode="$" horiz-adv-x="837" 
d="M864 1384l90 185q47 24 64 16.5t6 -43.5l-96 -199q83 -83 63 -233q-22 -130 -82 -231q-10 -13 -26 -7q-16 12 -4 27q58 97 67 215q9 103 -45 170l-280 -588l16 -61q47 -187 29 -325.5t-87 -230t-158 -136.5t-183 -45l-119 -250l-84 12l121 250q-84 25 -133 89.5
t-48 168.5q4 139 84.5 256.5t208.5 171.5q20 10 23 -10q6 -19 -10 -25q-104 -43 -172.5 -141t-69.5 -221q-4 -88 38 -147t109 -77l301 627q-27 104 -37 198t-4.5 168t22.5 138.5t44 111.5t60 83.5t70.5 58t75.5 32t75.5 8.5t70.5 -16zM594 823l246 508q-39 17 -80.5 9
t-80 -41.5t-64 -96.5t-33.5 -157t12 -222zM514 475l-242 -506q55 9 103 42.5t87 96t52.5 153.5t-0.5 214z" />
    <glyph glyph-name="percent" unicode="%" horiz-adv-x="958" 
d="M328 1221q63 0 97 -33.5t38 -90.5t-4 -111.5t-27 -115.5q-76 -245 -202 -338q-89 -65 -164 -27q-72 36 -86 148q-11 79 14 178q26 99 73 185.5t117 145.5t144 59zM322 1186q-41 -2 -79.5 -42.5t-68.5 -105.5t-47.5 -113t-32.5 -100q-56 -263 2 -297q37 -23 105 63
q79 99 131 257q54 162 62 220q16 120 -69 118h-3zM809 735q63 0 97 -33.5t38 -90t-4 -111t-27 -115.5q-77 -247 -204 -339q-89 -64 -162 -25q-72 38 -86 152q-9 77 14 173q26 99 73 185.5t117 145t144 58.5zM803 700q-33 -2 -66 -31.5t-56.5 -68.5t-46.5 -93t-35.5 -91
t-23.5 -76q-56 -263 2 -297q37 -23 105 62q79 99 131 257q2 6 7 20q56 168 57 232q2 87 -70 86h-4zM186 -59l465 1495q73 -3 99 -2l-482 -1493h-82z" />
    <glyph glyph-name="ampersand" unicode="&#x26;" horiz-adv-x="1460" 
d="M1001 1067q150 10 206 111q46 82 11 180q-34 95 -122 138q-103 51 -234 3q-45 -17 -86.5 -57.5t-67 -98.5t-29 -122t33 -134.5t112.5 -128.5q14 -10 41 -24t34.5 -24t0.5 -27q-6 -13 -20 -15.5t-28.5 2t-35.5 11t-33 8.5q-236 17 -395 -156q-125 -138 -161 -344
q-34 -196 30 -345q66 -151 208 -179q24 -5 50 -6q202 -7 290 152q64 116 49 268q-13 118 -63 168q-32 33 -69 16q-15 -6 -23.5 -8.5t-21.5 -3.5t-22 6.5t-15 23.5q-11 32 22 70t74 55q46 20 105.5 18.5t120 -19.5t122.5 -34.5t113.5 -26.5t93 5t60.5 59q16 32 34 25
q21 -8 9 -51q-1 -4 -2 -7q-29 -72 -65.5 -112.5t-75 -48.5t-81.5 -0.5t-84 30.5t-84 45.5t-81.5 44.5t-75.5 27t-66 -6q105 -9 172 -118q70 -113 60 -260q-12 -172 -131 -281q-132 -121 -363 -121q-242 0 -380 166q-117 140 -122 347q-5 211 108 387q127 199 356 266
q102 30 218 30q-80 74 -122 153t-45 146.5t15.5 130t55.5 110t79.5 80t84.5 45.5q229 70 388 -32q112 -72 148.5 -201.5t-22.5 -237.5q-68 -125 -232 -152q-23 -3 -47 -5q-27 0 -38 15t0 29.5t38 14.5z" />
    <glyph glyph-name="quotesingle" unicode="'" horiz-adv-x="739" 
d="M483 1282l-59 -295q-12 -47 -36 -64t-47 -6.5t-40.5 36.5t-17.5 55l57 305q10 35 35 53.5t50.5 15.5t43.5 -29.5t14 -70.5z" />
    <glyph glyph-name="parenleft" unicode="(" horiz-adv-x="612" 
d="M395 -350q28 -38 17.5 -54.5t-62.5 7.5q-157 213 -245.5 425t-105 403.5t21.5 371t131.5 337.5t227.5 293.5t308 247.5q43 36 74 21q23 -11 11 -38q-6 -12 -19 -24q-136 -76 -240.5 -182.5t-168 -225.5t-103.5 -253t-51.5 -268t-7 -268t26 -254.5t51 -226t64.5 -184.5
t70 -128z" />
    <glyph glyph-name="parenright" unicode=")" horiz-adv-x="679" 
d="M121 1657q-28 38 -17.5 54.5t62.5 -7.5q188 -257 276.5 -510t80.5 -474t-95 -424.5t-238.5 -369.5t-361.5 -301q-41 -37 -72 -24q-24 11 -14 37q5 15 20 28q136 76 240.5 182.5t168 225.5t103.5 253.5t51.5 268.5t7 268t-26 254.5t-51 226t-64.5 184.5t-70 128z" />
    <glyph glyph-name="asterisk" unicode="*" horiz-adv-x="954" 
d="M563 1176l-26 -142l141 94q30 19 48.5 14.5t26.5 -19.5t4 -36.5t-18 -37.5l-204 -134l167 -182q16 -20 16.5 -41.5t-11 -33.5t-33.5 -11.5t-45 19.5l-133 147l-35 -184q-9 -39 -33.5 -46t-45.5 11.5t-24 46.5l33 178l-158 -104q-32 -16 -58 -6.5t-26.5 34t29.5 56.5
l207 135l-162 172q-21 25 -21 46t14 30t35.5 8.5t39.5 -12.5l139 -152l31 170q8 29 34 39t48.5 -6.5t19.5 -52.5z" />
    <glyph glyph-name="plus" unicode="+" horiz-adv-x="1705" 
d="M874 1120l-59 -354h346q48 -2 70 -21.5t17.5 -43.5t-26 -47t-51.5 -31h-378l-60 -365q-9 -48 -32.5 -66.5t-47 -10t-42.5 33.5t-21 55l57 353h-360q-50 3 -74 35.5t-4.5 67t78.5 42.5l383 -2l61 379q8 37 32.5 57t50 18t44 -28.5t16.5 -71.5z" />
    <glyph glyph-name="comma" unicode="," horiz-adv-x="342" 
d="M213 152q-4 -38 -16 -78t-34.5 -86t-62.5 -91.5t-92 -80.5q-13 -2 -12 6q1 7 41 61q73 99 82 170q2 16 -11 18.5t-29 -2t-26.5 -1t-5.5 21.5l27 100q10 28 29 45.5t39 19t38 -7t28 -34t5 -61.5z" />
    <glyph glyph-name="hyphen" unicode="-" horiz-adv-x="1431" 
d="M287 768l874 -2q48 -2 70 -21.5t17.5 -43.5t-26 -47t-51.5 -31h-884q-50 3 -74 35.5t-4.5 67t78.5 42.5z" />
    <glyph glyph-name="period" unicode="." horiz-adv-x="290" 
d="M213 152l-16 -93q-15 -46 -40 -62t-47 -5.5t-38.5 37.5t-16.5 59l19 102q10 28 29 45.5t39 19t38 -7t28 -34t5 -61.5z" />
    <glyph glyph-name="slash" unicode="/" horiz-adv-x="759" 
d="M-47 -205l530 1749q81 -3 115 -2l-547 -1747h-98z" />
    <glyph glyph-name="zero" unicode="0" horiz-adv-x="888" 
d="M623 1196q83 0 135 -38t71 -96.5t18 -139t-15.5 -153t-38.5 -151.5q-113 -365 -298 -526q-130 -113 -252 -88q-105 21 -158 136q-75 160 -12 412q0 2 1 5q25 96 63 187t90.5 173.5t112.5 144t133.5 98t149.5 36.5zM612 1139q-55 -2 -109 -50.5t-93 -114.5t-76 -153
t-57.5 -150.5t-36.5 -123.5q-85 -407 -9 -482q48 -47 142 54q110 117 207 343q26 59 47 120q77 229 94 318q44 224 -83 238q-12 2 -26 1z" />
    <glyph glyph-name="one" unicode="1" horiz-adv-x="479" 
d="M8 25l215 1073q0 9 -6.5 15t-12 9t-2 8t20.5 13q29 13 80 33.5t68 27.5q15 6 17 -16q1 -18 -11 -86q-41 -198 -113.5 -538.5t-113.5 -538.5q-12 -25 -71 -25t-71 25z" />
    <glyph glyph-name="two" unicode="2" horiz-adv-x="854" 
d="M227 815q-24 88 9 181t109 154.5t167 61.5q73 0 132.5 -27.5t95.5 -72.5t52.5 -101.5t10.5 -115.5q-8 -77 -45 -149t-91 -130t-118.5 -111.5t-131.5 -103.5t-126 -96.5t-107 -99t-69 -103.5q50 41 118 46t131.5 -9.5t126.5 -25.5t118 7t89 79q15 35 35 30q18 -6 15 -35
l-5 -20q-47 -93 -94.5 -133.5t-111 -40.5t-164.5 39q-12 5 -39 16.5t-35.5 14.5t-28.5 9.5t-28.5 5.5t-24.5 -2.5t-27 -9.5t-26 -20t-31 -30q-23 -25 -50.5 -20.5t-37.5 36.5q-11 34 4 78t34 71.5t48 63.5q47 55 117.5 117.5t126 111.5t111.5 110t94.5 141.5t54.5 178.5
q16 115 -33 178.5t-125 63.5q-94 -5 -164.5 -106t-38.5 -213q9 -27 3 -41.5t-22.5 -8.5t-27.5 31z" />
    <glyph glyph-name="three" unicode="3" horiz-adv-x="806" 
d="M174 909q-5 135 108 223q93 73 212 75.5t177 -68.5q43 -54 36 -140q-12 -157 -234 -311q146 6 204 -103q51 -98 10 -236q-44 -147 -164 -244q-134 -108 -312 -105q-55 0 -95.5 20.5t-63.5 55t-34.5 81t-10 96.5t12.5 103q8 26 24.5 32.5t28.5 -8t7 -40.5
q-12 -47 -11.5 -95t13.5 -92t49 -71t90 -25q117 3 214 133q84 112 106 245q21 131 -37 180q-59 51 -185 -11q-20 -7 -29 1.5t-6 22.5t13 19q52 23 97.5 53.5t88.5 74.5t66.5 103.5t19.5 127.5q-7 109 -86 131q-68 19 -146 -32q-82 -53 -104 -139q-8 -32 -6 -65
q4 -25 -17 -32q-22 -6 -32 17q-4 10 -4 23z" />
    <glyph glyph-name="four" unicode="4" horiz-adv-x="825" 
d="M459 430l71 363q22 10 65 27t69 30q15 5 17 -16q1 -19 -11 -89l-68 -317q73 12 94 70q15 34 36 39q15 3 15 -14q1 -11 -6 -27q-66 -166 -163 -189l-60 -282q-12 -25 -70.5 -25t-70.5 25l59 297q-17 5 -63.5 21t-71.5 22.5t-65 13t-76 1t-72 -21.5q-32 -18 -58 -5t-22 48
q1 6 12.5 13t33.5 21t40 34q418 451 455 692q2 16 20 26.5t43 12t49 -1.5t40 -15.5t14 -29.5q-19 -70 -66 -149.5t-117 -161t-130.5 -145t-142.5 -145.5t-118 -120q15 8 33 13t43 6t42 1.5t51 -3t47 -5t53.5 -7.5t48.5 -7z" />
    <glyph glyph-name="five" unicode="5" horiz-adv-x="872" 
d="M504 776q142 6 196 -110q50 -107 5 -263q-47 -165 -169 -277q-142 -129 -325 -126q-55 0 -95.5 20.5t-63.5 55t-34.5 81t-10 96.5t12.5 103q8 26 24.5 32.5t28.5 -8t7 -40.5q-12 -47 -11.5 -95t13.5 -92t49 -71t90 -25q113 4 215 145q91 125 121 277q30 151 -26 213
q-52 57 -166 8l-27 -63q-9 -19 -26 -23.5t-34.5 3t-33 18.5t-24 24.5t-5.5 20.5q43 98 87.5 243.5t68.5 211.5q11 32 57 36t110 -7t131.5 -21t134.5 0.5t107 50.5q24 28 43 16t5 -40l-11 -17q-40 -57 -83 -87.5t-78.5 -36t-77 3t-72 23.5t-69.5 33t-64 25q-21 -58 -55 -168
t-64 -188q52 15 119 18z" />
    <glyph glyph-name="six" unicode="6" horiz-adv-x="937" 
d="M643 1214q69 0 116 -31t65.5 -82t22.5 -115t-13 -130q-8 -27 -24.5 -33.5t-28.5 8.5t-7 41q7 39 8.5 76t-5 77t-21.5 69t-46.5 47t-76.5 16q-51 -2 -104 -47t-98.5 -119.5t-85 -166t-69.5 -193.5q38 42 88.5 64.5t101.5 24t99.5 -16.5t85 -52t56.5 -89t14 -122
q-17 -188 -146 -317q-106 -105 -233 -121q-131 -16 -208 76q-113 131 -56 425q7 34 16 70q32 122 84.5 234t121.5 204t158.5 147.5t184.5 55.5zM260 565q-81 -322 -15 -444q38 -71 111 -47q73 25 134 126q45 75 65 169q10 54 10.5 103.5t-12 87t-32 65.5t-49 38.5t-62 6.5
t-72 -31t-78.5 -74z" />
    <glyph glyph-name="seven" unicode="7" horiz-adv-x="514" 
d="M31 47q38 139 114 346.5t182.5 429t188.5 303.5q-38 -22 -90 -29.5t-97 -7.5t-88.5 -4.5t-78 -27.5t-53.5 -70q-15 -37 -37 -39q-14 -2 -16 14q-1 11 5 27q34 85 69 134t70 65.5t70.5 15.5t77 -12t82 -20t92.5 -6t103 26q32 15 58 2t22 -47q-1 -6 -13 -12.5t-34 -20
t-40 -33.5q-106 -112 -249 -485t-172 -555q-5 -28 -48.5 -37.5t-83 3.5t-34.5 40z" />
    <glyph glyph-name="eight" unicode="8" horiz-adv-x="940" 
d="M645 645q119 -47 131 -177q10 -121 -73 -250q-83 -131 -211 -187q-103 -46 -209 -25q-94 20 -152.5 72t-75.5 117.5t-1 140t61 139.5t122 115.5t171 68.5q-42 20 -71 51t-41.5 67.5t-14.5 77t11.5 81t35.5 79t57.5 71.5t78 58t97 39.5t113.5 14.5q105 -2 163 -50.5
t61.5 -120t-23.5 -147.5t-90 -141t-140 -94zM664 1149q-69 -2 -124.5 -48t-82 -111.5t-34.5 -132.5t12 -119t63 -64q62 -20 149 71q84 87 124 199q45 129 -15 179q-32 28 -92 26zM502 612q-83 -2 -149.5 -55.5t-99 -130.5t-43.5 -155.5t12 -140t73 -75.5q72 -21 173 78
q95 94 147 221q59 146 7 214q-36 46 -120 44z" />
    <glyph glyph-name="nine" unicode="9" horiz-adv-x="886" 
d="M211 0q-55 0 -95.5 20.5t-63.5 55t-34.5 81t-10 96.5t12.5 103q8 26 24.5 32.5t28.5 -8t7 -40.5q-12 -47 -11.5 -95t13.5 -92t49 -71t90 -25q66 3 136 81t125 193.5t96 252.5q-55 -61 -137 -79t-153 5.5t-118 93t-37 168.5q17 190 147 319q105 105 232 121
q131 16 209 -76q112 -130 56 -420q-7 -37 -17 -77q-32 -122 -84.5 -233.5t-122 -203.5t-158.5 -147t-184 -55zM594 649q77 322 12 444q-39 71 -112 46q-72 -26 -131 -128q-44 -74 -64 -167q-10 -47 -10.5 -90.5t7.5 -79.5t23 -64t36 -45t48 -22t57 4t64.5 34.5t69.5 67.5z
" />
    <glyph glyph-name="colon" unicode=":" horiz-adv-x="630" 
d="M213 152l-16 -93q-15 -46 -40 -62t-47 -5.5t-38.5 37.5t-16.5 59l19 102q10 28 29 45.5t39 19t38 -7t28 -34t5 -61.5zM444 913l-16 -92q-15 -46 -40 -62t-47 -5.5t-38 37.5t-16 59l18 102q12 35 38 52t50 13t40.5 -32t10.5 -72z" />
    <glyph glyph-name="semicolon" unicode=";" horiz-adv-x="641" 
d="M444 913l-16 -92q-15 -46 -40 -62t-47 -5.5t-38 37.5t-16 59l18 102q12 35 38 52t50 13t40.5 -32t10.5 -72zM213 152q-4 -38 -16 -78t-34.5 -86t-62.5 -91.5t-92 -80.5q-13 -2 -12 6q1 7 41 61q73 99 82 170q2 16 -11 18.5t-29 -2t-26.5 -1t-5.5 21.5l27 100
q10 28 29 45.5t39 19t38 -7t28 -34t5 -61.5z" />
    <glyph glyph-name="less" unicode="&#x3c;" horiz-adv-x="884" 
d="M541 -41q17 -29 -11 -50q-27 -19 -56 -2q-17 11 -25 34q-142 224 -279.5 471.5t-169.5 300.5q165 126 234 179.5t214 171t306 255.5q45 36 73 21q22 -13 7 -42q-5 -10 -15 -20q-187 -185 -368 -359.5t-246 -238.5q133 -337 336 -721z" />
    <glyph glyph-name="equal" unicode="=" horiz-adv-x="1705" 
d="M387 948l875 -2q48 -2 70 -21.5t17.5 -43.5t-26 -47t-51.5 -31h-885q-50 3 -74 35.5t-4.5 67t78.5 42.5zM236 537l874 -2q48 -2 70 -21.5t17.5 -44t-26 -47.5t-51.5 -31h-884q-50 3 -74 36t-4.5 67.5t78.5 42.5z" />
    <glyph glyph-name="greater" unicode="&#x3e;" horiz-adv-x="1105" 
d="M330 1284q-17 30 7 50q24 19 50 1q15 -10 23 -32q138 -218 275.5 -458.5t184.5 -314.5q-197 -147 -354 -273t-399 -333q-44 -39 -73 -24q-22 13 -9 42q5 12 16 23q162 156 336 327.5t279 270.5q-133 337 -336 721z" />
    <glyph glyph-name="question" unicode="?" horiz-adv-x="616" 
d="M70 858q-2 109 24.5 200t72 151.5t102 98t118.5 48.5q165 24 264 -72q89 -87 82 -228q-8 -171 -152 -327q-69 -75 -163 -137q-46 -31 -72 -51t-63 -57.5t-59 -76t-42 -98t-30 -133.5q-3 -23 -37 -32.5t-66 4.5t-29 49q4 53 22.5 100.5t42.5 82t64 73.5t72.5 64t84 65
t81.5 65q195 158 211 325q12 116 -63 191q-68 67 -162 58q-111 -10 -185 -128q-57 -92 -79 -233q-5 -21 -28 -14q-12 3 -12 10q0 1 1 2zM8 94q7 23 70 23q57 -1 65 -18v-5l-12 -74q-3 -25 -37 -34.5t-65.5 5.5t-28.5 50q2 29 8 53z" />
    <glyph glyph-name="at" unicode="@" horiz-adv-x="1167" 
d="M702 520l35 144q14 10 66 33t65 26q8 2 3 -34q-2 -9 -43 -203q-62 -290 -19 -334q36 -36 96.5 28.5t95.5 147.5q85 212 8 375q-56 118 -173 166q-132 52 -266 -9q-161 -73 -250 -280q-37 -85 -58 -189q-18 -90 -18.5 -172t15 -146.5t43.5 -118.5t68 -87.5t87.5 -52.5
t103.5 -15t113.5 26.5t120.5 71.5t123 119q8 8 20 -2t6 -20q-66 -78 -139.5 -132t-143 -79t-139.5 -30t-130 15.5t-114 57.5t-91.5 95.5t-61.5 129.5t-25 159.5t17 186.5q54 264 241 417q150 123 328 133q168 10 277 -86q130 -114 113 -329q-8 -101 -50 -217
q-55 -153 -162 -266q-62 -65 -125 -59q-45 4 -67.5 57.5t-22.5 136.5q-40 -91 -91 -143.5t-97 -54.5q-45 0 -74 49.5t-34.5 146t24.5 238.5q39 186 125 265q66 61 123 22q62 -43 77 -187zM690 473q-23 101 -66 117q-49 19 -94 -93q-17 -43 -32 -102q-23 -92 -17 -163.5
t37 -88.5q28 -14 67.5 12.5t67.5 84.5q6 110 37 233z" />
    <glyph glyph-name="A" unicode="A" horiz-adv-x="1144" 
d="M1022 1212q-3 -14 -20.5 -101.5t-30.5 -143.5q50 56 77 110.5t30 96t-10 74t-40 50t-63 19.5q-46 2 -91 -25.5t-81.5 -72t-72 -108.5t-62.5 -126.5t-53 -135.5t-42.5 -126t-32.5 -107q-7 -24 -10 -34h234q30 187 71 370t64 250l121 41q16 4 17 -1.5t-5 -29.5zM748 545
h-238q-32 -112 -47 -156q-91 -319 -226 -438q-91 -80 -167 -40q-73 39 -90 169q-9 68 0 149q4 18 21 15t15 -21q-3 -121 63 -170q61 -47 141 -1q109 61 179 251q17 46 31 98l41 144h-65q-19 0 -19 18q0 19 19 19h77q7 22 29.5 95t38.5 125t46 134t57 140.5t65.5 124
t76.5 105.5t85.5 65t97.5 20q45 -5 79 -34.5t48 -79t7.5 -109t-46.5 -131.5t-111 -140q-172 -754 -38 -862q21 -16 52.5 13t65.5 89.5t62.5 118.5t56 120t33.5 73q8 17 19 9.5t3 -24.5q-4 -8 -20 -51t-34.5 -86.5t-45.5 -102t-58 -108t-66.5 -93.5t-78 -69.5t-84.5 -25.5
q-48 0 -74.5 53.5t-31 148.5t3 204.5t27.5 240.5z" />
    <glyph glyph-name="B" unicode="B" horiz-adv-x="1323" 
d="M766 1194l-82 -377l-119 -520q-43 -191 -130.5 -295.5t-219.5 -103.5q-56 0 -98 22t-66 55.5t-38 78.5t-17.5 85t-1.5 80q1 7 10 10.5t17.5 0.5t7.5 -11q-7 -99 50 -173q56 -71 129 -61q97 12 169 169q36 78 61 186l117 514q-58 54 -75 117.5t1.5 121.5t61 113t98.5 95
t119 64t117 24q91 0 156.5 -25.5t96.5 -69.5t42 -99.5t-2.5 -117.5t-42 -122.5t-72.5 -116t-97 -95.5q142 -17 186 -159q41 -132 -16 -312q-56 -172 -166 -276q-112 -105 -235 -86q-67 11 -120.5 59.5t-63.5 110.5l-2 59q3 19 20 19t17 -21l2 -51q7 -52 50 -76.5t99 -13.5
q38 8 78 31q64 40 117 122t79 174t32 178t-24 144.5t-91 63.5q-140 -112 -214 -110q-36 1 -36 29q1 36 54 72q66 45 171 50q32 34 61.5 81.5t51.5 101.5t35 109.5t9 106t-23 90t-65 62t-114 20.5q-61 -2 -126 -29t-115 -72t-80 -99t-23 -117t57 -117l70 299l100 37
q35 11 38 7.5t-5 -36.5zM860 709z" />
    <glyph glyph-name="C" unicode="C" horiz-adv-x="743" 
d="M817 449q-105 -196 -172 -290q-176 -245 -360 -261q-176 -13 -237 172q-59 181 4 480q60 289 198 522q140 235 296 294q60 22 118 16q46 -4 78 -22t52.5 -54t14.5 -100t-41 -149q-3 -14 -15.5 -19.5t-24 1t-11.5 22.5q25 59 34 105t4 73.5t-20 44t-34 21.5t-42 2
q-75 -13 -155.5 -97.5t-146 -205.5t-114 -266.5t-67 -278.5t4 -244t89.5 -160q199 -140 521 401q1 2 2 3q4 11 11 11t11.5 -7t1.5 -14z" />
    <glyph glyph-name="D" unicode="D" horiz-adv-x="1310" 
d="M748 1194l-82 -377l-119 -520q-43 -191 -130.5 -295.5t-219.5 -103.5q-56 0 -98.5 22t-66 55.5t-37.5 78.5t-18 85t-2 80q1 7 10 10.5t17.5 0.5t7.5 -11q-7 -99 50 -172q55 -71 129 -62q98 12 170 170q36 77 61 185l117 514q-58 54 -75.5 117.5t1.5 121.5t61 113t98.5 95
t119 64t116.5 24q178 1 264 -204q81 -193 57 -495q-23 -291 -129 -512q-102 -215 -241 -260q-49 -16 -100 -8q-67 11 -121 59.5t-64 110.5l-2 59q3 19 21 19q16 0 16 -21l2 -51q7 -52 50.5 -76.5t99.5 -13.5q36 8 77 31q78 50 144 200.5t95.5 333.5t28.5 357t-59.5 290
t-165.5 113q-61 -2 -125.5 -29t-114.5 -72t-80 -99t-23 -117t57 -117l69 299l101 37q35 11 38 7.5t-5 -36.5z" />
    <glyph glyph-name="E" unicode="E" horiz-adv-x="702" 
d="M776 446q-290 -548 -532 -548q-182 -3 -238 134q-49 119 11 294q58 169 180 285q47 44 98 73q-112 -34 -143 56q-31 87 26 235q63 166 188 280q120 111 257 125q44 4 77.5 -13t53.5 -54.5t14 -104t-41 -153.5q-3 -13 -16.5 -18.5t-24.5 1.5t-8 23q43 103 37.5 159.5
t-33.5 77t-64 7.5q-133 -40 -234 -190q-84 -125 -99 -245q-13 -108 44 -130q19 -8 46 -3q112 57 139 64q10 0 20 -14q24 -33 -57 -62q-31 -11 -76 -20q-171 -107 -247 -282q-62 -144 -32 -263q26 -102 110 -127q102 -29 249 71q32 21 64.5 53t56 61.5t50 70t40.5 65t34.5 61
t25.5 44.5q6 18 19 6q9 -9 5 -19z" />
    <glyph glyph-name="F" unicode="F" horiz-adv-x="798" 
d="M184 1051q13 104 48.5 174.5t86 103.5t112.5 47t129.5 8.5t134.5 -16.5t130 -23.5t114.5 -16.5t88.5 8.5t51 47.5q7 16 23 13q18 -9 12 -25q-18 -60 -54.5 -96.5t-83.5 -49t-104.5 -15.5t-115.5 6l-66 -340h172q19 0 19 -19q0 -18 -19 -18h-180l-135 -543
q-43 -191 -130.5 -295.5t-219.5 -103.5q-69 0 -117 32t-70 84t-30 103t-5 104q1 5 10 8t17.5 0.5t7.5 -10.5q-7 -98 52 -173q56 -70 129 -62q99 11 169 166q36 79 60 190l123 500h-58q-18 0 -18 18q0 19 18 19h66l67 358q-49 7 -82 10.5t-76.5 4t-72.5 -5t-60.5 -19
t-51 -35.5t-34.5 -58t-20 -83q-3 -20 -20 -17q-17 0 -17 19z" />
    <glyph glyph-name="G" unicode="G" horiz-adv-x="821" 
d="M692 621l-145 -617q-43 -191 -130.5 -295.5t-219.5 -103.5q-56 0 -98.5 22t-66 55.5t-37.5 78.5t-18 85t-2 80q1 7 10 10.5t17.5 0.5t7.5 -11q-7 -99 50 -172q55 -71 129 -62q98 12 170 170q36 77 61 185l55 238q-59 -64 -132.5 -83t-136 9.5t-111.5 94.5t-60 171.5
t20 241.5q41 169 106 301t139 210.5t149.5 119.5t148.5 45q93 3 150 -61q63 -71 36 -170q-39 -139 -240 -255q-73 -42 -163 -78q-15 -5 -23 1t-2 22q172 62 282 179q88 95 80 166q-6 56 -79 71q-73 13 -149.5 -36t-137 -136.5t-107 -194.5t-67.5 -211q-36 -181 25 -309
q43 -92 115 -108q83 -18 154 81q17 24 32 54l55 231l103 33q40 12 42.5 -1.5t-12.5 -51.5z" />
    <glyph glyph-name="H" unicode="H" horiz-adv-x="1288" 
d="M614 565l-59 -268q-43 -191 -130.5 -295.5t-219.5 -103.5q-69 0 -117 32t-69.5 84t-29.5 102.5t-5 104.5q1 5 10 8t17 0.5t7 -10.5q-7 -99 50 -172q55 -71 129 -62q98 12 170 170q36 77 61 185l51 225h-39q-18 0 -18 19q0 18 18 18h47q134 579 158 694q3 17 0 25.5
t-6.5 12t-0.5 6t19 8.5l101 36q36 12 38 8q0 -3 -8 -34l-165 -756h286q26 144 65 311t70.5 289.5t36.5 147.5l121 43q16 4 17 -2.5t-5 -30.5q-5 -22 -30 -127t-44.5 -189.5t-45.5 -211t-43 -230.5h30q19 0 19 -18q0 -19 -19 -19h-37q-72 -462 17 -530q21 -16 52.5 13
t65.5 89.5t62.5 118.5t56 120t33.5 73q8 18 20 9q10 -8 3 -24q-4 -8 -20 -51t-34.5 -86.5t-45.5 -102t-58 -108t-66.5 -93.5t-78 -69.5t-84.5 -25.5q-180 0 -66 667h-287z" />
    <glyph glyph-name="I" unicode="I" horiz-adv-x="755" 
d="M780 1356l-233 -1059q-43 -191 -130.5 -295.5t-219.5 -103.5q-56 0 -98.5 22t-66 55.5t-37.5 78.5t-18 85t-2 80q1 7 10 10.5t17.5 0.5t7.5 -11q-7 -99 50 -172q55 -71 129 -62q98 12 170 170q36 77 61 185l110 481q-64 124 -84 217q-8 37 -8 69.5t6 58t19.5 48.5
t29 40.5t38.5 33.5t45.5 28t51.5 24t54 20.5t56 19.5q8 3 12 4q35 11 37 8t-7 -36zM543 877q76 332 94 419v9q-110 -46 -144.5 -111t-0.5 -186q30 -91 51 -131z" />
    <glyph glyph-name="J" unicode="J" horiz-adv-x="792" 
d="M850 1358l-303 -1350q-43 -191 -130.5 -295.5t-219.5 -103.5q-69 0 -117 32t-70 83.5t-30 102t-5 103.5q1 5 10 8.5t17.5 1.5t7.5 -10q-7 -99 50 -172q55 -71 129 -63q99 12 171 172q35 77 60 182q18 71 45 192t35 156q-49 128 -73.5 269.5t-14.5 261.5q6 62 19 112.5
t31 89.5t46.5 72t57.5 57t72.5 47t83.5 40t97 38q36 12 38 8q1 -2 -7 -34zM514 463q164 704 193 833q0 7 2 9q-134 -60 -196.5 -161.5t-68.5 -258.5q-9 -192 70 -422z" />
    <glyph glyph-name="K" unicode="K" horiz-adv-x="1304" 
d="M784 1354l-237 -1057q-43 -191 -130.5 -295.5t-219.5 -103.5q-56 0 -98.5 22t-66 55.5t-37.5 78.5t-18 85t-2 80q1 7 10 10.5t17.5 0.5t7.5 -11q-7 -99 50 -172q55 -71 129 -62q98 12 170 170q36 77 61 185l231 1006l103 36q34 10 36 7.5t-6 -35.5zM1325 1354
q-29 2 -65.5 -65t-75.5 -169.5t-82 -209t-100 -197.5t-115 -121l-4 -2q42 -47 66 -129.5t31 -160t15.5 -147.5t31.5 -103t67 -15q28 13 68 75t67.5 120.5t61.5 136.5t36 82q7 16 20 10q14 -7 3 -25q-4 -8 -20 -51t-34.5 -86.5t-45.5 -102t-58 -108t-66.5 -93.5t-78 -69.5
t-84.5 -25.5q-56 0 -80.5 53.5t-23.5 138t6.5 174t0.5 176.5t-32 129q-124 -44 -183 -8q-35 22 -24 55q11 37 64 45q65 9 153 -36q36 22 64 74.5t45 116.5t35 139.5t34.5 145t43 132t60.5 100.5t87 51.5t122 -16.5q5 -3 5 -6.5t-4 -6t-11 -1.5zM807 598z" />
    <glyph glyph-name="L" unicode="L" horiz-adv-x="995" 
d="M784 1356l-233 -1059q-9 -48 -39 -139q32 -16 80 -42.5t76.5 -42.5t70 -30.5t73.5 -14t73 15t82 48.5q10 16 24 8q15 -12 6 -26q-28 -43 -56 -73.5t-57 -45.5t-55.5 -22t-58.5 -1t-59.5 16t-64.5 31t-67.5 41t-74.5 49q-8 6 -13.5 9.5t-11.5 7.5q-99 -191 -278 -188
q-111 0 -178 88q-57 75 -46 160q10 88 90 121q115 49 322 -50q22 60 35 123l111 481q-64 124 -84 217q-17 81 -2 139t70.5 97.5t96 57.5t127.5 48q7 3 11 4q35 11 37 8t-7 -36zM145 -12q58 -19 117 22.5t107 153.5q-158 103 -258 70q-60 -20 -70 -80q-11 -66 46 -124
q24 -25 58 -42zM547 877q76 332 94 419q0 7 2 9q-75 -31 -113 -66.5t-49 -93t15 -137.5q30 -91 51 -131z" />
    <glyph glyph-name="M" unicode="M" horiz-adv-x="1357" 
d="M1247 1221l-57 -242q63 70 83 173q20 107 -29 148q-29 25 -79 17q-42 -6 -83 -44.5t-72 -91t-63.5 -126.5t-55.5 -138t-51 -140.5t-47 -119.5q8 -154 -0.5 -283.5t-26.5 -212.5t-43 -142t-48.5 -85t-43.5 -28q-33 -2 -52 13t-24.5 49t-1.5 79t20 109.5t36 132t50 155.5
l-8 498q-119 -401 -172 -553q-36 -105 -73 -187t-83.5 -155.5t-101.5 -112t-115 -34.5q-39 2 -67.5 37.5t-40.5 85.5t-17 106t5 100q5 18 20 16t14 -22q3 -39 9 -69.5t20 -61.5t40.5 -47t64.5 -14q61 2 124.5 81t116.5 204t101.5 272.5t86.5 296.5t65 265.5t43 190.5
q5 26 7 35q5 2 14 6q19 8 23 0q6 -9 12 -94l1 -14l40 -531q12 30 36.5 101.5t44.5 123.5t49.5 123t59 121t65 96t76.5 68t85 19q58 -3 90 -40t34 -92.5t-13.5 -116.5t-51.5 -117.5t-81 -90.5q-186 -792 -47 -903q21 -16 52.5 13t65.5 89.5t62.5 118.5t56 120t33.5 73
q7 17 18 9.5t4 -24.5q-4 -8 -20 -51t-34.5 -86.5t-45.5 -102t-58 -108t-66.5 -93.5t-78 -69.5t-84.5 -25.5q-61 0 -88 83.5t-21 216t25.5 285.5t51 303.5t57 257t41.5 158.5l117 35q23 9 26 2.5t-2 -18.5zM678 377q-23 -56 -39 -109q-42 -142 -30 -216q5 -27 16 -24
q23 5 39 112q14 95 14 237z" />
    <glyph glyph-name="N" unicode="N" horiz-adv-x="1110" 
d="M1440 1055q54 117 11 213q-32 70 -98 86q-81 20 -151 -59q-67 -75 -102 -222l-271 -1161q-2 -7 -38 -12.5t-71.5 0t-35.5 24.5l-74 1018q-10 -32 -53.5 -238.5t-81.5 -314.5q-29 -83 -57 -151t-64.5 -134.5t-74 -111t-83.5 -71t-94 -23.5q-39 2 -67.5 37.5t-40.5 85.5
t-17 106.5t5 101.5q5 18 20 15t14 -23q3 -39 9 -69t20 -60t40.5 -46.5t64.5 -16.5q58 0 114.5 59t101 150.5t86.5 218t72.5 247t57.5 253t41.5 219.5t25.5 163q65 39 77 37q10 -1 14 -34l1 -11l80 -1304q26 97 66 269t70 306t67.5 302.5t40.5 182.5q43 200 161 272
q85 52 169 16q76 -32 101 -116q29 -98 -30 -217q-3 -7 -10.5 -7t-13 6t-2.5 14z" />
    <glyph glyph-name="O" unicode="O" horiz-adv-x="1003" 
d="M807 1135q61 -40 79.5 -147t-3 -241t-76.5 -281.5t-130.5 -270.5t-176.5 -207t-203 -92q-134 -11 -199 91.5t-65 282.5q-110 -7 -180.5 39.5t-108.5 149.5q-3 17 14 20q18 4 21 -14q36 -89 96.5 -127t157.5 -31q4 112 30.5 238.5t70 248t104.5 231.5t129 191t149 125.5
t160 36.5q78 -8 117 -72.5t14 -170.5zM672 1303q-107 -20 -222.5 -178t-190.5 -373.5t-79 -397.5q110 55 236.5 192.5t219.5 294t120 273.5q-76 22 -158 -110q-10 -16 -25 -7t-6 25q102 156 195 131q19 75 -11.5 117.5t-78.5 32.5zM283 51q119 -86 263 64q126 130 220 375
q94 242 92 423q-1 139 -65 181q-35 -107 -97 -223.5t-141 -225t-178 -198t-197 -134.5q10 -195 103 -262z" />
    <glyph glyph-name="P" unicode="P" horiz-adv-x="1089" 
d="M748 1196l-82 -379l-119 -520q-43 -191 -130.5 -295.5t-219.5 -103.5q-56 0 -98.5 22t-66 55.5t-37.5 78.5t-18 85t-2 80q1 7 10 10.5t17.5 0.5t7.5 -11q-7 -99 50 -172q55 -71 129 -62q98 12 170 170q36 77 61 185l117 514q-57 53 -74.5 116.5t0.5 122t59.5 114.5
t97 96.5t119 64t119.5 21.5q113 -4 183.5 -55t92.5 -127t13.5 -168.5t-44.5 -179t-91.5 -158.5t-118.5 -107q42 -34 43 -34q7 -9 -8 -15q-4 -3 -18.5 -8.5t-18.5 -8.5l-47 45q-129 -48 -192 -12q-37 21 -26 55q10 36 63 44q65 10 155 -35q48 31 92 109t66 172.5t21.5 185
t-45 155.5t-128.5 74q-46 4 -99 -11.5t-101.5 -45t-86.5 -73t-57.5 -91.5t-11 -104.5t50.5 -108.5l69 299l101 37q35 11 38 7.5t-5 -34.5zM807 598z" />
    <glyph glyph-name="Q" unicode="Q" horiz-adv-x="1015" 
d="M-20 33q-17 -20 -28 -7q-10 12 1 23q67 63 90 80q-10 54 -10 141q-110 -7 -180.5 39.5t-108.5 149.5q-3 17 14 20q18 4 21 -14q36 -89 96.5 -127t157.5 -31q4 112 30.5 238.5t70 248t104.5 231.5t129 191t149 125.5t160 36.5q78 -8 117 -72.5t14 -170.5q70 -45 84 -174.5
t-20 -285t-109.5 -321.5t-171.5 -280q39 -22 66.5 -35t65.5 -24.5t77.5 -10t81.5 15.5q10 2 12 -8q2 -8 -6 -16q-61 -57 -116.5 -82.5t-105 -19t-89.5 26t-87 56.5q-92 -71 -192 -81q-192 -14 -246 200q-36 -25 -71 -63zM180 313q0 -46 10 -104q33 9 65 11t63.5 -5t57 -15.5
t56.5 -26.5t51.5 -31t53.5 -36q87 84 163.5 235.5t117.5 302t38 280t-63 170.5q-35 -107 -97 -223.5t-141 -225t-178 -198t-197 -134.5zM672 1303q-107 -20 -222.5 -178t-190.5 -373.5t-79 -397.5q110 55 236.5 192.5t219.5 294t120 273.5q-76 22 -158 -110q-10 -16 -25 -7
t-6 25q102 156 195 131q19 75 -11.5 117.5t-78.5 32.5zM283 51q64 -46 139 -20q-44 35 -70 54t-65.5 38.5t-75.5 23.5q28 -68 72 -96z" />
    <glyph glyph-name="R" unicode="R" horiz-adv-x="1259" 
d="M725 1194l-82 -377l-119 -520q-43 -191 -130.5 -295.5t-219.5 -103.5q-56 0 -98 22t-66 55.5t-38 78.5t-17.5 85t-1.5 80q1 7 10 10.5t17.5 0.5t7.5 -11q-7 -99 50 -173q56 -71 129 -61q97 12 169 169q36 78 61 186l117 514q-57 57 -74 121.5t0.5 122.5t59 112t97 93
t119 62.5t120.5 23.5q86 0 147.5 -28.5t92.5 -76.5t43.5 -110.5t3.5 -130.5t-32 -137.5t-57.5 -130t-78.5 -109t-91 -74.5l-4 -2q42 -47 66 -129.5t31 -160t15.5 -147.5t31.5 -103t67 -15q28 13 68 75.5t67.5 120.5t62 136.5t36.5 81.5q8 17 20 9.5t2 -24.5q-4 -8 -20 -51
t-34.5 -86.5t-45.5 -102t-58 -108t-66.5 -93.5t-78 -69.5t-84.5 -25.5q-56 0 -80.5 53.5t-23.5 138t6.5 174t0.5 176.5t-32 129q-124 -44 -183 -8q-35 22 -24 55q11 37 64 45q65 9 153 -36q36 23 69.5 73.5t57.5 114.5t39.5 135t13 137.5t-19.5 120t-59.5 85.5t-106.5 30
q-76 -3 -155.5 -41t-134 -98.5t-62.5 -137t59 -157.5l70 299l100 37q35 11 38 7.5t-5 -36.5zM784 598z" />
    <glyph glyph-name="S" unicode="S" horiz-adv-x="837" 
d="M879 899q58 97 67 215q11 121 -59 187q-59 56 -135 38q-86 -19 -133 -124q-86 -192 11 -554q3 -13 7 -26q86 -315 -39 -525q-81 -136 -226 -188q-132 -48 -245 -2q-112 45 -143 161q-10 41 -9 87q4 139 84.5 256.5t208.5 171.5q20 10 23 -10q6 -19 -10 -25
q-104 -43 -172.5 -141t-69.5 -221q-3 -130 84 -194q75 -56 173 -31q108 27 171 137q102 180 23 486q-1 2 -1 3q-93 375 19 604q66 136 184 181q105 40 193 -8q92 -51 107 -170q6 -46 -1 -97q-22 -130 -82 -231q-10 -13 -26 -7q-16 12 -4 27z" />
    <glyph glyph-name="T" unicode="T" horiz-adv-x="755" 
d="M184 1051q13 104 48.5 174.5t86 103.5t112.5 47t129.5 8.5t134.5 -16.5t130 -23.5t114.5 -16.5t88.5 8.5t51 47.5q7 16 23 13q18 -9 12 -25q-18 -60 -54.5 -96.5t-83.5 -49t-104.5 -15.5t-115.5 6l-209 -920q-43 -191 -130.5 -295.5t-219.5 -103.5q-69 0 -117 32t-70 84
t-30 103t-5 104q1 5 10 8t17.5 0.5t7.5 -10.5q-7 -98 52 -173q56 -70 129 -62q99 11 169 166q36 79 60 190l198 895q-49 7 -82 10.5t-76.5 4t-72.5 -5t-60.5 -19t-51 -35.5t-34.5 -58t-20 -83q-3 -20 -20 -17q-17 0 -17 19z" />
    <glyph glyph-name="U" unicode="U" horiz-adv-x="876" 
d="M166 33q25 -10 62.5 16.5t80 79t79 105.5t73.5 114q11 103 33 217q27 149 92.5 413t87.5 372l119 43q17 4 18.5 -2.5t-4.5 -30.5q-20 -92 -56 -250.5t-64.5 -291t-49.5 -253.5q-35 -185 -33.5 -338.5t49.5 -191.5q21 -16 52 13t65.5 89.5t62 117t56 120.5t33.5 74
q7 11 15 11.5t10.5 -7.5t-1.5 -19q-4 -8 -20 -51t-34.5 -86.5t-45.5 -102t-58 -108t-66.5 -93.5t-78 -69.5t-84.5 -25.5q-134 0 -106 360q-102 -154 -181.5 -242t-128 -108t-80.5 2t-44 77t-13 128.5t6.5 145.5t20.5 138q31 164 101 457t102 440q3 17 0 25.5t-6 12t0 6
t18 8.5l102 36q34 12 37 8.5t-6 -34.5l-186 -850q-104 -452 -29 -475z" />
    <glyph glyph-name="V" unicode="V" horiz-adv-x="679" 
d="M162 1380q0 -3 -8 -91.5t-13 -149t-14 -176.5t-14 -202t-10.5 -197.5t-5.5 -192t2.5 -154.5t12.5 -115.5t25 -48.5q24 -9 64 23t86.5 96.5t98 153t99 195t88.5 218.5t67 227.5t34.5 219.5t-9 196.5t-63.5 155.5q-13 18 3 26q17 7 28 -10q64 -70 87 -182t8.5 -239.5
t-53.5 -270.5t-96.5 -278t-124 -260t-132 -218t-124 -149.5t-96.5 -58.5q-68 -3 -100 133t-26.5 401t13 406.5t27.5 384.5q2 25 3 37t2 28.5t2 28.5q0 12 -7 19.5t-6.5 10t17.5 9.5q76 32 118 43q15 4 17.5 -2t-0.5 -17z" />
    <glyph glyph-name="W" unicode="W" horiz-adv-x="1255" 
d="M702 1354q-15 -121 -31.5 -413.5t-9.5 -583t56 -285.5q32 2 80.5 54t101.5 138t105 199.5t94.5 236t66 250.5t24.5 240t-35.5 207.5t-109.5 150.5q-7 8 -2.5 18t15.5 13.5t24 -2.5q81 -71 120.5 -183t38.5 -239t-28.5 -270t-76.5 -277.5t-109 -258t-123 -215.5t-123 -147
t-104 -55q-59 0 -95 92.5t-46.5 249.5t-9.5 313.5t12 334.5q-106 -398 -113 -425q-133 -464 -248 -566q-37 -33 -74 -33q-34 0 -59.5 38t-39 110.5t-21.5 156t-7.5 196.5t3 210t10 217.5t13 197.5t13 172.5t9.5 120.5q0 12 -7 19.5t-6.5 10t17.5 9.5q10 4 118 43
q15 4 17.5 -2t-0.5 -17q-11 -85 -26.5 -281.5t-28.5 -431.5t-7 -416.5t37 -197.5q28 -14 64 28.5t73.5 130.5t75 192t75.5 234t67 235.5t57 216.5q6 118 18 239q83 33 121 43q7 2 10.5 2t5 -2t1.5 -3.5t-1.5 -7t-1.5 -7.5z" />
    <glyph glyph-name="X" unicode="X" horiz-adv-x="978" 
d="M756 41q22 -14 54 15.5t66.5 90.5t62 117.5t55.5 119t32 71.5q8 18 20 9q10 -8 3 -24q-5 -9 -32.5 -79t-60 -139.5t-75 -145t-93 -123t-98.5 -47.5q-36 0 -65.5 41t-53 120t-40.5 175t-33 223l-23 -78q-89 -319 -225 -438q-90 -80 -165 -40q-74 38 -93 167q-10 69 0 153
q3 11 13 14t17.5 -3.5t4.5 -18.5q-3 -121 63 -171q61 -46 141 -1q108 61 179 250q18 47 32 100q6 24 23 81.5t22 74.5q-7 60 -33 317t-44 396q0 10 -5.5 17.5t-11 10.5t-8.5 6.5t1.5 7.5t19.5 11q118 58 132 62q21 5 24 -14q1 -7 1 -21l15 -151q14 -151 28 -273q4 9 28 73
t38 97q94 218 224 278q92 43 163 -8q66 -48 70 -146q6 -138 -117 -275q-23 -26 -49 -50q-5 -6 -12.5 -5t-12.5 7q-13 13 2 25q138 130 153 264q10 95 -46 144q-55 48 -135 11q-115 -53 -203 -252l-4 -10q-58 -138 -89 -235q83 -763 140 -801z" />
    <glyph glyph-name="Y" unicode="Y" horiz-adv-x="829" 
d="M862 1331l-315 -1333q-89 -399 -350 -399q-69 0 -117 32t-70 84t-30 103t-5 104q1 5 10 8.5t17.5 1.5t7.5 -10q-7 -99 50 -173q55 -71 129 -62q99 11 171 170q35 77 60 184l108 463q-70 -101 -129 -170.5t-102 -106t-76.5 -48t-54.5 1.5t-34 44.5t-17 78t-1.5 106
t10.5 124t21 136.5q8 38 38.5 199.5t52.5 271t34 155.5q3 17 0 25.5t-6 12t0 6t19 8.5l102 36q34 12 36 8q1 -1 -5 -34l-123 -572q-2 -12 -14 -69.5t-23 -118t-19.5 -125.5t-2 -110t29.5 -52q26 -10 62.5 15.5t79.5 79.5t77 103.5t74 113.5l172 727l102 32q40 12 43 -0.5
t-12 -50.5z" />
    <glyph glyph-name="Z" unicode="Z" horiz-adv-x="915" 
d="M403 696zM262 1059q19 164 94 245t210.5 89.5t334.5 -41.5q37 -9 -9 -75q-7 -9 -30 -40l-305 -414q146 -28 189 -205q42 -177 -27 -424q-68 -244 -204 -410q-151 -187 -319 -181l-22 2q-45 4 -87.5 29.5t-75.5 73t-36 116t31 158.5q3 14 16.5 19.5t24.5 -1.5t8 -23
q-31 -77 -28 -135t29.5 -94.5t59.5 -53.5t62 -13q93 16 184 119t146.5 241.5t81.5 277.5t-7 243.5t-122 123.5q-134 -192 -226 -215q-54 -13 -70 37q-18 57 25 136q59 107 183 156q51 20 108 27l318 410q-17 -2 -65 4.5t-98 13.5t-109.5 3.5t-106.5 -20.5t-81 -63.5
t-40 -119.5q-1 -1 -5.5 -9t-6 -8h-8.5q-2 1 -7 4t-7 5t-4 5.5t1 6.5z" />
    <glyph glyph-name="bracketleft" unicode="[" horiz-adv-x="618" 
d="M-39 -211l240 1802q22 0 172.5 -1t173.5 -1l-17 -61h-192l-217 -1673h260l-16 -66h-404z" />
    <glyph glyph-name="backslash" unicode="\" horiz-adv-x="604" 
d="M68 1544l530 -1749h-98l-547 1747q34 -1 115 2z" />
    <glyph glyph-name="bracketright" unicode="]" horiz-adv-x="581" 
d="M547 1591l-240 -1802q-23 0 -173 1t-173 1l16 62h193l217 1673h-260l16 65h404z" />
    <glyph glyph-name="asciicircum" unicode="^" horiz-adv-x="1366" 
d="M111 920q-19 -19 -37 -1q-19 19 -5 45q7 12 19 21q152 143 321 290.5t214 188.5q268 -305 530 -573q34 -34 23 -62q-9 -21 -35 -9q-6 3 -13 9q-147 133 -291 261t-219 196q-270 -174 -507 -366z" />
    <glyph glyph-name="underscore" unicode="_" horiz-adv-x="1705" 
d="M223 -57l1127 -2q48 -2 70 -21.5t17.5 -44t-26 -47.5t-51.5 -31h-1137q-50 3 -74 36t-4.5 67.5t78.5 42.5z" />
    <glyph glyph-name="grave" unicode="`" horiz-adv-x="788" 
d="M489 1055q-6 40 25 37q32 -3 67 -36q16 -16 15 -24q0 -2 57 -108q62 -118 40 -117q-3 1 -9 4q-41 27 -116 115t-79 129z" />
    <glyph glyph-name="a" unicode="a" 
d="M326 543l34 145q14 9 70.5 33t63.5 29q5 1 7 -4t1 -16t-4 -25.5t-8 -35.5t-10 -41.5t-11 -47.5t-10 -50t-17 -87t-17.5 -93.5t-9.5 -73.5t0.5 -69.5t18.5 -38.5q16 -14 35.5 -10.5t41.5 23t43 46t40.5 58t33.5 58.5t23 48q6 13 18.5 9.5t6.5 -19.5q-101 -225 -187 -318
q-66 -69 -127 -61q-45 4 -67.5 59.5t-22.5 139.5q-40 -94 -91.5 -146.5t-100.5 -54.5q-46 0 -75.5 50.5t-35 148t24.5 241.5q38 186 125 268q67 64 126 27q66 -42 81 -192zM311 494q-18 102 -61 120q-47 21 -93 -83q-20 -47 -38 -115q-24 -94 -18.5 -166.5t36.5 -89.5
q29 -17 68.5 10.5t68.5 87.5q9 125 37 236z" />
    <glyph glyph-name="b" unicode="b" horiz-adv-x="532" 
d="M250 680q10 21 25 37.5t32.5 23.5t32.5 1.5t26.5 -35t14.5 -80.5q4 -72 -8.5 -159.5t-36.5 -154.5q25 -11 49 -11t43.5 9t38.5 25.5t33 35t28 42.5t23 42.5t18 39.5q5 11 17 7.5t8 -16.5q-9 -32 -25 -66t-41 -70t-55.5 -58.5t-69 -32t-81.5 9.5q-28 -113 -92 -195
t-119 -75q-62 5 -103 93t-22 243q27 258 87.5 515t153.5 460q72 158 147 199q56 30 80 -26q38 -86 -28 -300l-16 -49q-64 -183 -138.5 -369t-107.5 -250l-12 -47q-9 -57 -12.5 -111.5t-1 -102t15 -75.5t34.5 -26q30 4 52 35t51 100q-47 42 -65 115.5t-10 145.5t34 130z
M172 606q43 82 209 537q67 189 52 242q-9 31 -41 -14q-65 -90 -127 -335l-11 -45q-10 -43 -22 -99.5t-29.5 -141t-30.5 -144.5zM305 334q32 119 33 237q1 96 -28 90q-2 -1 -5 -2q-18 -8 -32.5 -74.5t-8.5 -144t41 -106.5z" />
    <glyph glyph-name="c" unicode="c" horiz-adv-x="425" 
d="M254 553q11 45 45 45q2 0 5 -1h3q-5 0 -4 -1q-23 43 -70 9q-55 -39 -89 -138q-9 -26 -15 -53q-36 -171 8 -254q36 -68 107 -33q34 17 71 57q58 60 131 203q7 12 15 4q8 -7 4 -22q-63 -150 -127 -234q-79 -107 -171 -131q-95 -25 -146 56q-70 112 -19 378q57 227 159 287
q68 40 125 -8q53 -45 60 -135q5 -71 -33 -93q-28 -15 -49 6q-19 21 -10 58z" />
    <glyph glyph-name="d" unicode="d" horiz-adv-x="641" 
d="M428 248q-3 -59 18 -80q25 -20 56 -3t64.5 61.5t58.5 88.5t39 78q6 12 18 8t6 -20q-102 -227 -186 -318q-66 -69 -127 -61q-45 4 -67.5 59.5t-22.5 139.5q-40 -94 -92 -146.5t-101 -54.5q-46 0 -75.5 50.5t-35 148t24.5 241.5q39 188 126 268q67 63 125 25
q61 -39 79 -176q107 534 211 754q73 158 147 199q55 30 79 -26q37 -87 -31 -305q-7 -21 -15 -44q-64 -183 -138.5 -369t-107.5 -250q-1 -2 -1 -5q-2 -7 -2 -10q-5 -31 -50 -253zM324 494q-18 101 -61 120q-47 21 -93 -81q-21 -47 -39 -117q-24 -94 -18 -166t37 -90
q29 -17 68.5 10.5t68.5 87.5q9 125 37 236zM489 604q15 27 33.5 68.5t45 111t40.5 107t49.5 135t42.5 117.5q67 183 52 238q-8 32 -39 -9q-62 -80 -124 -308l-18 -73q-10 -42 -35.5 -169.5t-46.5 -217.5z" />
    <glyph glyph-name="e" unicode="e" horiz-adv-x="425" 
d="M133 190q8 -46 33 -64.5t64.5 -4t86.5 62.5q54 59 132 203q6 11 14 4.5t2 -22.5q-49 -135 -125 -234q-46 -62 -102.5 -97.5t-104.5 -37.5q-69 0 -109 61.5t-43 159.5t25 221q27 145 97.5 231t134.5 68q59 -14 87 -67.5t21.5 -124.5t-32.5 -143.5t-75.5 -132t-105.5 -83.5
zM250 614q-41 -15 -77 -89.5t-48 -164.5q0 -7 -2.5 -39t-3 -52t3.5 -44q97 46 152 173q43 101 31 173q-9 57 -51 45q-2 -1 -5 -2z" />
    <glyph glyph-name="f" unicode="f" horiz-adv-x="321" 
d="M72 39l-99 -504q-13 -60 -66 -66q-42 -4 -70 25q-16 17 -13 37l90 451q-24 -7 -29 12q-5 23 22 41l19 8q23 117 67 335.5t64 319.5q85 399 181 611q73 156 147 197q56 31 80 -24q37 -87 -33 -306q-6 -21 -14 -43q-150 -444 -258 -644l-76 -385v-6q92 62 154.5 127
t107.5 172q5 9 17 7.5t8 -17.5q-15 -38 -33 -72t-32.5 -58.5t-38 -50.5t-36 -40t-40.5 -35.5t-37.5 -28.5t-41 -28.5t-38.5 -26.5zM197 672l-13 -64q72 144 205 533q67 185 53 240q-8 31 -40 -11q-63 -85 -125 -321q-7 -30 -15 -62q-1 -6 -65 -315z" />
    <glyph glyph-name="g" unicode="g" horiz-adv-x="626" 
d="M203 -78q-120 -97 -198 -226t-101 -267q-10 -56 23 -70q35 -14 77 30q12 12 23 29q58 90 104 236.5t72 267.5zM209 -27l37 158q-37 -58 -78.5 -94.5t-75.5 -36.5q-45 0 -74.5 51t-35.5 150t24 245q39 187 126 268q67 62 126 24q62 -41 80 -179q15 117 18 135
q23 12 67.5 29.5t68.5 28.5q15 6 17 -16q1 -18 -11 -87l-123 -559q94 60 160.5 127.5t115.5 179.5q5 9 15.5 7.5t9.5 -17.5q-14 -35 -28.5 -66t-33.5 -58t-31.5 -46t-36 -41.5t-33.5 -33t-38.5 -30.5t-34.5 -24.5t-39 -25.5t-36 -23q-35 -171 -89 -340q-65 -188 -114 -275
q-102 -183 -225 -178q-99 11 -68 189q24 151 114 291.5t226 246.5zM326 500q-23 105 -67 121q-49 17 -94 -93q-18 -44 -34 -106q-23 -97 -18 -170t34 -90q24 -13 58.5 3.5t62.5 59.5q25 100 58 269v6z" />
    <glyph glyph-name="h" unicode="h" horiz-adv-x="653" 
d="M489 565q-39 -153 -45 -209q-20 -174 21 -194q11 -8 25.5 -4t27.5 10.5t28 22.5t27.5 31t26 36.5t24 39t21 37.5t17 33l12.5 25q8 11 18 7.5t6 -19.5q-16 -59 -66 -149t-104 -152q-34 -38 -71 -58t-71.5 -19t-59.5 40t-31 115q-8 75 10 188q9 73 41 199q9 31 -13 17
q-42 -27 -135 -155q-38 -53 -69 -104l-47 -235q-12 -59 -64 -67q-43 -6 -71 21q-18 18 -15 39q11 55 44 232t54.5 281t55.5 254.5t72 269t80 209.5q73 159 147 199q55 31 79 -26q36 -86 -30 -300l-16 -47q-66 -189 -139 -373.5t-107 -247.5q-5 -20 -13.5 -61.5t-13.5 -63.5
q15 20 74.5 112t107.5 149t99 87q41 24 63 -12q29 -46 0 -158zM180 602q16 26 35 69.5t43.5 107.5t41.5 111.5t47 131.5t42 119q67 185 53 240q-8 31 -40 -11q-63 -85 -125 -321q-7 -30 -15 -62q-10 -42 -35.5 -168.5t-46.5 -216.5z" />
    <glyph glyph-name="i" unicode="i" horiz-adv-x="335" 
d="M201 666q-63 -232 -70 -297q-16 -132 -9 -170q4 -29 19 -39q23 -15 57.5 9.5t67 70.5t57 87t37.5 68q5 8 12 9.5t11 -3.5t0 -14q-34 -113 -172 -303q-38 -48 -82.5 -68t-81 -10t-58.5 59t-16 130q1 9 7.5 70t11.5 91q5 24 16.5 88t20.5 109t16 70q5 14 -3.5 26
t-12.5 15.5t12 13.5l121 55q46 21 51 5t-12 -72zM147 995q35 19 62 0.5t33 -65.5q7 -42 -12 -87.5t-50 -64.5q-32 -19 -60 -1t-34 65q-7 43 11 87.5t50 65.5z" />
    <glyph glyph-name="j" unicode="j" horiz-adv-x="325" 
d="M-100 -78q-120 -97 -196.5 -226t-100.5 -267q-10 -57 24 -70t76 32q11 12 21 27q58 90 104 236.5t72 267.5zM45 645q0 9 -6.5 15.5t-11.5 9.5t-1.5 8t19.5 12q78 38 143 62q10 4 14 -2.5t3 -25t-3 -32.5t-7 -43q-14 -83 -34.5 -176.5t-47.5 -205.5t-41 -177
q97 62 162 128t114 179q5 9 17 7.5t8 -17.5q-14 -35 -29 -66t-33.5 -58t-31.5 -46.5t-36 -41t-33.5 -32.5t-38 -30.5t-35.5 -25t-39 -25.5t-36 -23q-42 -203 -88 -340q-67 -192 -118 -282q-102 -176 -222 -171q-98 11 -67 189q24 151 114 291.5t226 246.5q131 549 139 672z
M131 999q30 19 57.5 0.5t38.5 -63.5q8 -47 -8.5 -91t-48.5 -63q-31 -19 -58.5 1t-35.5 65q-10 44 6.5 89t48.5 62z" />
    <glyph glyph-name="k" unicode="k" horiz-adv-x="653" 
d="M528 178q46 29 89 98.5t57 116.5q8 11 18 7.5t6 -19.5q-16 -59 -66 -149t-104 -152q-66 -75 -143 -78q-41 -4 -82.5 36.5t-73 104.5t-53 122t-33.5 106l-61 -303q-12 -59 -64 -67q-43 -6 -71 21q-18 18 -15 39q11 55 44 232t54.5 281t55.5 254.5t72 269t80 209.5
q73 159 147 199q55 31 79 -26q36 -86 -30 -300l-16 -47q-66 -189 -139 -373.5t-107 -247.5l-2 -8q71 100 151.5 171.5t143.5 67.5q46 -3 55 -84q10 -96 -34 -200q-49 -118 -131 -140q-93 -26 -203 84l-2 -8q19 -40 47 -80.5t66.5 -79.5t81 -61t90 -25t93.5 29zM158 438v-2
q36 -35 69 -46t56.5 -2t43 30.5t31 46.5t19.5 53q21 72 -12 86q-43 19 -136 -81q-34 -36 -71 -85zM180 602q16 26 35 69.5t43.5 107.5t41.5 111.5t47 131.5t42 119q67 185 53 240q-8 31 -40 -11q-63 -85 -125 -321q-7 -30 -15 -62q-10 -42 -35.5 -168.5t-46.5 -216.5z" />
    <glyph glyph-name="l" unicode="l" horiz-adv-x="327" 
d="M397 1133q-67 -191 -139.5 -375t-105.5 -246q-8 -30 -15.5 -64.5t-15 -78t-9.5 -81.5t1 -70t16.5 -49t36.5 -13q72 12 182 233q4 8 11 9t11.5 -5.5t0.5 -17.5q-99 -248 -212 -338q-85 -67 -137 -14q-63 64 -47 264q13 198 90 531.5t152 488.5q75 156 149 197
q56 31 79 -25q36 -87 -35 -307q-6 -19 -13 -39zM160 602q15 27 33.5 68.5t45 111t40.5 107t49.5 135t42.5 117.5q67 184 52 239q-8 31 -40 -11q-63 -83 -124 -315q-9 -33 -17 -67q-10 -42 -35.5 -168.5t-46.5 -216.5z" />
    <glyph glyph-name="m" unicode="m" horiz-adv-x="872" 
d="M711 565l-45 -209q-20 -174 20 -194q11 -8 25.5 -4t27.5 10.5t28 22.5t27.5 31t26 36.5t24 39t21 37.5t17 33l12.5 25q8 11 19.5 7.5t5.5 -19.5q-16 -59 -66 -149t-104 -152q-34 -38 -71 -58t-72 -19t-60 40t-31 115q-8 75 10 188q19 109 39 189q11 41 -17 10
q-47 -51 -163 -242l-37 -240q-8 -31 -35.5 -47t-55 -13.5t-44.5 27.5t-8 68l90 432q16 58 -45 -29q-46 -65 -125 -198l-45 -235q-12 -59 -64 -67q-43 -6 -71 21q-18 18 -15 39q3 17 34.5 161.5t59 277.5t23.5 143q-2 8 -9.5 15.5t-10.5 11t5 10t34 16.5q112 51 121 54
q22 6 23 -13q0 -9 -3 -35q-2 -14 -34.5 -157t-35.5 -156q58 98 84 140.5t60.5 95.5t56 76.5t41.5 35.5q46 26 65 -19q20 -48 -4 -153q-16 -49 -35 -144q-7 -35 -2 -28q15 24 52 83t57.5 89.5t49 72t49 65t36.5 32.5q41 24 64 -12q29 -46 0 -158z" />
    <glyph glyph-name="n" unicode="n" horiz-adv-x="651" 
d="M487 565q-84 -372 -24 -403q11 -8 25.5 -4t27.5 10.5t28 22.5t27.5 31t26 36.5t24 39t21 37.5t17 33l12.5 25q8 11 18 7.5t6 -19.5q-16 -59 -66 -149t-104 -152q-34 -38 -71 -58t-71.5 -19t-59.5 40t-31 115q-8 75 10 188q11 90 29 150q33 112 -49 16q-31 -36 -140 -189
q-13 -18 -18 -24q-19 -90 -45 -231q-12 -59 -64 -67q-43 -6 -71 21q-18 18 -15 39q3 17 34.5 161.5t59 277.5t23.5 143q-2 8 -9.5 15.5t-10.5 11t5 10t34 16.5q112 51 121 54q22 6 23 -13q0 -9 -3 -35q-15 -79 -38 -187.5t-26 -127.5q64 103 152.5 213.5t128.5 134.5
q41 24 63 -12q29 -46 0 -158z" />
    <glyph glyph-name="o" unicode="o" horiz-adv-x="509" 
d="M252 680q-45 -38 -81 -170.5t-33.5 -248t52.5 -107.5q30 4 52 35t51 100q-47 42 -65 115.5t-10 145.5t34 130zM334 307q22 -9 42.5 -10.5t37 1.5t33.5 15t29 21.5t26 29.5t21 32t19 36t15.5 32.5t13.5 31.5q5 11 17 7.5t8 -16.5q-9 -32 -25 -66t-41 -70t-55.5 -58.5
t-69 -32t-81.5 9.5q-28 -113 -92 -195t-119 -75q-62 5 -103 93t-22 243q12 102 46 200.5t75.5 166t84.5 108.5t74 41q18 0 35 -23.5t10 -62.5q41 -12 58 -67t11 -129.5t-18.5 -141.5t-29.5 -121zM309 326q48 132 41 264q-4 87 -31 91q-7 1 -16 -7q-18 -18 -32.5 -82
t-7 -143.5t45.5 -122.5z" />
    <glyph glyph-name="p" unicode="p" horiz-adv-x="655" 
d="M172 522l-49 -250l6 -16q10 -53 29.5 -84.5t43.5 -36.5t51.5 31.5t51.5 112.5q-69 45 -96 129q-28 101 6 202q22 57 58.5 100.5t86.5 43.5q46 0 75.5 -51t35 -149.5t-24.5 -242.5l-4 -14q72 -3 133 47q68 58 115 158q3 7 10.5 8t12 -4.5t0.5 -16.5q-24 -95 -82 -155
q-81 -97 -203 -94q-26 -81 -63 -138.5t-75.5 -78.5t-74 -13.5t-62 56.5t-36.5 131l-4 24l-133 -688q-12 -60 -64 -67q-42 -6 -71 23q-18 17 -15 38l219 1116q-2 7 -9.5 14t-11 11t4.5 11t33 17q112 51 120 53q22 7 24 -10q1 -10 -3 -39zM324 342q14 59 21.5 106.5t8.5 77
t-3 49t-10 26.5t-15 5q-21 -5 -36.5 -45.5t-9.5 -103t44 -115.5z" />
    <glyph glyph-name="q" unicode="q" horiz-adv-x="645" 
d="M227 43l17 86q-37 -53 -82 -91t-74 -38q-72 0 -99 113t13 333q39 187 126 268q67 62 126 24q62 -41 80 -179q15 117 18 135q24 11 68 28.5t67 29.5q10 4 14 -2.5t3 -25t-3 -32.5t-7 -43l-111 -551q92 62 155 127t109 172q5 9 16 7.5t7 -17.5q-15 -38 -33 -72t-32.5 -58.5
t-38 -50.5t-36 -40t-40.5 -35.5t-37.5 -28.5t-41 -28.5t-38.5 -26.5l-99 -510q-12 -60 -64 -67q-43 -5 -71 23q-17 18 -14 38l90 453q-24 -9 -30 11q-7 22 20 39q10 6 22 9zM264 225l55 281q-22 97 -65 113q-50 19 -94 -90q-18 -44 -33 -107q-24 -97 -19 -169.5t35 -90.5
q24 -13 58.5 3.5t62.5 59.5z" />
    <glyph glyph-name="r" unicode="r" horiz-adv-x="542" 
d="M401 649q-120 -443 -51 -487q24 -16 57.5 5.5t64.5 67t53.5 84.5t37.5 72q5 11 17 9q13 -3 6 -23q-54 -131 -144 -266q-29 -42 -63 -70.5t-68.5 -36.5t-63 6t-46 64t-17.5 131q0 96 76 438q-78 -68 -137 -59q-6 -14 -40.5 -106.5t-55.5 -139.5q-5 -8 -10.5 -11.5t-9.5 -2
t-6 5t-1.5 9.5t4.5 13q26 59 56 136.5t34 97.5q-38 11 -61 51.5t-25 90.5t8 98.5t40 81t71 32.5q23 0 36.5 -15t16.5 -40.5t1 -54.5t-9 -62.5t-14 -59.5t-15 -49q13 -8 29 -7.5t45.5 11t52 21.5t48.5 23t36 16q8 3 17.5 7.5t14.5 7t11 5t8.5 2t5.5 -1.5t3 -6.5t0.5 -11.5
t-2 -18t-5 -25t-6.5 -33zM123 676q47 140 24 155q-16 9 -31 -27q-23 -54 -7 -102q5 -15 14 -26z" />
    <glyph glyph-name="s" unicode="s" horiz-adv-x="452" 
d="M4 350l115 266q-57 125 -3 233q31 61 76 80q43 19 58 -17q20 -48 -29 -162q1 -4 27 -76t40.5 -114.5t31.5 -106.5t20 -103q6 -96 -14 -164q99 85 151 213q5 8 17 5.5t8 -17.5q-60 -151 -174 -269t-193 -118h-8q-79 -5 -115.5 54.5t-24.5 134.5t56 116q8 8 18 5t13 -11
t-4 -16q-47 -66 -33.5 -107t74.5 -24q50 14 72 62t16.5 113t-22 129.5t-42.5 123.5q-59 -151 -108 -244q-5 -14 -18 -14q-15 0 -5 28zM203 784z" />
    <glyph glyph-name="t" unicode="t" horiz-adv-x="335" 
d="M406 1133q-14 -43 -27 -76h147q19 0 19 -19q0 -18 -19 -18h-159q-149 -399 -207 -508q-8 -30 -15.5 -64.5t-15 -78t-9.5 -81.5t1 -70t16.5 -49t36.5 -13q36 6 83 66t97 167q8 13 19.5 8t5.5 -22q-98 -244 -211 -335q-85 -69 -138 -18q-65 62 -46 265q12 130 52 338.5
t89 394.5h-123q-18 0 -18 18q0 19 18 19h133q56 181 90 250q77 159 152 199q56 29 78 -28q35 -90 -38 -314q-5 -15 -11 -31zM268 1057h80l29 84q66 183 53 239q-7 32 -38 -7q-60 -77 -121 -303zM334 1020h-76q-5 -27 -8 -33q-10 -42 -35.5 -168.5t-46.5 -216.5
q54 96 166 418z" />
    <glyph glyph-name="u" unicode="u" horiz-adv-x="645" 
d="M195 662q-4 -23 -18 -87t-26 -124.5t-21 -124.5t-3.5 -109t27.5 -57q26 -13 65.5 13t69.5 81q3 51 8.5 96t15.5 93t16.5 76t22 86t21.5 81q5 1 53.5 23t67.5 28l7 3.5t6.5 3t6 1t4.5 -2t1.5 -6.5t-1.5 -13q-4 -24 -21 -92.5t-33 -137t-28 -140.5t-8 -125t29 -68
q29 -20 74.5 23.5t80.5 102.5t54 107q7 12 18 7t6 -17q-19 -71 -94.5 -195t-130.5 -163q-78 -52 -133 2t-47 170q-60 -143 -143 -184q-70 -35 -117 23q-65 83 -37 291q5 35 12 72q41 225 41 240q0 6 -8 15t-11 13t7 11l127 57q37 18 44.5 5.5t-5.5 -78.5z" />
    <glyph glyph-name="v" unicode="v" horiz-adv-x="507" 
d="M250 688q10 21 25 37.5t32.5 23.5t32.5 1.5t26.5 -35t14.5 -80.5q4 -74 -9 -165.5t-36 -162.5q23 -10 44.5 -11.5t40.5 6t34.5 18t31 29.5t26 34.5t22.5 39.5t18.5 37.5t15.5 35.5q5 11 17 7.5t8 -16.5q-8 -27 -19.5 -54.5t-29.5 -58.5t-39.5 -54t-49 -40.5t-58.5 -19
t-68 11.5q-38 -118 -101 -198.5t-118 -73.5q-62 5 -103 93t-22 243q4 31 11.5 95.5t15 116t18.5 97.5q3 16 -2.5 26.5t-11.5 13t-3.5 8t21.5 14.5l125 57q36 20 35 -22q0 -14 -19 -114q-2 -12 -4 -22l-20 -137q-9 -57 -12.5 -111.5t-1 -102t15 -75.5t34.5 -26q30 4 52 35
t51 100q-47 41 -65 117t-10 150t34 132zM307 334q34 127 34 244q-1 93 -31 85q-1 0 -3 -1q-21 -8 -32.5 -79t-3.5 -148.5t36 -100.5z" />
    <glyph glyph-name="w" unicode="w" horiz-adv-x="821" 
d="M563 688q10 21 25 37.5t32.5 23.5t32.5 1.5t26.5 -35t14.5 -80.5q8 -117 -35 -285l-4 -18q29 -19 58 -14t54 21.5t48 45t39.5 56t28.5 55.5q5 11 16.5 7.5t7.5 -16.5q-9 -32 -25 -66t-41 -70t-55.5 -58.5t-69 -32t-81.5 9.5q-33 -117 -93.5 -197t-117.5 -73
q-47 5 -82 53.5t-45 141.5q-36 -88 -88 -143.5t-98 -51.5q-62 5 -103 93t-22 243q4 31 11.5 95.5t15 116t18.5 97.5q3 16 -2.5 26.5t-11.5 13t-3.5 8t21.5 14.5l125 57q36 20 35 -22q0 -14 -19 -114q-2 -12 -4 -22l-20 -137q-9 -57 -12.5 -111.5t-1 -102t15 -75.5t34.5 -26
q30 4 52 35t51 100l4 12q17 219 53 406l123 57q38 19 37 -19q0 -14 -19 -108q-4 -17 -6 -31q-11 -39 -20.5 -111.5t-14 -151.5t8.5 -135.5t45 -53.5q30 4 51 34.5t51 100.5q-47 41 -65 117t-10 150t34 132zM629 348q23 74 25 208q3 135 -28 129q-1 0 -3 -1q-23 -8 -36 -76
t-3 -148t45 -112z" />
    <glyph glyph-name="x" unicode="x" horiz-adv-x="550" 
d="M256 682q2 -12 8.5 -77t14.5 -111l133 258q9 15 24 6t6 -25l-155 -301q14 -72 18.5 -96t16 -74.5t21 -72t19.5 -27.5q25 -15 57.5 8t64.5 71.5t51 83.5t36 70q5 7 12.5 7.5t12.5 -4.5t2 -13q-38 -124 -164 -299q-57 -80 -126.5 -84t-100.5 80q-22 65 -35 127l-102 -199
q-10 -17 -25 -8q-18 11 -8 25l123 237q-30 150 -45 264l-80 -174q-5 -11 -13.5 -12t-13.5 6.5t0 18.5l101 202q-13 80 -13 93q-2 7 -7 11.5t-10 6.5t-8.5 4t-1.5 4t11 6l119 49q31 11 44 -1t13 -60z" />
    <glyph glyph-name="y" unicode="y" horiz-adv-x="632" 
d="M211 -78q-120 -97 -198 -226t-101 -267q-10 -56 23 -70q35 -14 77 30q12 12 23 29q58 90 104 236.5t72 267.5zM188 668q-3 -22 -18.5 -90t-28.5 -133t-22.5 -134.5t-5 -118.5t27.5 -61q28 -12 69 25t71 98l4 4q64 292 71 387q0 9 -6.5 15t-12 9t-2 8t20.5 13
q75 37 144 62q15 6 17 -16q1 -18 -11 -87l-123 -559q94 60 160.5 127.5t115.5 179.5q5 9 15.5 7.5t9.5 -17.5q-14 -35 -28.5 -66t-33.5 -58t-31.5 -46t-36 -41.5t-33.5 -33t-38.5 -30.5t-34.5 -24.5t-39 -25.5t-36 -23q-37 -180 -88 -340q-67 -192 -118 -282
q-102 -176 -222 -171q-99 11 -68 189q24 151 114 291.5t226 246.5q8 28 23.5 96t21.5 95q-61 -122 -137 -149q-69 -24 -112 45q-63 103 -21 339q43 237 43 246q0 7 -11 15.5t-8 16t31 19.5l103 45q37 17 44 5t-6 -78z" />
    <glyph glyph-name="z" unicode="z" horiz-adv-x="595" 
d="M188 -53q-82 -59 -138 -114.5t-81 -95.5t-34 -74t-5 -53t15 -30q18 -24 63.5 8t99 129.5t80.5 229.5zM6 354l125 342q5 14 20 13q11 0 7 -9l-11 -26q34 5 127 32t132 35q44 6 44 -16q-1 -17 -34 -70q-37 -71 -205 -340q33 4 59.5 -3.5t49 -32.5t27.5 -72t-5 -121
q97 62 162 128t114 179q5 9 17 7.5t8 -17.5q-14 -35 -28.5 -66t-33.5 -58t-31.5 -46t-36 -41.5t-33.5 -33t-38.5 -30.5t-34.5 -24.5t-39 -25.5t-36 -23q-33 -157 -82 -276t-101 -182t-100 -91.5t-90 -24.5q-57 7 -76 69q-26 87 39 203q81 145 273 261q1 6 4 18
q15 67 21 99.5t5.5 71t-14.5 59.5q-10 16 -35 16l-4 -6q-81 -150 -156 -186q-47 -22 -64 9q-19 35 21 94q45 70 148 124q95 123 125.5 165.5t89.5 133.5l-240 -72q-20 -56 -69 -182q-6 -11 -19 -8q-11 4 -2 24zM78 231z" />
    <glyph glyph-name="braceleft" unicode="{" horiz-adv-x="565" 
d="M395 -387q33 0 33 -15q-1 -17 -36 -27q-19 -5 -42 -5q-67 2 -124 34.5t-97 88.5t-70.5 130t-47.5 159.5t-24 176.5t-3 181t18 174q4 30 -16 54t-52 40.5t-63.5 32.5t-52.5 38.5t-17 49.5q5 36 32.5 59.5t64.5 36t73.5 24.5t65.5 35t35 58q21 118 64 232t106 211.5
t137.5 168.5t165.5 106.5t184 22.5q57 -6 57 -25q0 -16 -40 -22l-25 -2q-51 0 -120 -46t-136 -125t-124.5 -173.5t-91 -203t-28.5 -201.5q2 -35 -20.5 -53.5t-56 -25t-68 -13t-60 -25t-28.5 -53.5q-3 -29 19 -51t54 -35t63.5 -26.5t50 -33.5t11.5 -47q-37 -134 -43 -292.5
t17 -294.5t84.5 -227t150.5 -91z" />
    <glyph glyph-name="bar" unicode="|" horiz-adv-x="376" 
d="M39 -504l8 2378q110 -5 174 -2l-24 -2376h-158z" />
    <glyph glyph-name="braceright" unicode="}" horiz-adv-x="745" 
d="M209 1673q-33 0 -33 15q1 17 36 27q19 5 42 5q78 0 141.5 -43t105.5 -116t70.5 -168.5t39.5 -201t8.5 -212t-17.5 -203.5q-4 -30 16 -54t52 -40.5t63.5 -32.5t52.5 -38.5t17 -49.5q-5 -36 -33.5 -59.5t-65.5 -36t-74.5 -24.5t-65.5 -35t-32 -58q-20 -118 -63 -231.5
t-106 -210.5t-138.5 -168t-166.5 -106.5t-183 -24.5q-57 6 -57 25q0 16 40 22l25 2q64 0 153.5 73.5t168 181.5t131.5 245t47 250q-2 35 20.5 53.5t56 25t68 12.5t60 24.5t28.5 53.5q3 29 -19 51t-54 35t-63.5 26.5t-50 33.5t-11.5 47q37 134 43 292.5t-17 294.5t-84.5 227
t-150.5 91z" />
    <glyph glyph-name="asciitilde" unicode="~" horiz-adv-x="1705" 
d="M96 653q47 107 107 179.5t118.5 110t136 47.5t138 4.5t146.5 -33t140.5 -50.5t140.5 -62q71 -32 106 -47t94 -36.5t90 -24t73 0.5t64.5 25t43.5 62.5t30 100.5q3 19 20 16q18 -3 15 -20q-14 -91 -41 -149t-69.5 -80.5t-85 -28.5t-108 14.5t-116.5 42t-131 58.5
q-67 32 -102.5 47.5t-101.5 41.5t-106.5 35.5t-102.5 19.5t-104.5 3t-97.5 -23.5t-97 -50.5t-86.5 -87.5t-82.5 -125.5q-9 -26 -27 -33q-13 -6 -12 12q0 11 8 31z" />
    <glyph glyph-name="exclamdown" unicode="&#xa1;" horiz-adv-x="557" 
d="M545 1176q-4 -74 -42.5 -220t-90.5 -303t-104 -303t-89 -240t-41 -94q-157 -40 -166 44q-7 64 83 250q17 36 56 114q140 279 193 431q67 192 70 341q0 25 34 35t67 -5t30 -50zM557 1278q-7 -22 -68 -23q-57 -1 -66 16q-2 3 -1 7l12 74q3 25 37 34.5t65.5 -5.5t28.5 -50
q-2 -29 -8 -53z" />
    <glyph glyph-name="cent" unicode="&#xa2;" horiz-adv-x="425" 
d="M201 741l18 232q5 36 20.5 46.5t30 1t17.5 -25.5l-25 -264q75 -37 84 -149q5 -71 -33 -93q-28 -15 -49 6q-19 21 -10 58q11 45 45 45l2 -2q-14 29 -49 20l-45 -499q47 3 108 67q58 60 131 203q7 12 15 4q8 -7 4 -22q-63 -150 -127 -234q-63 -83 -139 -119l-29 -311
l-53 -4l24 299q-62 -5 -101.5 36t-54.5 139.5t17 262.5q35 143 87.5 217.5t111.5 85.5zM129 414q-22 -104 -15 -174.5t38 -102.5l32 414q-33 -50 -55 -137z" />
    <glyph glyph-name="sterling" unicode="&#xa3;" horiz-adv-x="995" 
d="M616 596h297q51 -3 65.5 -26t-4 -48t-50.5 -33h-332l-41 -192q-9 -48 -39 -139q32 -16 80 -42.5t76.5 -42.5t70 -30.5t73.5 -14t73 15t82 48.5q10 16 24 8q15 -12 6 -26q-28 -43 -56 -73.5t-57 -45.5t-55.5 -22t-58.5 -1t-59.5 16t-64.5 31t-67.5 41t-74.5 49
q-8 6 -13.5 9.5t-11.5 7.5q-99 -191 -278 -188q-111 0 -178 88q-57 75 -46 160q10 88 90 121q115 49 322 -50q22 60 35 123q8 31 33 149h-228q-40 3 -58.5 27.5t-3 49.5t61.5 30h252q25 141 36.5 205t33 162.5t37 137.5t42.5 98.5t54.5 79.5t68.5 46t89.5 32.5t113.5 6.5
q18 0 18 -3q0 -5 -16 -38q-8 -15 -30 -21.5t-48 -14t-55.5 -27t-60 -72.5t-53.5 -137zM145 -12q58 -19 117 22.5t107 153.5q-158 103 -258 70q-60 -20 -70 -80q-11 -66 46 -124q24 -25 58 -42z" />
    <glyph glyph-name="yen" unicode="&#xa5;" horiz-adv-x="829" 
d="M584 158h180q46 -3 58.5 -37t-4.5 -70.5t-46 -48.5h-225v-4q-2 -4 -8 -35l192 -2q46 -3 58.5 -37t-4.5 -70.5t-46 -48.5h-256q-99 -206 -286 -206q-69 0 -117 32t-70 84t-30 103t-5 104q1 5 10 8.5t17.5 1.5t7.5 -10q-3 -55 15.5 -107.5t53 -84t76 -42t89.5 18.5t88 98
h-230q-27 2 -44 25t-18.5 50.5t14.5 52t48 30.5h297q3 7 5.5 19.5t5.5 19.5h-275q-27 2 -44 25t-18.5 50.5t14.5 52t48 30.5l311 -2l82 346q-70 -101 -129 -170.5t-102 -106t-76.5 -48t-54.5 1.5t-34 44.5t-17 78t-1.5 106t10.5 124t21 136.5q8 38 38.5 199.5t52.5 271
t34 155.5q3 17 0 25.5t-6 12t0 6t19 8.5l102 36q34 12 36 8q1 -1 -5 -34l-123 -572q-2 -12 -14 -69.5t-23 -118t-19.5 -125.5t-2 -110t29.5 -52q26 -10 62.5 15.5t79.5 79.5t77 103.5t74 113.5l172 727l102 32q40 12 43 -0.5t-12 -50.5z" />
    <glyph glyph-name="brokenbar" unicode="&#xa6;" horiz-adv-x="651" 
d="M274 872l80 635q6 35 26.5 50t43 10t42 -22.5t23.5 -39.5l-79 -641q-4 -26 -25.5 -42t-46 -16t-44.5 17t-20 49zM150 35l79 635q6 35 26.5 50t43.5 10t42.5 -22.5t23.5 -39.5l-80 -641q-5 -36 -38.5 -51t-65 1t-31.5 58z" />
    <glyph glyph-name="dieresis" unicode="&#xa8;" horiz-adv-x="991" 
d="M924 1262l-17 -93q-15 -46 -40 -62t-47 -5.5t-38 37.5t-16 59l18 102q12 35 38 52t50.5 13t41 -31.5t10.5 -71.5zM1231 1262l-17 -93q-15 -46 -40 -62t-47 -5.5t-38 37.5t-16 59l19 102q10 28 29 45.5t39 19t38 -7t28 -34t5 -61.5z" />
    <glyph glyph-name="ordfeminine" unicode="&#xaa;" 
d="M326 543l34 145q14 9 70.5 33t63.5 29q5 1 7 -4t1 -16t-4 -25.5t-8 -35.5t-10 -41.5t-11 -47.5t-10 -50t-17 -87t-17.5 -93.5t-9.5 -73.5t0.5 -69.5t18.5 -38.5q16 -14 35.5 -10.5t41.5 23t43 46t40.5 58t33.5 58.5t23 48q6 13 18.5 9.5t6.5 -19.5q-101 -225 -187 -318
q-66 -69 -127 -61q-45 4 -67.5 59.5t-22.5 139.5q-40 -94 -91.5 -146.5t-100.5 -54.5q-46 0 -75.5 50.5t-35 148t24.5 241.5q38 186 125 268q67 64 126 27q66 -42 81 -192zM311 494q-18 102 -61 120q-47 21 -93 -83q-20 -47 -38 -115q-24 -94 -18.5 -166.5t36.5 -89.5
q29 -17 68.5 10.5t68.5 87.5q9 125 37 236z" />
    <glyph glyph-name="guillemotleft" unicode="&#xab;" horiz-adv-x="958" 
d="M248 578l293 -619q17 -29 -11 -50q-27 -19 -56 -2q-17 11 -25 34q-107 172 -222.5 388.5t-122.5 229.5l103 311l547 449q45 36 73 21q22 -13 7 -42q-5 -10 -15 -20l-508 -496zM528 578l293 -619q17 -29 -11 -50q-27 -19 -56 -2q-17 11 -25 34q-107 172 -221 387t-123 231
l102 311l547 449q46 37 74 20q22 -13 6 -42q-5 -10 -14 -19l-508 -496z" />
    <glyph glyph-name="logicalnot" unicode="&#xac;" horiz-adv-x="1705" 
d="M1399 883l-62 -269q-11 -65 -44 -79.5t-63.5 13.5t-35.5 70l47 220h-954q-50 3 -74 35.5t-4.5 67t78.5 42.5l1026 -2q54 -4 74.5 -25.5t9.5 -52.5q2 -4 2 -20z" />
    <glyph glyph-name="degree" unicode="&#xb0;" horiz-adv-x="802" 
d="M528 1346q51 0 79 -27.5t31.5 -72.5t-3.5 -91t-23 -96q-63 -206 -171 -279q-76 -52 -136 -13q-63 41 -65 151q-1 51 14 110q32 127 107.5 222.5t166.5 95.5zM522 1319q-34 -2 -66.5 -36.5t-56 -83.5t-39 -94.5t-22.5 -80.5q-49 -226 2 -246q34 -13 94 70q57 80 96 194
q43 134 49 172q16 105 -57 105z" />
    <glyph glyph-name="plusminus" unicode="&#xb1;" horiz-adv-x="1437" 
d="M866 1249l-59 -354h346q48 -2 70 -21.5t17.5 -43.5t-26 -47t-51.5 -31h-379l-59 -365q-9 -48 -32.5 -66.5t-47 -10t-42.5 33.5t-21 55l57 353h-360q-50 3 -74 35.5t-4.5 67t78.5 42.5l383 -2l61 379q8 37 32.5 57t50 18t44 -28.5t16.5 -71.5zM137 174l875 -2
q48 -2 70 -21.5t17.5 -43.5t-26 -47t-51.5 -31h-885q-50 3 -74 35.5t-4.5 67t78.5 42.5z" />
    <glyph glyph-name="twosuperior" unicode="&#xb2;" horiz-adv-x="360" 
d="M100 1069q-17 49 18 96t85 47q54 0 82.5 -34.5t23.5 -79.5q-4 -39 -28 -74t-56.5 -61.5t-66 -50.5t-62.5 -51t-39 -52q23 18 55.5 17.5t61 -9.5t56 -4.5t42.5 31.5q6 18 15 11q7 -7 2 -19q-25 -51 -53 -62t-82 12l-20 7.5t-16.5 6t-12.5 2.5t-12.5 -1.5t-11.5 -7
t-15 -13.5q-22 -22 -33 6q-1 4 -1.5 8.5t0.5 9.5t1.5 9t3.5 9.5t4 8t5.5 9t5.5 8t6 8.5t5 8q18 20 70.5 63t80 82t34.5 95q6 42 -12 65t-46 23q-34 -2 -58.5 -39t-14.5 -78q7 -15 -4 -19q-9 -3 -13 13z" />
    <glyph glyph-name="threesuperior" unicode="&#xb3;" horiz-adv-x="356" 
d="M63 1153q-3 67 62 105q57 33 110 17q59 -17 54 -83q-7 -69 -99 -133q74 3 93 -59q19 -60 -22 -129q-49 -82 -141 -99q-19 -4 -40 -4q-56 0 -75 44t-7 108q3 12 11 14.5t13.5 -4.5t2.5 -19q-5 -27 -5.5 -53t16 -45.5t48.5 -19.5q57 0 102 74q42 66 36 124q-5 55 -59 46
q-17 -3 -38 -13q-11 -6 -14 3.5t4 14.5q49 18 84.5 57t31.5 95q-5 54 -48 58q-40 3 -73 -33q-28 -31 -24 -70q2 -12 -10 -13q-12 1 -13 17z" />
    <glyph glyph-name="acute" unicode="&#xb4;" horiz-adv-x="808" 
d="M684 1055q-4 -41 -80 -128.5t-117 -115.5q-22 -13 -10 22q10 28 84 165q16 28 17 34q-2 14 34 39q47 34 66 16q9 -9 6 -32z" />
    <glyph glyph-name="paragraph" unicode="&#xb6;" horiz-adv-x="970" 
d="M68 1102q0 101 73.5 189t184.5 112l448 4l-8 -1911l-96 2l-13 1835q-52 -10 -133.5 -6t-113.5 2l20 -1833l-96 2l-6 1329q-114 25 -187 101t-73 174z" />
    <glyph glyph-name="periodcentered" unicode="&#xb7;" horiz-adv-x="555" 
d="M391 692l-16 -92q-15 -46 -40 -62t-47 -5.5t-38.5 37.5t-16.5 59l19 102q12 35 38 52t50 13t40.5 -32t10.5 -72z" />
    <glyph glyph-name="cedilla" unicode="&#xb8;" horiz-adv-x="477" 
d="M299 -63q60 1 73 -57q14 -60 -27 -125q-49 -79 -133 -85h-13q-44 0 -60.5 36.5t-5.5 84.5q3 11 9.5 14.5t10.5 -2t1 -16.5q-9 -35 2 -66.5t47 -31.5q48 0 88 70q37 67 30 120t-62 34q-3 -1 -7 -3q-3 -3 -5 -10.5t-5 -10.5q-6 -12 -16 -10t-18.5 11.5t-6.5 13.5l49 135h47
q-3 -13 -19 -54.5t-20 -54.5q21 7 41 7z" />
    <glyph glyph-name="onesuperior" unicode="&#xb9;" horiz-adv-x="184" 
d="M8 776l82 395q0 3 -3 5.5t-5.5 3.5t-1 3t9.5 5q39 17 53 22q12 7 4 -27l-2 -9l-84 -398q-5 -8 -26.5 -8t-26.5 8z" />
    <glyph glyph-name="ordmasculine" unicode="&#xba;" horiz-adv-x="509" 
d="M252 680q-45 -38 -81 -170.5t-33.5 -248t52.5 -107.5q30 4 52 35t51 100q-47 42 -65 115.5t-10 145.5t34 130zM334 307q22 -9 42.5 -10.5t37 1.5t33.5 15t29 21.5t26 29.5t21 32t19 36t15.5 32.5t13.5 31.5q5 11 17 7.5t8 -16.5q-9 -32 -25 -66t-41 -70t-55.5 -58.5
t-69 -32t-81.5 9.5q-28 -113 -92 -195t-119 -75q-62 5 -103 93t-22 243q12 102 46 200.5t75.5 166t84.5 108.5t74 41q18 0 35 -23.5t10 -62.5q41 -12 58 -67t11 -129.5t-18.5 -141.5t-29.5 -121zM309 326q48 132 41 264q-4 87 -31 91q-7 1 -16 -7q-18 -18 -32.5 -82
t-7 -143.5t45.5 -122.5z" />
    <glyph glyph-name="guillemotright" unicode="&#xbb;" horiz-adv-x="935" 
d="M737 666l-293 618q-16 29 10 49q28 20 57 3q17 -11 26 -33q107 -172 220.5 -387t123.5 -232l-103 -311l-547 -449q-45 -40 -73 -23q-22 13 -8 42q5 11 16 22l508 496zM457 666l-293 618q-17 29 11 49q26 20 55 3q17 -10 26 -33q107 -172 220.5 -387t123.5 -232l-102 -311
l-547 -449q-44 -39 -73 -24q-22 13 -9 42q5 12 16 23l508 496z" />
    <glyph glyph-name="questiondown" unicode="&#xbf;" horiz-adv-x="616" 
d="M662 506q4 -211 -91 -342.5t-227 -155.5q-165 -28 -263 68q-88 85 -82 227q7 170 146 326q70 78 168 143q47 32 72.5 51t63 57t59 76t42 98t30.5 134q3 23 37 32.5t65.5 -4.5t28.5 -49q-4 -53 -22.5 -100.5t-42.5 -82t-64 -73.5t-72.5 -64t-84 -65t-81.5 -65
q-194 -157 -212 -323q-12 -115 63 -191q67 -68 160 -60q112 9 188 127q57 92 80 234q5 21 28 14q12 -3 12 -10q0 -1 -1 -2zM723 1270q-7 -22 -68 -23q-57 -1 -66 16q-2 3 -1 7l12 73q3 25 37 35t65.5 -5t28.5 -50q-2 -29 -8 -53z" />
    <glyph glyph-name="Agrave" unicode="&#xc0;" horiz-adv-x="1144" 
d="M1022 1212q-3 -14 -20.5 -101.5t-30.5 -143.5q50 56 77 110.5t30 96t-10 74t-40 50t-63 19.5q-46 2 -91 -25.5t-81.5 -72t-72 -108.5t-62.5 -126.5t-53 -135.5t-42.5 -126t-32.5 -107q-7 -24 -10 -34h234q30 187 71 370t64 250l121 41q16 4 17 -1.5t-5 -29.5zM748 545
h-238q-32 -112 -47 -156q-91 -319 -226 -438q-91 -80 -167 -40q-73 39 -90 169q-9 68 0 149q4 18 21 15t15 -21q-3 -121 63 -170q61 -47 141 -1q109 61 179 251q17 46 31 98l41 144h-65q-19 0 -19 18q0 19 19 19h77q7 22 29.5 95t38.5 125t46 134t57 140.5t65.5 124
t76.5 105.5t85.5 65t97.5 20q45 -5 79 -34.5t48 -79t7.5 -109t-46.5 -131.5t-111 -140q-172 -754 -38 -862q21 -16 52.5 13t65.5 89.5t62.5 118.5t56 120t33.5 73q8 17 19 9.5t3 -24.5q-4 -8 -20 -51t-34.5 -86.5t-45.5 -102t-58 -108t-66.5 -93.5t-78 -69.5t-84.5 -25.5
q-48 0 -74.5 53.5t-31 148.5t3 204.5t27.5 240.5zM797 1669q-6 41 25 37q32 -3 66 -36q16 -15 15 -23q0 -2 56 -108q62 -117 42 -118q-4 0 -10 4q-40 27 -115 115t-79 129z" />
    <glyph glyph-name="Aacute" unicode="&#xc1;" horiz-adv-x="1144" 
d="M1120 1677q-4 -41 -79.5 -128t-116.5 -115q-22 -13 -10 21q11 34 69 139q29 54 31 61q-2 14 34 39q47 33 66 15q9 -9 6 -32zM1022 1212q-3 -14 -20.5 -101.5t-30.5 -143.5q50 56 77 110.5t30 96t-10 74t-40 50t-63 19.5q-46 2 -91 -25.5t-81.5 -72t-72 -108.5
t-62.5 -126.5t-53 -135.5t-42.5 -126t-32.5 -107q-7 -24 -10 -34h234q30 187 71 370t64 250l121 41q16 4 17 -1.5t-5 -29.5zM748 545h-238q-32 -112 -47 -156q-91 -319 -226 -438q-91 -80 -167 -40q-73 39 -90 169q-9 68 0 149q4 18 21 15t15 -21q-3 -121 63 -170
q61 -47 141 -1q109 61 179 251q17 46 31 98l41 144h-65q-19 0 -19 18q0 19 19 19h77q7 22 29.5 95t38.5 125t46 134t57 140.5t65.5 124t76.5 105.5t85.5 65t97.5 20q45 -5 79 -34.5t48 -79t7.5 -109t-46.5 -131.5t-111 -140q-172 -754 -38 -862q21 -16 52.5 13t65.5 89.5
t62.5 118.5t56 120t33.5 73q8 17 19 9.5t3 -24.5q-4 -8 -20 -51t-34.5 -86.5t-45.5 -102t-58 -108t-66.5 -93.5t-78 -69.5t-84.5 -25.5q-48 0 -74.5 53.5t-31 148.5t3 204.5t27.5 240.5z" />
    <glyph glyph-name="Acircumflex" unicode="&#xc2;" horiz-adv-x="1144" 
d="M739 1468q4 38 72.5 102t122.5 103h4q3 3 4 2q2 2 6 -2h2q56 -40 124.5 -103.5t72.5 -101.5q6 -41 -26 -38q-31 3 -66 36q-17 16 -15 23q-2 5 -43.5 62.5t-54.5 90.5q-13 -32 -53.5 -89t-42.5 -64q2 -12 -34 -37q-50 -36 -68 -16q-8 9 -5 32zM1022 1212
q-3 -14 -20.5 -101.5t-30.5 -143.5q50 56 77 110.5t30 96t-10 74t-40 50t-63 19.5q-46 2 -91 -25.5t-81.5 -72t-72 -108.5t-62.5 -126.5t-53 -135.5t-42.5 -126t-32.5 -107q-7 -24 -10 -34h234q30 187 71 370t64 250l121 41q16 4 17 -1.5t-5 -29.5zM748 545h-238
q-32 -112 -47 -156q-91 -319 -226 -438q-91 -80 -167 -40q-73 39 -90 169q-9 68 0 149q4 18 21 15t15 -21q-3 -121 63 -170q61 -47 141 -1q109 61 179 251q17 46 31 98l41 144h-65q-19 0 -19 18q0 19 19 19h77q7 22 29.5 95t38.5 125t46 134t57 140.5t65.5 124t76.5 105.5
t85.5 65t97.5 20q45 -5 79 -34.5t48 -79t7.5 -109t-46.5 -131.5t-111 -140q-172 -754 -38 -862q21 -16 52.5 13t65.5 89.5t62.5 118.5t56 120t33.5 73q8 17 19 9.5t3 -24.5q-4 -8 -20 -51t-34.5 -86.5t-45.5 -102t-58 -108t-66.5 -93.5t-78 -69.5t-84.5 -25.5
q-48 0 -74.5 53.5t-31 148.5t3 204.5t27.5 240.5z" />
    <glyph glyph-name="Atilde" unicode="&#xc3;" horiz-adv-x="1144" 
d="M694 1460q59 62 111 90.5t92.5 27.5t78 -15.5t75 -32.5t74.5 -29.5t85.5 -1t100.5 48.5q2 1 5.5 6.5t8.5 4.5q5 0 9 -5.5t1 -9.5q-58 -62 -108 -88.5t-89 -23t-75 19.5t-73 35t-75.5 29.5t-90 -3.5t-109.5 -59q-4 -16 -17 -19q-11 -3 -10 8q0 7 6 17zM1022 1212
q-3 -14 -20.5 -101.5t-30.5 -143.5q50 56 77 110.5t30 96t-10 74t-40 50t-63 19.5q-46 2 -91 -25.5t-81.5 -72t-72 -108.5t-62.5 -126.5t-53 -135.5t-42.5 -126t-32.5 -107q-7 -24 -10 -34h234q30 187 71 370t64 250l121 41q16 4 17 -1.5t-5 -29.5zM748 545h-238
q-32 -112 -47 -156q-91 -319 -226 -438q-91 -80 -167 -40q-73 39 -90 169q-9 68 0 149q4 18 21 15t15 -21q-3 -121 63 -170q61 -47 141 -1q109 61 179 251q17 46 31 98l41 144h-65q-19 0 -19 18q0 19 19 19h77q7 22 29.5 95t38.5 125t46 134t57 140.5t65.5 124t76.5 105.5
t85.5 65t97.5 20q45 -5 79 -34.5t48 -79t7.5 -109t-46.5 -131.5t-111 -140q-172 -754 -38 -862q21 -16 52.5 13t65.5 89.5t62.5 118.5t56 120t33.5 73q8 17 19 9.5t3 -24.5q-4 -8 -20 -51t-34.5 -86.5t-45.5 -102t-58 -108t-66.5 -93.5t-78 -69.5t-84.5 -25.5
q-48 0 -74.5 53.5t-31 148.5t3 204.5t27.5 240.5z" />
    <glyph glyph-name="Adieresis" unicode="&#xc4;" horiz-adv-x="1144" 
d="M967 1671l-17 -92q-15 -46 -40 -62t-47 -5.5t-38 37.5t-16 59l18 102q12 35 38 52t50.5 13t41 -32t10.5 -72zM1274 1671l-17 -92q-15 -46 -40 -62t-47 -5.5t-38 37.5t-16 59l19 102q12 35 38 52t50 13t40.5 -32t10.5 -72zM1022 1212q-3 -14 -20.5 -101.5t-30.5 -143.5
q50 56 77 110.5t30 96t-10 74t-40 50t-63 19.5q-46 2 -91 -25.5t-81.5 -72t-72 -108.5t-62.5 -126.5t-53 -135.5t-42.5 -126t-32.5 -107q-7 -24 -10 -34h234q30 187 71 370t64 250l121 41q16 4 17 -1.5t-5 -29.5zM748 545h-238q-32 -112 -47 -156q-91 -319 -226 -438
q-91 -80 -167 -40q-73 39 -90 169q-9 68 0 149q4 18 21 15t15 -21q-3 -121 63 -170q61 -47 141 -1q109 61 179 251q17 46 31 98l41 144h-65q-19 0 -19 18q0 19 19 19h77q7 22 29.5 95t38.5 125t46 134t57 140.5t65.5 124t76.5 105.5t85.5 65t97.5 20q45 -5 79 -34.5t48 -79
t7.5 -109t-46.5 -131.5t-111 -140q-172 -754 -38 -862q21 -16 52.5 13t65.5 89.5t62.5 118.5t56 120t33.5 73q8 17 19 9.5t3 -24.5q-4 -8 -20 -51t-34.5 -86.5t-45.5 -102t-58 -108t-66.5 -93.5t-78 -69.5t-84.5 -25.5q-48 0 -74.5 53.5t-31 148.5t3 204.5t27.5 240.5z" />
    <glyph glyph-name="Aring" unicode="&#xc5;" horiz-adv-x="1144" 
d="M877 1653q0 78 39 133t94 55q56 0 95.5 -55t39.5 -133t-39.5 -133.5t-95.5 -55.5q-55 0 -94 55.5t-39 133.5zM928 1651q0 -57 29.5 -96t70.5 -39t70.5 39t29.5 96t-29.5 97t-70.5 40t-70.5 -40t-29.5 -97zM1022 1212q-3 -14 -20.5 -101.5t-30.5 -143.5q50 56 77 110.5
t30 96t-10 74t-40 50t-63 19.5q-46 2 -91 -25.5t-81.5 -72t-72 -108.5t-62.5 -126.5t-53 -135.5t-42.5 -126t-32.5 -107q-7 -24 -10 -34h234q30 187 71 370t64 250l121 41q16 4 17 -1.5t-5 -29.5zM748 545h-238q-32 -112 -47 -156q-91 -319 -226 -438q-91 -80 -167 -40
q-73 39 -90 169q-9 68 0 149q4 18 21 15t15 -21q-3 -121 63 -170q61 -47 141 -1q109 61 179 251q17 46 31 98l41 144h-65q-19 0 -19 18q0 19 19 19h77q7 22 29.5 95t38.5 125t46 134t57 140.5t65.5 124t76.5 105.5t85.5 65t97.5 20q45 -5 79 -34.5t48 -79t7.5 -109
t-46.5 -131.5t-111 -140q-172 -754 -38 -862q21 -16 52.5 13t65.5 89.5t62.5 118.5t56 120t33.5 73q8 17 19 9.5t3 -24.5q-4 -8 -20 -51t-34.5 -86.5t-45.5 -102t-58 -108t-66.5 -93.5t-78 -69.5t-84.5 -25.5q-48 0 -74.5 53.5t-31 148.5t3 204.5t27.5 240.5z" />
    <glyph glyph-name="AE" unicode="&#xc6;" horiz-adv-x="1429" 
d="M1503 446q-290 -548 -532 -548q-84 0 -142 30.5t-84.5 82t-31.5 118t12.5 138.5t53 144t85.5 134h-434q-32 -112 -47 -156q-91 -319 -226 -438q-91 -80 -167 -40q-73 39 -90 169q-9 68 0 149q4 18 21.5 15t15.5 -21q-3 -120 62 -170q61 -47 141 -2q108 61 179 251
q17 47 31 99l41 144h-65q-19 0 -19 18q0 19 19 19h77q7 22 29.5 95t38.5 125t46 134t57 140.5t65.5 124t76.5 105.5t85.5 65t97.5 20q63 -8 102 -61.5t35 -131.5q139 162 314 182q44 4 77.5 -13t53.5 -54.5t14 -104t-41 -153.5q-3 -13 -16.5 -18.5t-24.5 1.5t-8 23
q43 103 37.5 159.5t-33 77t-63.5 7.5q-80 -23 -150.5 -90t-112 -145t-60.5 -155.5t-7 -126.5q10 -23 24 -40q26 -19 62 -11q112 57 139 64q10 0 20 -14q24 -33 -57 -62q-32 -11 -76 -20q-171 -107 -247 -282q-62 -144 -32 -263q26 -102 110 -127q102 -29 249 71
q32 21 64.5 53t56 61.5t50 70t40.5 65t34.5 61t25.5 44.5q6 18 19 6q9 -9 5 -19zM885 1317q-66 2 -136.5 -73t-124.5 -183t-97 -217t-66.5 -185.5t-20.5 -76.5l459 4q53 56 123 98q-110 -34 -142 54q-31 87 25 235q36 96 99 182q4 68 -30 112.5t-89 49.5z" />
    <glyph glyph-name="Ccedilla" unicode="&#xc7;" horiz-adv-x="743" 
d="M289 -156q60 0 73 -58q13 -59 -28 -123q-49 -79 -134 -85h-12q-44 0 -60 36.5t-5 84.5q3 11 9 14.5t10 -2t1 -16.5q-9 -35 2.5 -66.5t47.5 -31.5q48 0 88 70q37 67 30 120t-62 34q-3 -1 -7 -3q-3 -3 -5.5 -10.5t-5.5 -10.5q-6 -12 -16 -10t-18.5 11.5t-6.5 13.5
q19 58 33 90q-149 24 -190 225q-41 203 36 502q76 293 220 505q152 223 313 247q32 4 62 1q46 -4 78 -22t52.5 -54t14.5 -100t-41 -149q-3 -14 -15.5 -19.5t-24 1t-11.5 22.5q25 59 34 105t4 73.5t-20 44t-34 21.5t-42 2q-74 -14 -154.5 -98.5t-146.5 -206t-115 -267
t-67.5 -278t4 -243t90.5 -159.5q35 -25 75.5 -28t79.5 15t78.5 46.5t76.5 69.5t69.5 81.5t61.5 84.5t48.5 76t33.5 59q4 11 11 11t11.5 -7t1.5 -14q-105 -196 -172 -290q-176 -245 -360 -261h-15l-22 -60q18 6 41 6z" />
    <glyph glyph-name="Egrave" unicode="&#xc8;" horiz-adv-x="702" 
d="M438 1677q-6 41 26.5 37.5t65.5 -36.5q15 -15 15 -23q0 -2 57 -108q62 -118 40 -117q-3 1 -9 4q-41 27 -116 114.5t-79 128.5zM776 446q-290 -548 -532 -548q-182 -3 -238 134q-49 119 11 294q58 169 180 285q47 44 98 73q-112 -34 -143 56q-31 87 26 235q63 166 188 280
q120 111 257 125q44 4 77.5 -13t53.5 -54.5t14 -104t-41 -153.5q-3 -13 -16.5 -18.5t-24.5 1.5t-8 23q43 103 37.5 159.5t-33.5 77t-64 7.5q-133 -40 -234 -190q-84 -125 -99 -245q-13 -108 44 -130q19 -8 46 -3q112 57 139 64q10 0 20 -14q24 -33 -57 -62q-31 -11 -76 -20
q-171 -107 -247 -282q-62 -144 -32 -263q26 -102 110 -127q102 -29 249 71q32 21 64.5 53t56 61.5t50 70t40.5 65t34.5 61t25.5 44.5q6 18 19 6q9 -9 5 -19z" />
    <glyph glyph-name="Eacute" unicode="&#xc9;" horiz-adv-x="702" 
d="M766 1679q-4 -41 -80.5 -128.5t-116.5 -112.5q-22 -12 -10 23q10 27 82 160q16 32 18 38q-2 12 34 37q50 35 68 15q8 -9 5 -32zM776 446q-290 -548 -532 -548q-182 -3 -238 134q-49 119 11 294q58 169 180 285q47 44 98 73q-112 -34 -143 56q-31 87 26 235
q63 166 188 280q120 111 257 125q44 4 77.5 -13t53.5 -54.5t14 -104t-41 -153.5q-3 -13 -16.5 -18.5t-24.5 1.5t-8 23q43 103 37.5 159.5t-33.5 77t-64 7.5q-133 -40 -234 -190q-84 -125 -99 -245q-13 -108 44 -130q19 -8 46 -3q112 57 139 64q10 0 20 -14q24 -33 -57 -62
q-31 -11 -76 -20q-171 -107 -247 -282q-62 -144 -32 -263q26 -102 110 -127q102 -29 249 71q32 21 64.5 53t56 61.5t50 70t40.5 65t34.5 61t25.5 44.5q6 18 19 6q9 -9 5 -19z" />
    <glyph glyph-name="Ecircumflex" unicode="&#xca;" horiz-adv-x="702" 
d="M426 1464q4 38 72.5 102t122.5 103h4q3 3 4 2q2 2 6 -2h2q56 -40 124.5 -103.5t72.5 -101.5q6 -41 -26 -38q-31 3 -66 36q-17 16 -15 23q-2 5 -43.5 62.5t-54.5 90.5q-13 -32 -54.5 -89t-42.5 -64q2 -12 -32 -37q-49 -35 -68 -17q-9 9 -6 33zM776 446
q-290 -548 -532 -548q-182 -3 -238 134q-49 119 11 294q58 169 180 285q47 44 98 73q-112 -34 -143 56q-31 87 26 235q63 166 188 280q120 111 257 125q44 4 77.5 -13t53.5 -54.5t14 -104t-41 -153.5q-3 -13 -16.5 -18.5t-24.5 1.5t-8 23q43 103 37.5 159.5t-33.5 77
t-64 7.5q-133 -40 -234 -190q-84 -125 -99 -245q-13 -108 44 -130q19 -8 46 -3q112 57 139 64q10 0 20 -14q24 -33 -57 -62q-31 -11 -76 -20q-171 -107 -247 -282q-62 -144 -32 -263q26 -102 110 -127q102 -29 249 71q32 21 64.5 53t56 61.5t50 70t40.5 65t34.5 61
t25.5 44.5q6 18 19 6q9 -9 5 -19z" />
    <glyph glyph-name="Edieresis" unicode="&#xcb;" horiz-adv-x="702" 
d="M526 1671l-16 -92q-15 -46 -40 -62t-47 -5.5t-38 37.5t-16 59l18 102q12 35 38 52t50 13t40.5 -32t10.5 -72zM834 1671l-17 -92q-15 -46 -40 -62t-47 -5.5t-38 37.5t-16 59l18 102q12 35 38 52t50.5 13t41 -32t10.5 -72zM776 446q-290 -548 -532 -548q-182 -3 -238 134
q-49 119 11 294q58 169 180 285q47 44 98 73q-112 -34 -143 56q-31 87 26 235q63 166 188 280q120 111 257 125q44 4 77.5 -13t53.5 -54.5t14 -104t-41 -153.5q-3 -13 -16.5 -18.5t-24.5 1.5t-8 23q43 103 37.5 159.5t-33.5 77t-64 7.5q-133 -40 -234 -190
q-84 -125 -99 -245q-13 -108 44 -130q19 -8 46 -3q112 57 139 64q10 0 20 -14q24 -33 -57 -62q-31 -11 -76 -20q-171 -107 -247 -282q-62 -144 -32 -263q26 -102 110 -127q102 -29 249 71q32 21 64.5 53t56 61.5t50 70t40.5 65t34.5 61t25.5 44.5q6 18 19 6q9 -9 5 -19z" />
    <glyph glyph-name="Igrave" unicode="&#xcc;" horiz-adv-x="755" 
d="M500 1669q-6 41 25 37q32 -3 66 -36q16 -15 15 -23q0 -2 56 -108q62 -117 42 -118q-4 0 -10 4q-40 27 -115 115t-79 129zM780 1356l-233 -1059q-43 -191 -130.5 -295.5t-219.5 -103.5q-56 0 -98.5 22t-66 55.5t-37.5 78.5t-18 85t-2 80q1 7 10 10.5t17.5 0.5t7.5 -11
q-7 -99 50 -172q55 -71 129 -62q98 12 170 170q36 77 61 185l110 481q-64 124 -84 217q-8 37 -8 69.5t6 58t19.5 48.5t29 40.5t38.5 33.5t45.5 28t51.5 24t54 20.5t56 19.5q8 3 12 4q35 11 37 8t-7 -36zM543 877q76 332 94 419v9q-110 -46 -144.5 -111t-0.5 -186
q30 -91 51 -131z" />
    <glyph glyph-name="Iacute" unicode="&#xcd;" horiz-adv-x="755" 
d="M879 1665q-4 -41 -80.5 -129t-116.5 -113q-22 -12 -10 23q9 27 82 161q16 32 18 38q-2 12 34 37q50 35 68 15q8 -9 5 -32zM780 1356l-233 -1059q-43 -191 -130.5 -295.5t-219.5 -103.5q-56 0 -98.5 22t-66 55.5t-37.5 78.5t-18 85t-2 80q1 7 10 10.5t17.5 0.5t7.5 -11
q-7 -99 50 -172q55 -71 129 -62q98 12 170 170q36 77 61 185l110 481q-64 124 -84 217q-8 37 -8 69.5t6 58t19.5 48.5t29 40.5t38.5 33.5t45.5 28t51.5 24t54 20.5t56 19.5q8 3 12 4q35 11 37 8t-7 -36zM543 877q76 332 94 419v9q-110 -46 -144.5 -111t-0.5 -186
q30 -91 51 -131z" />
    <glyph glyph-name="Icircumflex" unicode="&#xce;" horiz-adv-x="755" 
d="M403 1489q7 56 108 151t173 142q0 2 4 2q4 4 6 2q3 3 8 -2q3 0 5 -2q71 -47 172 -142t108 -151t-34 -54q-40 2 -91 45q-31 27 -28 40q-2 9 -61.5 90.5t-78.5 128.5q-19 -46 -77 -128t-60 -91q3 -17 -42 -50q-59 -44 -92 -34q-26 8 -20 53zM780 1356l-233 -1059
q-43 -191 -130.5 -295.5t-219.5 -103.5q-56 0 -98.5 22t-66 55.5t-37.5 78.5t-18 85t-2 80q1 7 10 10.5t17.5 0.5t7.5 -11q-7 -99 50 -172q55 -71 129 -62q98 12 170 170q36 77 61 185l110 481q-64 124 -84 217q-8 37 -8 69.5t6 58t19.5 48.5t29 40.5t38.5 33.5t45.5 28
t51.5 24t54 20.5t56 19.5q8 3 12 4q35 11 37 8t-7 -36zM543 877q76 332 94 419v9q-110 -46 -144.5 -111t-0.5 -186q30 -91 51 -131z" />
    <glyph glyph-name="Idieresis" unicode="&#xcf;" horiz-adv-x="755" 
d="M670 1602l-17 -93q-15 -46 -40 -62t-47 -5.5t-38 37.5t-16 59l18 102q12 35 38 52t50.5 13t41 -31.5t10.5 -71.5zM977 1602l-16 -93q-15 -46 -40 -62t-47 -5.5t-38.5 37.5t-16.5 59l19 102q10 28 29 45.5t39 19t38 -7t28 -34t5 -61.5zM780 1356l-233 -1059
q-43 -191 -130.5 -295.5t-219.5 -103.5q-56 0 -98.5 22t-66 55.5t-37.5 78.5t-18 85t-2 80q1 7 10 10.5t17.5 0.5t7.5 -11q-7 -99 50 -172q55 -71 129 -62q98 12 170 170q36 77 61 185l110 481q-64 124 -84 217q-8 37 -8 69.5t6 58t19.5 48.5t29 40.5t38.5 33.5t45.5 28
t51.5 24t54 20.5t56 19.5q8 3 12 4q35 11 37 8t-7 -36zM543 877q76 332 94 419v9q-110 -46 -144.5 -111t-0.5 -186q30 -91 51 -131z" />
    <glyph glyph-name="Eth" unicode="&#xd0;" horiz-adv-x="1310" 
d="M633 676h280q37 -2 53 -23t12 -46t-20 -48.5t-38 -30.5h-320l-53 -231q-43 -191 -130.5 -295.5t-219.5 -103.5q-56 0 -98.5 22t-66 55.5t-37.5 78.5t-18 85t-2 80q1 7 10 10.5t17.5 0.5t7.5 -11q-7 -99 50 -172q55 -71 129 -62q98 12 170 170q36 77 61 185l43 188h-213
q-38 3 -56 37t-2.5 69.5t58.5 43.5l246 -2l41 178q-58 54 -75.5 117.5t1.5 121.5t61 113t98.5 95t119 64t116.5 24q178 1 264 -204q81 -193 57 -495q-23 -291 -129 -512q-102 -215 -241 -260q-49 -16 -100 -8q-67 11 -121 59.5t-64 110.5l-2 59q3 19 21 19q16 0 16 -21
l2 -51q7 -52 50.5 -76.5t99.5 -13.5q36 8 77 31q78 50 144 200.5t95.5 333.5t28.5 357t-59.5 290t-165.5 113q-61 -2 -125.5 -29t-114.5 -72t-80 -99t-23 -117t57 -117l69 299l101 37q35 11 38 7.5t-5 -36.5l-82 -377z" />
    <glyph glyph-name="Ntilde" unicode="&#xd1;" horiz-adv-x="1110" 
d="M631 1479q84 89 159 129.5t132.5 38.5t111 -22t106.5 -46.5t106 -42.5t121.5 -1.5t143.5 69.5q3 2 6.5 7t7 7.5t7.5 1.5q8 -2 14 -8.5t0 -12.5q-82 -88 -153 -126.5t-126.5 -34t-107 27.5t-104.5 50t-108 42t-128.5 -5.5t-156.5 -84.5q-6 -21 -25 -25q-16 -4 -15 11
q1 11 9 25zM1440 1055q54 117 11 213q-32 70 -98 86q-81 20 -151 -59q-67 -75 -102 -222l-271 -1161q-2 -7 -38 -12.5t-71.5 0t-35.5 24.5l-74 1018q-10 -32 -53.5 -238.5t-81.5 -314.5q-29 -83 -57 -151t-64.5 -134.5t-74 -111t-83.5 -71t-94 -23.5q-39 2 -67.5 37.5
t-40.5 85.5t-17 106.5t5 101.5q5 18 20 15t14 -23q3 -39 9 -69t20 -60t40.5 -46.5t64.5 -16.5q58 0 114.5 59t101 150.5t86.5 218t72.5 247t57.5 253t41.5 219.5t25.5 163q65 39 77 37q10 -1 14 -34l1 -11l80 -1304q26 97 66 269t70 306t67.5 302.5t40.5 182.5
q43 200 161 272q85 52 169 16q76 -32 101 -116q29 -98 -30 -217q-3 -7 -10.5 -7t-13 6t-2.5 14z" />
    <glyph glyph-name="Ograve" unicode="&#xd2;" horiz-adv-x="1003" 
d="M483 1677q-6 41 26.5 37.5t65.5 -36.5q15 -15 15 -23q0 -2 57 -108q62 -118 40 -117q-3 1 -9 4q-41 27 -116 114.5t-79 128.5zM807 1135q61 -40 79.5 -147t-3 -241t-76.5 -281.5t-130.5 -270.5t-176.5 -207t-203 -92q-134 -11 -199 91.5t-65 282.5q-110 -7 -180.5 39.5
t-108.5 149.5q-3 17 14 20q18 4 21 -14q36 -89 96.5 -127t157.5 -31q4 112 30.5 238.5t70 248t104.5 231.5t129 191t149 125.5t160 36.5q78 -8 117 -72.5t14 -170.5zM672 1303q-107 -20 -222.5 -178t-190.5 -373.5t-79 -397.5q110 55 236.5 192.5t219.5 294t120 273.5
q-76 22 -158 -110q-10 -16 -25 -7t-6 25q102 156 195 131q19 75 -11.5 117.5t-78.5 32.5zM283 51q119 -86 263 64q126 130 220 375q94 242 92 423q-1 139 -65 181q-35 -107 -97 -223.5t-141 -225t-178 -198t-197 -134.5q10 -195 103 -262z" />
    <glyph glyph-name="Oacute" unicode="&#xd3;" horiz-adv-x="1003" 
d="M807 1135q61 -40 79.5 -147t-3 -241t-76.5 -281.5t-130.5 -270.5t-176.5 -207t-203 -92q-134 -11 -199 91.5t-65 282.5q-110 -7 -180.5 39.5t-108.5 149.5q-3 17 14 20q18 4 21 -14q36 -89 96.5 -127t157.5 -31q4 112 30.5 238.5t70 248t104.5 231.5t129 191t149 125.5
t160 36.5q78 -8 117 -72.5t14 -170.5zM672 1303q-107 -20 -222.5 -178t-190.5 -373.5t-79 -397.5q110 55 236.5 192.5t219.5 294t120 273.5q-76 22 -158 -110q-10 -16 -25 -7t-6 25q102 156 195 131q19 75 -11.5 117.5t-78.5 32.5zM283 51q119 -86 263 64q126 130 220 375
q94 242 92 423q-1 139 -65 181q-35 -107 -97 -223.5t-141 -225t-178 -198t-197 -134.5q10 -195 103 -262zM854 1681q-4 -41 -80 -128t-117 -115q-22 -13 -10 22q10 28 84 165q16 28 17 34q-2 14 34 39q47 33 66 15q9 -9 6 -32z" />
    <glyph glyph-name="Ocircumflex" unicode="&#xd4;" horiz-adv-x="1003" 
d="M453 1470q4 38 72 102.5t122 102.5h4q3 3 4 2q3 3 7 -2h2q55 -39 123.5 -103t72.5 -102q6 -41 -26 -38q-32 4 -66 37q-16 15 -14 22q-2 5 -44 63t-55 91q-13 -32 -53.5 -89.5t-42.5 -64.5q2 -12 -32 -37q-49 -35 -68 -17q-9 9 -6 33zM807 1135q61 -40 79.5 -147t-3 -241
t-76.5 -281.5t-130.5 -270.5t-176.5 -207t-203 -92q-134 -11 -199 91.5t-65 282.5q-110 -7 -180.5 39.5t-108.5 149.5q-3 17 14 20q18 4 21 -14q36 -89 96.5 -127t157.5 -31q4 112 30.5 238.5t70 248t104.5 231.5t129 191t149 125.5t160 36.5q78 -8 117 -72.5t14 -170.5z
M672 1303q-107 -20 -222.5 -178t-190.5 -373.5t-79 -397.5q110 55 236.5 192.5t219.5 294t120 273.5q-76 22 -158 -110q-10 -16 -25 -7t-6 25q102 156 195 131q19 75 -11.5 117.5t-78.5 32.5zM283 51q119 -86 263 64q126 130 220 375q94 242 92 423q-1 139 -65 181
q-35 -107 -97 -223.5t-141 -225t-178 -198t-197 -134.5q10 -195 103 -262z" />
    <glyph glyph-name="Otilde" unicode="&#xd5;" horiz-adv-x="1003" 
d="M406 1464q59 62 111 90.5t92.5 27.5t78 -15.5t74.5 -32.5t74.5 -29.5t85.5 -1t100 48.5q2 1 5.5 6.5t8.5 4.5q5 0 9.5 -5.5t1.5 -9.5q-58 -62 -108 -88.5t-89 -23t-75.5 19.5t-73.5 35t-75.5 29.5t-90 -3.5t-109.5 -59q-4 -17 -18 -19q-8 -2 -8 8q1 7 6 17zM807 1135
q61 -40 79.5 -147t-3 -241t-76.5 -281.5t-130.5 -270.5t-176.5 -207t-203 -92q-134 -11 -199 91.5t-65 282.5q-110 -7 -180.5 39.5t-108.5 149.5q-3 17 14 20q18 4 21 -14q36 -89 96.5 -127t157.5 -31q4 112 30.5 238.5t70 248t104.5 231.5t129 191t149 125.5t160 36.5
q78 -8 117 -72.5t14 -170.5zM672 1303q-107 -20 -222.5 -178t-190.5 -373.5t-79 -397.5q110 55 236.5 192.5t219.5 294t120 273.5q-76 22 -158 -110q-10 -16 -25 -7t-6 25q102 156 195 131q19 75 -11.5 117.5t-78.5 32.5zM283 51q119 -86 263 64q126 130 220 375
q94 242 92 423q-1 139 -65 181q-35 -107 -97 -223.5t-141 -225t-178 -198t-197 -134.5q10 -195 103 -262z" />
    <glyph glyph-name="Odieresis" unicode="&#xd6;" horiz-adv-x="1003" 
d="M633 1593l-17 -92q-15 -46 -40 -62t-47 -5.5t-38 37.5t-16 59l19 102q12 35 38 52t50 13t40.5 -32t10.5 -72zM940 1593l-16 -92q-15 -46 -40 -62t-47 -5.5t-38.5 37.5t-16.5 59l19 102q12 35 38 52t50 13t40.5 -32t10.5 -72zM807 1135q61 -40 79.5 -147t-3 -241
t-76.5 -281.5t-130.5 -270.5t-176.5 -207t-203 -92q-134 -11 -199 91.5t-65 282.5q-110 -7 -180.5 39.5t-108.5 149.5q-3 17 14 20q18 4 21 -14q36 -89 96.5 -127t157.5 -31q4 112 30.5 238.5t70 248t104.5 231.5t129 191t149 125.5t160 36.5q78 -8 117 -72.5t14 -170.5z
M672 1303q-107 -20 -222.5 -178t-190.5 -373.5t-79 -397.5q110 55 236.5 192.5t219.5 294t120 273.5q-76 22 -158 -110q-10 -16 -25 -7t-6 25q102 156 195 131q19 75 -11.5 117.5t-78.5 32.5zM283 51q119 -86 263 64q126 130 220 375q94 242 92 423q-1 139 -65 181
q-35 -107 -97 -223.5t-141 -225t-178 -198t-197 -134.5q10 -195 103 -262z" />
    <glyph glyph-name="multiply" unicode="&#xd7;" horiz-adv-x="1419" 
d="M874 266l-196 301l-254 -235q-38 -32 -68 -32t-42 21.5t-11.5 53t16.5 55.5l279 258l-205 307q-31 60 -15 88.5t58 28t72 -28.5l197 -297l264 244q29 24 60.5 24t50.5 -16.5t17.5 -48.5t-30.5 -65l-283 -258l211 -320q16 -27 16.5 -53.5t-12.5 -43t-32 -24t-44.5 3
t-48.5 37.5z" />
    <glyph glyph-name="Oslash" unicode="&#xd8;" horiz-adv-x="1003" 
d="M807 1135q61 -40 79.5 -147t-3 -241t-76.5 -281.5t-130.5 -270.5t-176.5 -207t-203 -92h-12l-80 -254l-90 20l80 248q-162 61 -162 360q-110 -7 -180.5 39.5t-108.5 149.5q-3 17 14 20q18 4 21 -14q36 -89 96.5 -127t157.5 -31q4 112 30.5 238.5t70 248t104.5 231.5
t129 191t149 125.5t160 36.5h2l106 320q26 29 45.5 25t30.5 -37l-108 -336q91 -65 55 -215zM793 1094q-43 -128 -116.5 -261.5t-168.5 -246.5l-180 -557q74 -23 156 35t150 164t122.5 240.5t81 260.5t17 227.5t-61.5 137.5zM434 1104q-105 -156 -177.5 -364.5t-76.5 -385.5
q102 50 219 176l254 768q-102 -32 -219 -194zM180 313q3 -152 72 -233l119 364q-102 -89 -191 -131zM756 1114q-46 12 -86 -22l-123 -383q167 227 209 405zM762 1153q23 97 -29 135l-47 -143q40 16 76 8z" />
    <glyph glyph-name="Ugrave" unicode="&#xd9;" horiz-adv-x="876" 
d="M371 1681q-6 41 25 37q32 -3 66 -36q16 -15 15 -23q0 -2 57 -108q62 -118 40 -117q-3 1 -9 4q-41 27 -115.5 114.5t-78.5 128.5zM166 33q25 -10 62.5 16.5t80 79t79 105.5t73.5 114q11 103 33 217q27 149 92.5 413t87.5 372l119 43q17 4 18.5 -2.5t-4.5 -30.5
q-20 -92 -56 -250.5t-64.5 -291t-49.5 -253.5q-35 -185 -33.5 -338.5t49.5 -191.5q21 -16 52 13t65.5 89.5t62 117t56 120.5t33.5 74q7 11 15 11.5t10.5 -7.5t-1.5 -19q-4 -8 -20 -51t-34.5 -86.5t-45.5 -102t-58 -108t-66.5 -93.5t-78 -69.5t-84.5 -25.5q-134 0 -106 360
q-102 -154 -181.5 -242t-128 -108t-80.5 2t-44 77t-13 128.5t6.5 145.5t20.5 138q31 164 101 457t102 440q3 17 0 25.5t-6 12t0 6t18 8.5l102 36q34 12 37 8.5t-6 -34.5l-186 -850q-104 -452 -29 -475z" />
    <glyph glyph-name="Uacute" unicode="&#xda;" horiz-adv-x="876" 
d="M721 1679q-4 -41 -80.5 -128.5t-116.5 -112.5q-22 -12 -10 23q10 27 82 160q16 32 18 38q-2 12 34 37q50 35 68 15q8 -9 5 -32zM166 33q25 -10 62.5 16.5t80 79t79 105.5t73.5 114q11 103 33 217q27 149 92.5 413t87.5 372l119 43q17 4 18.5 -2.5t-4.5 -30.5
q-20 -92 -56 -250.5t-64.5 -291t-49.5 -253.5q-35 -185 -33.5 -338.5t49.5 -191.5q21 -16 52 13t65.5 89.5t62 117t56 120.5t33.5 74q7 11 15 11.5t10.5 -7.5t-1.5 -19q-4 -8 -20 -51t-34.5 -86.5t-45.5 -102t-58 -108t-66.5 -93.5t-78 -69.5t-84.5 -25.5q-134 0 -106 360
q-102 -154 -181.5 -242t-128 -108t-80.5 2t-44 77t-13 128.5t6.5 145.5t20.5 138q31 164 101 457t102 440q3 17 0 25.5t-6 12t0 6t18 8.5l102 36q34 12 37 8.5t-6 -34.5l-186 -850q-104 -452 -29 -475z" />
    <glyph glyph-name="Ucircumflex" unicode="&#xdb;" horiz-adv-x="876" 
d="M276 1489q7 56 108 151t173 142q0 2 4 2q4 4 6 2q3 3 8 -2q3 0 5 -2q71 -47 172 -142t108 -151t-34 -54q-40 2 -91 45q-31 27 -28 40q-2 9 -61.5 90.5t-78.5 128.5q-19 -46 -77 -128t-60 -91q3 -17 -42 -50q-59 -44 -92 -34q-26 8 -20 53zM166 33q25 -10 62.5 16.5t80 79
t79 105.5t73.5 114q11 103 33 217q27 149 92.5 413t87.5 372l119 43q17 4 18.5 -2.5t-4.5 -30.5q-20 -92 -56 -250.5t-64.5 -291t-49.5 -253.5q-35 -185 -33.5 -338.5t49.5 -191.5q21 -16 52 13t65.5 89.5t62 117t56 120.5t33.5 74q7 11 15 11.5t10.5 -7.5t-1.5 -19
q-4 -8 -20 -51t-34.5 -86.5t-45.5 -102t-58 -108t-66.5 -93.5t-78 -69.5t-84.5 -25.5q-134 0 -106 360q-102 -154 -181.5 -242t-128 -108t-80.5 2t-44 77t-13 128.5t6.5 145.5t20.5 138q31 164 101 457t102 440q3 17 0 25.5t-6 12t0 6t18 8.5l102 36q34 12 37 8.5t-6 -34.5
l-186 -850q-104 -452 -29 -475z" />
    <glyph glyph-name="Udieresis" unicode="&#xdc;" horiz-adv-x="876" 
d="M522 1599l-16 -92q-15 -46 -40 -62t-47 -5.5t-38 37.5t-16 59l18 102q12 35 38 52t50 13t40.5 -32t10.5 -72zM829 1599l-16 -92q-15 -46 -40 -62t-47 -5.5t-38 37.5t-16 59l18 102q12 35 38 52t50 13t40.5 -32t10.5 -72zM166 33q25 -10 62.5 16.5t80 79t79 105.5
t73.5 114q11 103 33 217q27 149 92.5 413t87.5 372l119 43q17 4 18.5 -2.5t-4.5 -30.5q-20 -92 -56 -250.5t-64.5 -291t-49.5 -253.5q-35 -185 -33.5 -338.5t49.5 -191.5q21 -16 52 13t65.5 89.5t62 117t56 120.5t33.5 74q7 11 15 11.5t10.5 -7.5t-1.5 -19q-4 -8 -20 -51
t-34.5 -86.5t-45.5 -102t-58 -108t-66.5 -93.5t-78 -69.5t-84.5 -25.5q-134 0 -106 360q-102 -154 -181.5 -242t-128 -108t-80.5 2t-44 77t-13 128.5t6.5 145.5t20.5 138q31 164 101 457t102 440q3 17 0 25.5t-6 12t0 6t18 8.5l102 36q34 12 37 8.5t-6 -34.5l-186 -850
q-104 -452 -29 -475z" />
    <glyph glyph-name="Yacute" unicode="&#xdd;" horiz-adv-x="829" 
d="M776 1681q-4 -41 -80 -128.5t-116 -112.5q-22 -12 -10 23q10 27 82 160q16 32 18 38q-2 12 32 36q49 35 68 17q9 -9 6 -33zM862 1331l-315 -1333q-89 -399 -350 -399q-69 0 -117 32t-70 84t-30 103t-5 104q1 5 10 8.5t17.5 1.5t7.5 -10q-7 -99 50 -173q55 -71 129 -62
q99 11 171 170q35 77 60 184l108 463q-70 -101 -129 -170.5t-102 -106t-76.5 -48t-54.5 1.5t-34 44.5t-17 78t-1.5 106t10.5 124t21 136.5q8 38 38.5 199.5t52.5 271t34 155.5q3 17 0 25.5t-6 12t0 6t19 8.5l102 36q34 12 36 8q1 -1 -5 -34l-123 -572q-2 -12 -14 -69.5
t-23 -118t-19.5 -125.5t-2 -110t29.5 -52q26 -10 62.5 15.5t79.5 79.5t77 103.5t74 113.5l172 727l102 32q40 12 43 -0.5t-12 -50.5z" />
    <glyph glyph-name="agrave" unicode="&#xe0;" 
d="M180 1049q-6 40 25 37q32 -3 67 -36q16 -16 15 -24q0 -2 57 -108q62 -118 40 -117q-3 1 -9 4q-41 27 -116 115t-79 129zM326 543l34 145q14 9 70.5 33t63.5 29q5 1 7 -4t1 -16t-4 -25.5t-8 -35.5t-10 -41.5t-11 -47.5t-10 -50t-17 -87t-17.5 -93.5t-9.5 -73.5t0.5 -69.5
t18.5 -38.5q16 -14 35.5 -10.5t41.5 23t43 46t40.5 58t33.5 58.5t23 48q6 13 18.5 9.5t6.5 -19.5q-101 -225 -187 -318q-66 -69 -127 -61q-45 4 -67.5 59.5t-22.5 139.5q-40 -94 -91.5 -146.5t-100.5 -54.5q-46 0 -75.5 50.5t-35 148t24.5 241.5q38 186 125 268
q67 64 126 27q66 -42 81 -192zM311 494q-18 102 -61 120q-47 21 -93 -83q-20 -47 -38 -115q-24 -94 -18.5 -166.5t36.5 -89.5q29 -17 68.5 10.5t68.5 87.5q9 125 37 236z" />
    <glyph glyph-name="aacute" unicode="&#xe1;" 
d="M492 1053q-4 -41 -80.5 -129t-116.5 -113q-22 -12 -10 23q10 27 82 160q16 32 18 38q-2 12 34 37q50 36 68 16q8 -9 5 -32zM326 543l34 145q14 9 70.5 33t63.5 29q5 1 7 -4t1 -16t-4 -25.5t-8 -35.5t-10 -41.5t-11 -47.5t-10 -50t-17 -87t-17.5 -93.5t-9.5 -73.5
t0.5 -69.5t18.5 -38.5q16 -14 35.5 -10.5t41.5 23t43 46t40.5 58t33.5 58.5t23 48q6 13 18.5 9.5t6.5 -19.5q-101 -225 -187 -318q-66 -69 -127 -61q-45 4 -67.5 59.5t-22.5 139.5q-40 -94 -91.5 -146.5t-100.5 -54.5q-46 0 -75.5 50.5t-35 148t24.5 241.5q38 186 125 268
q67 64 126 27q66 -42 81 -192zM311 494q-18 102 -61 120q-47 21 -93 -83q-20 -47 -38 -115q-24 -94 -18.5 -166.5t36.5 -89.5q29 -17 68.5 10.5t68.5 87.5q9 125 37 236z" />
    <glyph glyph-name="acircumflex" unicode="&#xe2;" 
d="M123 831q4 38 72 102.5t122 102.5h5q3 3 4 2q2 2 6 -2h2q55 -39 123.5 -103t72.5 -102q6 -41 -26 -38q-32 4 -66 37q-16 15 -14 22q-2 5 -43.5 63t-54.5 91q-13 -32 -54.5 -89.5t-42.5 -64.5q2 -12 -32 -37q-49 -35 -68 -17q-9 9 -6 33zM326 543l34 145q14 9 70.5 33
t63.5 29q5 1 7 -4t1 -16t-4 -25.5t-8 -35.5t-10 -41.5t-11 -47.5t-10 -50t-17 -87t-17.5 -93.5t-9.5 -73.5t0.5 -69.5t18.5 -38.5q16 -14 35.5 -10.5t41.5 23t43 46t40.5 58t33.5 58.5t23 48q6 13 18.5 9.5t6.5 -19.5q-101 -225 -187 -318q-66 -69 -127 -61
q-45 4 -67.5 59.5t-22.5 139.5q-40 -94 -91.5 -146.5t-100.5 -54.5q-46 0 -75.5 50.5t-35 148t24.5 241.5q38 186 125 268q67 64 126 27q66 -42 81 -192zM311 494q-18 102 -61 120q-47 21 -93 -83q-20 -47 -38 -115q-24 -94 -18.5 -166.5t36.5 -89.5q29 -17 68.5 10.5
t68.5 87.5q9 125 37 236z" />
    <glyph glyph-name="atilde" unicode="&#xe3;" 
d="M31 840q59 62 111 90.5t92.5 27.5t78 -15.5t74.5 -32.5t74.5 -29.5t85.5 -1t100 48.5q2 1 4.5 4.5t4.5 5t6 0.5q5 0 9 -5t1 -9q-58 -62 -108 -88.5t-89 -23t-75.5 19.5t-73.5 35t-75.5 29.5t-90 -3.5t-109.5 -59q-4 -17 -18 -19q-8 -2 -8 8q1 7 6 17zM326 543l34 145
q14 9 70.5 33t63.5 29q5 1 7 -4t1 -16t-4 -25.5t-8 -35.5t-10 -41.5t-11 -47.5t-10 -50t-17 -87t-17.5 -93.5t-9.5 -73.5t0.5 -69.5t18.5 -38.5q16 -14 35.5 -10.5t41.5 23t43 46t40.5 58t33.5 58.5t23 48q6 13 18.5 9.5t6.5 -19.5q-101 -225 -187 -318q-66 -69 -127 -61
q-45 4 -67.5 59.5t-22.5 139.5q-40 -94 -91.5 -146.5t-100.5 -54.5q-46 0 -75.5 50.5t-35 148t24.5 241.5q38 186 125 268q67 64 126 27q66 -42 81 -192zM311 494q-18 102 -61 120q-47 21 -93 -83q-20 -47 -38 -115q-24 -94 -18.5 -166.5t36.5 -89.5q29 -17 68.5 10.5
t68.5 87.5q9 125 37 236z" />
    <glyph glyph-name="adieresis" unicode="&#xe4;" 
d="M262 987l-16 -92q-15 -46 -40 -62t-47 -5.5t-38.5 37.5t-16.5 59l19 102q12 35 38 52t50 13t40.5 -32t10.5 -72zM569 987l-16 -92q-15 -46 -40 -62t-47 -5.5t-38 37.5t-16 59l18 102q12 35 38 52t50 13t40.5 -32t10.5 -72zM326 543l34 145q14 9 70.5 33t63.5 29q5 1 7 -4
t1 -16t-4 -25.5t-8 -35.5t-10 -41.5t-11 -47.5t-10 -50t-17 -87t-17.5 -93.5t-9.5 -73.5t0.5 -69.5t18.5 -38.5q16 -14 35.5 -10.5t41.5 23t43 46t40.5 58t33.5 58.5t23 48q6 13 18.5 9.5t6.5 -19.5q-101 -225 -187 -318q-66 -69 -127 -61q-45 4 -67.5 59.5t-22.5 139.5
q-40 -94 -91.5 -146.5t-100.5 -54.5q-46 0 -75.5 50.5t-35 148t24.5 241.5q38 186 125 268q67 64 126 27q66 -42 81 -192zM311 494q-18 102 -61 120q-47 21 -93 -83q-20 -47 -38 -115q-24 -94 -18.5 -166.5t36.5 -89.5q29 -17 68.5 10.5t68.5 87.5q9 125 37 236z" />
    <glyph glyph-name="aring" unicode="&#xe5;" 
d="M180 1057q0 78 39 133t94 55q56 0 96 -55t40 -133t-40 -133.5t-96 -55.5q-55 0 -94 55.5t-39 133.5zM231 1055q0 -57 29.5 -96t71.5 -39q41 0 70.5 39t29.5 96t-29.5 97t-70.5 40t-71 -40t-30 -97zM326 543l34 145q14 9 70.5 33t63.5 29q5 1 7 -4t1 -16t-4 -25.5
t-8 -35.5t-10 -41.5t-11 -47.5t-10 -50t-17 -87t-17.5 -93.5t-9.5 -73.5t0.5 -69.5t18.5 -38.5q16 -14 35.5 -10.5t41.5 23t43 46t40.5 58t33.5 58.5t23 48q6 13 18.5 9.5t6.5 -19.5q-101 -225 -187 -318q-66 -69 -127 -61q-45 4 -67.5 59.5t-22.5 139.5
q-40 -94 -91.5 -146.5t-100.5 -54.5q-46 0 -75.5 50.5t-35 148t24.5 241.5q38 186 125 268q67 64 126 27q66 -42 81 -192zM311 494q-18 102 -61 120q-47 21 -93 -83q-20 -47 -38 -115q-24 -94 -18.5 -166.5t36.5 -89.5q29 -17 68.5 10.5t68.5 87.5q9 125 37 236z" />
    <glyph glyph-name="ae" unicode="&#xe6;" horiz-adv-x="722" 
d="M330 543v-2q36 103 93 157.5t112 42.5q59 -14 87 -67.5t21.5 -124.5t-32.5 -143.5t-75.5 -132t-105.5 -83.5q8 -46 33 -64.5t64.5 -4t86.5 62.5q52 56 131 203q6 11 14.5 4.5t2.5 -22.5q-49 -135 -125 -234q-46 -62 -102.5 -97.5t-104.5 -37.5q-67 0 -106 57t-45 154
q-3 -3 -3 -10q-40 -94 -91.5 -146.5t-100.5 -54.5q-46 0 -75.5 50.5t-35 148t24.5 241.5q38 186 125 268q67 64 126 27q66 -42 81 -192zM123 416q-24 -94 -18.5 -166.5t36.5 -89.5q29 -17 69 10.5t69 87.5q0 85 24 184q3 28 12 52q-18 100 -60 119q-48 21 -93 -79
q-21 -47 -39 -118zM547 614q-41 -15 -77 -89.5t-48 -164.5q0 -7 -2.5 -39t-3 -52t3.5 -44q97 46 152 173q43 101 31 173q-9 57 -51 45q-2 -1 -5 -2z" />
    <glyph glyph-name="ccedilla" unicode="&#xe7;" horiz-adv-x="425" 
d="M160 -72q60 0 73 -58q13 -59 -28 -123q-49 -79 -134 -85h-12q-44 0 -60 36.5t-5 84.5q3 11 9 14.5t10 -2t1 -16.5q-9 -35 2 -66.5t47 -31.5q48 0 88 70q37 67 31 120q-7 53 -62 34q-3 -1 -7 -3q-3 -3 -5.5 -10.5t-5.5 -10.5q-6 -12 -16 -10t-18.5 11.5t-6.5 13.5
q19 59 39 106q-47 8 -77 56t-39 143t18 237q57 227 159 287q68 40 125 -8q53 -45 60 -135q5 -71 -33 -93q-28 -15 -49 6q-19 21 -10 58q11 45 45 45l2 -2q-23 43 -69 9q-55 -40 -89 -139q-8 -26 -14 -52q-36 -171 8 -254q36 -68 107 -33q34 17 71 57q58 60 131 203
q7 12 15 4q8 -7 4 -22q-63 -150 -127 -234q-42 -57 -92.5 -92t-98.5 -43q-22 -55 -28 -78q18 6 41 6z" />
    <glyph glyph-name="egrave" unicode="&#xe8;" horiz-adv-x="425" 
d="M117 1057q-6 40 24 37q31 -2 67 -36q16 -16 15 -24q0 -2 57 -108q62 -118 40 -117q-3 1 -9 4q-40 27 -115 115t-79 129zM133 190q8 -46 33 -64.5t64.5 -4t86.5 62.5q54 59 132 203q6 11 14 4.5t2 -22.5q-49 -135 -125 -234q-46 -62 -102.5 -97.5t-104.5 -37.5
q-69 0 -109 61.5t-43 159.5t25 221q27 145 97.5 231t134.5 68q59 -14 87 -67.5t21.5 -124.5t-32.5 -143.5t-75.5 -132t-105.5 -83.5zM250 614q-41 -15 -77 -89.5t-48 -164.5q0 -7 -2.5 -39t-3 -52t3.5 -44q97 46 152 173q43 101 31 173q-9 57 -51 45q-2 -1 -5 -2z" />
    <glyph glyph-name="eacute" unicode="&#xe9;" horiz-adv-x="425" 
d="M346 1057q-4 -41 -79.5 -129t-116.5 -115q-22 -13 -10 22q10 28 84 166q15 27 16 33q-2 14 34 39q47 34 66 16q9 -9 6 -32zM133 190q8 -46 33 -64.5t64.5 -4t86.5 62.5q54 59 132 203q6 11 14 4.5t2 -22.5q-49 -135 -125 -234q-46 -62 -102.5 -97.5t-104.5 -37.5
q-69 0 -109 61.5t-43 159.5t25 221q27 145 97.5 231t134.5 68q59 -14 87 -67.5t21.5 -124.5t-32.5 -143.5t-75.5 -132t-105.5 -83.5zM250 614q-41 -15 -77 -89.5t-48 -164.5q0 -7 -2.5 -39t-3 -52t3.5 -44q97 46 152 173q43 101 31 173q-9 57 -51 45q-2 -1 -5 -2z" />
    <glyph glyph-name="ecircumflex" unicode="&#xea;" horiz-adv-x="425" 
d="M20 831q4 38 72.5 102t122.5 103h4q3 3 4 2q2 2 6 -2h2q56 -40 124.5 -103.5t72.5 -101.5q6 -41 -26 -38q-32 4 -66 37q-16 15 -14 22q-2 5 -44 63t-55 91q-13 -32 -53.5 -89.5t-42.5 -64.5q2 -12 -34 -37q-50 -36 -68 -16q-8 9 -5 32zM133 190q8 -46 33 -64.5t64.5 -4
t86.5 62.5q54 59 132 203q6 11 14 4.5t2 -22.5q-49 -135 -125 -234q-46 -62 -102.5 -97.5t-104.5 -37.5q-69 0 -109 61.5t-43 159.5t25 221q27 145 97.5 231t134.5 68q59 -14 87 -67.5t21.5 -124.5t-32.5 -143.5t-75.5 -132t-105.5 -83.5zM250 614q-41 -15 -77 -89.5
t-48 -164.5q0 -7 -2.5 -39t-3 -52t3.5 -44q97 46 152 173q43 101 31 173q-9 57 -51 45q-2 -1 -5 -2z" />
    <glyph glyph-name="edieresis" unicode="&#xeb;" horiz-adv-x="425" 
d="M174 979l-16 -92q-15 -46 -40 -62.5t-47 -5.5t-38.5 37.5t-16.5 58.5l19 103q12 35 38 52t50 13t40.5 -32t10.5 -72zM481 979l-16 -92q-15 -46 -40 -62.5t-47 -5.5t-38 37.5t-16 58.5l18 103q12 35 38 52t50 13t40.5 -32t10.5 -72zM133 190q8 -46 33 -64.5t64.5 -4
t86.5 62.5q54 59 132 203q6 11 14 4.5t2 -22.5q-49 -135 -125 -234q-46 -62 -102.5 -97.5t-104.5 -37.5q-69 0 -109 61.5t-43 159.5t25 221q27 145 97.5 231t134.5 68q59 -14 87 -67.5t21.5 -124.5t-32.5 -143.5t-75.5 -132t-105.5 -83.5zM250 614q-41 -15 -77 -89.5
t-48 -164.5q0 -7 -2.5 -39t-3 -52t3.5 -44q97 46 152 173q43 101 31 173q-9 57 -51 45q-2 -1 -5 -2z" />
    <glyph glyph-name="igrave" unicode="&#xec;" horiz-adv-x="335" 
d="M20 797q35 19 62 0t33 -66q0 -4 1 -12t1 -12l57 26q46 21 51 5t-12 -72q-63 -232 -70 -297q-6 -49 -7.5 -68t-3.5 -56.5t4 -57t18 -27.5q23 -15 57.5 9.5t67 70.5t57 87t37.5 68q5 8 12 9t10 -3.5t0 -13.5q-34 -113 -172 -303q-38 -48 -82.5 -68t-80.5 -10t-58 59
t-16 130q2 15 7.5 73.5t10.5 87.5q23 145 39 217q-30 -11 -54 8.5t-30 61.5q-7 43 11.5 88t49.5 66zM29 1057q-6 40 24 37q31 -2 67 -36q16 -16 15 -24q0 -2 57 -108q62 -118 40 -117q-3 1 -9 4q-40 27 -115 115t-79 129z" />
    <glyph glyph-name="iacute" unicode="&#xed;" horiz-adv-x="335" 
d="M20 797q35 19 62 0t33 -66q0 -4 1 -12t1 -12l57 26q46 21 51 5t-12 -72q-63 -232 -70 -297q-6 -49 -7.5 -68t-3.5 -56.5t4 -57t18 -27.5q23 -15 57.5 9.5t67 70.5t57 87t37.5 68q5 8 12 9t10 -3.5t0 -13.5q-34 -113 -172 -303q-38 -48 -82.5 -68t-80.5 -10t-58 59
t-16 130q2 15 7.5 73.5t10.5 87.5q23 145 39 217q-30 -11 -54 8.5t-30 61.5q-7 43 11.5 88t49.5 66zM338 1065q-4 -41 -80 -128.5t-117 -115.5q-22 -13 -10 22q10 28 84 166q15 27 16 33q-2 14 34 39q48 34 67 16q9 -9 6 -32z" />
    <glyph glyph-name="icircumflex" unicode="&#xee;" horiz-adv-x="335" 
d="M20 797q35 19 62 0t33 -66q0 -4 1 -12t1 -12l57 26q46 21 51 5t-12 -72q-63 -232 -70 -297q-6 -49 -7.5 -68t-3.5 -56.5t4 -57t18 -27.5q23 -15 57.5 9.5t67 70.5t57 87t37.5 68q5 8 12 9t10 -3.5t0 -13.5q-34 -113 -172 -303q-38 -48 -82.5 -68t-80.5 -10t-58 59
t-16 130q2 15 7.5 73.5t10.5 87.5q23 145 39 217q-30 -11 -54 8.5t-30 61.5q-7 43 11.5 88t49.5 66zM-127 883q7 56 108 151t173 142q0 2 4 2q4 4 6 2q3 3 8 -2q2 0 4 -2q72 -47 173 -142t108 -151q7 -57 -35 -55q-41 3 -91 46q-29 26 -28 39q-2 9 -61 91t-78 129
q-19 -46 -77 -128.5t-60 -91.5q3 -17 -42 -50q-59 -44 -92 -33q-26 8 -20 53z" />
    <glyph glyph-name="idieresis" unicode="&#xef;" horiz-adv-x="335" 
d="M20 797q35 19 62 0t33 -66q0 -4 1 -12t1 -12l57 26q46 21 51 5t-12 -72q-63 -232 -70 -297q-6 -49 -7.5 -68t-3.5 -56.5t4 -57t18 -27.5q23 -15 57.5 9.5t67 70.5t57 87t37.5 68q5 8 12 9t10 -3.5t0 -13.5q-34 -113 -172 -303q-38 -48 -82.5 -68t-80.5 -10t-58 59
t-16 130q2 15 7.5 73.5t10.5 87.5q23 145 39 217q-30 -11 -54 8.5t-30 61.5q-7 43 11.5 88t49.5 66zM106 991l-16 -92q-15 -46 -40 -62t-47 -5.5t-38 37.5t-16 59l18 102q12 35 38 52t50 13t40.5 -32t10.5 -72zM414 991l-17 -92q-15 -46 -40 -62t-47 -5.5t-38 37.5t-16 59
l18 102q12 35 38 52t50.5 13t41 -32t10.5 -72z" />
    <glyph glyph-name="eth" unicode="&#xf0;" horiz-adv-x="765" 
d="M518 1016q60 0 101 -22t60 -61t27 -86t1.5 -105.5t-17 -110t-26.5 -107.5q-99 -320 -263 -455q-116 -95 -221 -66q-90 25 -131 131q-52 135 0 337q25 103 70.5 199.5t105.5 174t136.5 124.5t156.5 47zM510 969q-57 -2 -113 -60.5t-97 -146t-68 -162.5t-42 -137
q-74 -357 -5 -415q44 -37 131 64q103 120 186 333q10 23 18 47q73 211 87 297q29 181 -92 180h-5zM653 1004l-92 141l-121 -113q-23 -20 -38.5 -14t-16 25.5t7.5 35.5l129 123l-96 144q-23 39 4.5 51.5t50.5 -11.5l90 -139l125 115q18 16 37 11.5t22 -22t-14 -40.5
l-131 -121l99 -150q18 -34 -5.5 -52.5t-50.5 16.5z" />
    <glyph glyph-name="ntilde" unicode="&#xf1;" horiz-adv-x="651" 
d="M-143 856q84 89 159 129.5t132.5 38.5t111 -22t106.5 -46.5t106 -42.5t121.5 -1.5t143.5 69.5q3 2 6.5 7t7 7.5t7.5 1.5q9 -2 14.5 -8t-0.5 -12q-64 -70 -122 -108.5t-104.5 -47t-89.5 -0.5t-83 27.5t-79.5 40.5t-84 36t-91.5 16.5t-106.5 -21.5t-124.5 -74
q-6 -20 -23 -25q-16 -6 -16 10q0 9 9 25zM487 565q-84 -372 -24 -403q11 -8 25.5 -4t27.5 10.5t28 22.5t27.5 31t26 36.5t24 39t21 37.5t17 33l12.5 25q8 11 18 7.5t6 -19.5q-16 -59 -66 -149t-104 -152q-34 -38 -71 -58t-71.5 -19t-59.5 40t-31 115q-8 75 10 188
q11 90 29 150q33 112 -49 16q-31 -36 -140 -189q-13 -18 -18 -24q-19 -90 -45 -231q-12 -59 -64 -67q-43 -6 -71 21q-18 18 -15 39q3 17 34.5 161.5t59 277.5t23.5 143q-2 8 -9.5 15.5t-10.5 11t5 10t34 16.5q112 51 121 54q22 6 23 -13q0 -9 -3 -35q-15 -79 -38 -187.5
t-26 -127.5q64 103 152.5 213.5t128.5 134.5q41 24 63 -12q29 -46 0 -158z" />
    <glyph glyph-name="ograve" unicode="&#xf2;" horiz-adv-x="509" 
d="M195 1106q-6 40 24 37q31 -2 67 -36q16 -16 15 -24q0 -2 57 -108q62 -118 40 -117q-3 1 -9 4q-40 27 -115 115t-79 129zM252 680q-45 -38 -81 -170.5t-33.5 -248t52.5 -107.5q30 4 52 35t51 100q-47 42 -65 115.5t-10 145.5t34 130zM334 307q22 -9 42.5 -10.5t37 1.5
t33.5 15t29 21.5t26 29.5t21 32t19 36t15.5 32.5t13.5 31.5q5 11 17 7.5t8 -16.5q-9 -32 -25 -66t-41 -70t-55.5 -58.5t-69 -32t-81.5 9.5q-28 -113 -92 -195t-119 -75q-62 5 -103 93t-22 243q12 102 46 200.5t75.5 166t84.5 108.5t74 41q18 0 35 -23.5t10 -62.5
q41 -12 58 -67t11 -129.5t-18.5 -141.5t-29.5 -121zM309 326q48 132 41 264q-4 87 -31 91q-7 1 -16 -7q-18 -18 -32.5 -82t-7 -143.5t45.5 -122.5z" />
    <glyph glyph-name="oacute" unicode="&#xf3;" horiz-adv-x="509" 
d="M553 1087q-4 -41 -80 -128t-117 -115q-22 -13 -10 22q10 28 84 166q15 27 16 33q-2 14 34 39q48 33 67 15q9 -9 6 -32zM252 680q-45 -38 -81 -170.5t-33.5 -248t52.5 -107.5q30 4 52 35t51 100q-47 42 -65 115.5t-10 145.5t34 130zM334 307q22 -9 42.5 -10.5t37 1.5
t33.5 15t29 21.5t26 29.5t21 32t19 36t15.5 32.5t13.5 31.5q5 11 17 7.5t8 -16.5q-9 -32 -25 -66t-41 -70t-55.5 -58.5t-69 -32t-81.5 9.5q-28 -113 -92 -195t-119 -75q-62 5 -103 93t-22 243q12 102 46 200.5t75.5 166t84.5 108.5t74 41q18 0 35 -23.5t10 -62.5
q41 -12 58 -67t11 -129.5t-18.5 -141.5t-29.5 -121zM309 326q48 132 41 264q-4 87 -31 91q-7 1 -16 -7q-18 -18 -32.5 -82t-7 -143.5t45.5 -122.5z" />
    <glyph glyph-name="ocircumflex" unicode="&#xf4;" horiz-adv-x="509" 
d="M80 889q4 38 72 102.5t122 102.5h5q3 3 4 2q2 2 6 -2h2q55 -39 123.5 -103t72.5 -102q6 -40 -24 -38q-32 2 -67 35q-17 16 -15 23q-2 5 -43.5 63t-54.5 91q-13 -32 -54.5 -89.5t-42.5 -64.5q2 -12 -32 -36q-49 -35 -68 -17q-9 9 -6 33zM252 680q-45 -38 -81 -170.5
t-33.5 -248t52.5 -107.5q30 4 52 35t51 100q-47 42 -65 115.5t-10 145.5t34 130zM334 307q22 -9 42.5 -10.5t37 1.5t33.5 15t29 21.5t26 29.5t21 32t19 36t15.5 32.5t13.5 31.5q5 11 17 7.5t8 -16.5q-9 -32 -25 -66t-41 -70t-55.5 -58.5t-69 -32t-81.5 9.5
q-28 -113 -92 -195t-119 -75q-62 5 -103 93t-22 243q12 102 46 200.5t75.5 166t84.5 108.5t74 41q18 0 35 -23.5t10 -62.5q41 -12 58 -67t11 -129.5t-18.5 -141.5t-29.5 -121zM309 326q48 132 41 264q-4 87 -31 91q-7 1 -16 -7q-18 -18 -32.5 -82t-7 -143.5t45.5 -122.5z
" />
    <glyph glyph-name="otilde" unicode="&#xf5;" horiz-adv-x="509" 
d="M16 909q59 62 111 90.5t92.5 27.5t78 -15.5t75 -32.5t74.5 -29.5t85.5 -1t100.5 48.5q2 1 5.5 6.5t8.5 4.5q5 0 9 -5.5t1 -9.5q-58 -62 -108 -88.5t-89 -23t-75 19.5t-73 35t-75.5 29.5t-90 -3.5t-109.5 -59q-4 -16 -17 -19q-11 -3 -10 8q0 7 6 17zM252 680
q-45 -38 -81 -170.5t-33.5 -248t52.5 -107.5q30 4 52 35t51 100q-47 42 -65 115.5t-10 145.5t34 130zM334 307q22 -9 42.5 -10.5t37 1.5t33.5 15t29 21.5t26 29.5t21 32t19 36t15.5 32.5t13.5 31.5q5 11 17 7.5t8 -16.5q-9 -32 -25 -66t-41 -70t-55.5 -58.5t-69 -32
t-81.5 9.5q-28 -113 -92 -195t-119 -75q-62 5 -103 93t-22 243q12 102 46 200.5t75.5 166t84.5 108.5t74 41q18 0 35 -23.5t10 -62.5q41 -12 58 -67t11 -129.5t-18.5 -141.5t-29.5 -121zM309 326q48 132 41 264q-4 87 -31 91q-7 1 -16 -7q-18 -18 -32.5 -82t-7 -143.5
t45.5 -122.5z" />
    <glyph glyph-name="odieresis" unicode="&#xf6;" horiz-adv-x="509" 
d="M199 993l-17 -92q-15 -46 -40 -62t-47 -5.5t-38 37.5t-16 59l18 102q12 35 38 52t50.5 13t41 -32t10.5 -72zM506 993l-17 -92q-15 -46 -40 -62t-47 -5.5t-38 37.5t-16 59l19 102q12 35 38 52t50 13t40.5 -32t10.5 -72zM252 680q-45 -38 -81 -170.5t-33.5 -248
t52.5 -107.5q30 4 52 35t51 100q-47 42 -65 115.5t-10 145.5t34 130zM334 307q22 -9 42.5 -10.5t37 1.5t33.5 15t29 21.5t26 29.5t21 32t19 36t15.5 32.5t13.5 31.5q5 11 17 7.5t8 -16.5q-9 -32 -25 -66t-41 -70t-55.5 -58.5t-69 -32t-81.5 9.5q-28 -113 -92 -195t-119 -75
q-62 5 -103 93t-22 243q12 102 46 200.5t75.5 166t84.5 108.5t74 41q18 0 35 -23.5t10 -62.5q41 -12 58 -67t11 -129.5t-18.5 -141.5t-29.5 -121zM309 326q48 132 41 264q-4 87 -31 91q-7 1 -16 -7q-18 -18 -32.5 -82t-7 -143.5t45.5 -122.5z" />
    <glyph glyph-name="divide" unicode="&#xf7;" horiz-adv-x="811" 
d="M76 573l655 -2q42 -5 52.5 -38.5t-5 -69t-41.5 -47.5h-661q-32 3 -47.5 38.5t-3 73t50.5 45.5zM326 152l-17 -93q-15 -46 -40 -62t-47 -5.5t-38 37.5t-16 59l18 102q12 35 38 52t50.5 13t41 -31.5t10.5 -71.5zM557 913l-16 -92q-15 -46 -40 -62t-47 -5.5t-38.5 37.5
t-16.5 59l19 102q12 35 38 52t50 13t40.5 -32t10.5 -72z" />
    <glyph glyph-name="oslash" unicode="&#xf8;" horiz-adv-x="509" 
d="M334 307q22 -9 42.5 -10.5t37 1.5t33.5 15t29 21.5t26 29.5t21 32t19 36t15.5 32.5t13.5 31.5q5 11 17 7.5t8 -16.5q-9 -32 -25 -66t-41 -70t-55.5 -58.5t-69 -32t-81.5 9.5q-24 -101 -79 -178.5t-108 -89.5l-57 -145h-117l74 188q-71 89 -49 291q12 102 46 200.5
t75.5 166t84.5 108.5t74 41q18 0 35 -23.5t10 -62.5l9 -4l88 223h127l-156 -381q3 -141 -47 -297zM252 680q-44 -36 -77 -153.5t-38 -227.5l78 197q0 102 37 184zM293 289q-13 10 -27 28l-65 -161q19 5 35 24.5t26 40t31 68.5zM309 326q27 78 39 194l-63 -158q9 -21 24 -36z
" />
    <glyph glyph-name="ugrave" unicode="&#xf9;" horiz-adv-x="645" 
d="M147 1049q-6 40 25 37q32 -3 67 -36q16 -16 15 -24q0 -2 57 -108q62 -118 40 -117q-3 1 -9 4q-41 27 -116 115t-79 129zM195 662q-4 -23 -18 -87t-26 -124.5t-21 -124.5t-3.5 -109t27.5 -57q26 -13 65.5 13t69.5 81q3 51 8.5 96t15.5 93t16.5 76t22 86t21.5 81
q5 1 53.5 23t67.5 28l7 3.5t6.5 3t6 1t4.5 -2t1.5 -6.5t-1.5 -13q-4 -24 -21 -92.5t-33 -137t-28 -140.5t-8 -125t29 -68q29 -20 74.5 23.5t80.5 102.5t54 107q7 12 18 7t6 -17q-19 -71 -94.5 -195t-130.5 -163q-78 -52 -133 2t-47 170q-60 -143 -143 -184q-70 -35 -117 23
q-65 83 -37 291q5 35 12 72q41 225 41 240q0 6 -8 15t-11 13t7 11l127 57q37 18 44.5 5.5t-5.5 -78.5z" />
    <glyph glyph-name="uacute" unicode="&#xfa;" horiz-adv-x="645" 
d="M508 1049q-4 -41 -80.5 -129t-116.5 -113q-22 -12 -10 23q10 27 82 160q16 32 18 38q-2 12 34 37q50 36 68 16q8 -9 5 -32zM195 662q-4 -23 -18 -87t-26 -124.5t-21 -124.5t-3.5 -109t27.5 -57q26 -13 65.5 13t69.5 81q3 51 8.5 96t15.5 93t16.5 76t22 86t21.5 81
q5 1 53.5 23t67.5 28l7 3.5t6.5 3t6 1t4.5 -2t1.5 -6.5t-1.5 -13q-4 -24 -21 -92.5t-33 -137t-28 -140.5t-8 -125t29 -68q29 -20 74.5 23.5t80.5 102.5t54 107q7 12 18 7t6 -17q-19 -71 -94.5 -195t-130.5 -163q-78 -52 -133 2t-47 170q-60 -143 -143 -184q-70 -35 -117 23
q-65 83 -37 291q5 35 12 72q41 225 41 240q0 6 -8 15t-11 13t7 11l127 57q37 18 44.5 5.5t-5.5 -78.5z" />
    <glyph glyph-name="ucircumflex" unicode="&#xfb;" horiz-adv-x="645" 
d="M31 885q7 56 108 151t172 142q0 2 4 2q5 4 7 2q3 3 8 -2q2 0 4 -2q71 -47 172 -142t108 -151q7 -57 -35 -55q-41 3 -91 46q-28 26 -27 39q-2 9 -61 91t-78 129q-19 -46 -77.5 -128.5t-60.5 -91.5q3 -17 -41 -49q-59 -45 -92 -34q-26 8 -20 53zM195 662q-4 -23 -18 -87
t-26 -124.5t-21 -124.5t-3.5 -109t27.5 -57q26 -13 65.5 13t69.5 81q3 51 8.5 96t15.5 93t16.5 76t22 86t21.5 81q5 1 53.5 23t67.5 28l7 3.5t6.5 3t6 1t4.5 -2t1.5 -6.5t-1.5 -13q-4 -24 -21 -92.5t-33 -137t-28 -140.5t-8 -125t29 -68q29 -20 74.5 23.5t80.5 102.5t54 107
q7 12 18 7t6 -17q-19 -71 -94.5 -195t-130.5 -163q-78 -52 -133 2t-47 170q-60 -143 -143 -184q-70 -35 -117 23q-65 83 -37 291q5 35 12 72q41 225 41 240q0 6 -8 15t-11 13t7 11l127 57q37 18 44.5 5.5t-5.5 -78.5z" />
    <glyph glyph-name="udieresis" unicode="&#xfc;" horiz-adv-x="645" 
d="M240 979l-17 -92q-15 -46 -40 -62.5t-47 -5.5t-38 37.5t-16 58.5l18 103q12 35 38 52t50.5 13t41 -32t10.5 -72zM547 979l-17 -92q-15 -46 -40 -62.5t-47 -5.5t-38 37.5t-16 58.5l19 103q12 35 38 52t50 13t40.5 -32t10.5 -72zM195 662q-4 -23 -18 -87t-26 -124.5
t-21 -124.5t-3.5 -109t27.5 -57q26 -13 65.5 13t69.5 81q3 51 8.5 96t15.5 93t16.5 76t22 86t21.5 81q5 1 53.5 23t67.5 28l7 3.5t6.5 3t6 1t4.5 -2t1.5 -6.5t-1.5 -13q-4 -24 -21 -92.5t-33 -137t-28 -140.5t-8 -125t29 -68q29 -20 74.5 23.5t80.5 102.5t54 107q7 12 18 7
t6 -17q-19 -71 -94.5 -195t-130.5 -163q-78 -52 -133 2t-47 170q-60 -143 -143 -184q-70 -35 -117 23q-65 83 -37 291q5 35 12 72q41 225 41 240q0 6 -8 15t-11 13t7 11l127 57q37 18 44.5 5.5t-5.5 -78.5z" />
    <glyph glyph-name="yacute" unicode="&#xfd;" horiz-adv-x="632" 
d="M496 1053q-4 -41 -80.5 -129t-116.5 -113q-22 -12 -10 23q10 27 82 160q16 32 18 38q-2 12 34 37q50 36 68 16q8 -9 5 -32zM211 -78q-120 -97 -198 -226t-101 -267q-10 -56 23 -70q35 -14 77 30q12 12 23 29q58 90 104 236.5t72 267.5zM188 668q-3 -22 -18.5 -90
t-28.5 -133t-22.5 -134.5t-5 -118.5t27.5 -61q28 -12 69 25t71 98l4 4q64 292 71 387q0 9 -6.5 15t-12 9t-2 8t20.5 13q75 37 144 62q15 6 17 -16q1 -18 -11 -87l-123 -559q94 60 160.5 127.5t115.5 179.5q5 9 15.5 7.5t9.5 -17.5q-14 -35 -28.5 -66t-33.5 -58t-31.5 -46
t-36 -41.5t-33.5 -33t-38.5 -30.5t-34.5 -24.5t-39 -25.5t-36 -23q-37 -180 -88 -340q-67 -192 -118 -282q-102 -176 -222 -171q-99 11 -68 189q24 151 114 291.5t226 246.5q8 28 23.5 96t21.5 95q-61 -122 -137 -149q-69 -24 -112 45q-63 103 -21 339q43 237 43 246
q0 7 -11 15.5t-8 16t31 19.5l103 45q37 17 44 5t-6 -78z" />
    <glyph glyph-name="thorn" unicode="&#xfe;" horiz-adv-x="376" 
d="M158 680q10 21 25 37.5t32.5 23.5t32.5 1.5t26.5 -35t14.5 -80.5q4 -72 -8.5 -159.5t-36.5 -154.5q25 -11 49 -11t43.5 9t38.5 25.5t33 35t28 42.5t23 42.5t18 39.5q5 11 17 7.5t8 -16.5q-9 -32 -25 -66t-41 -70t-56 -58.5t-69.5 -32t-81.5 9.5q-28 -113 -92 -195
t-119 -75q-6 0 -22 4l-82 -493l-147 2q144 939 215.5 1284.5t152.5 513.5q71 156 145 198q56 32 81 -24q38 -84 -27 -297q-8 -26 -17 -53q-65 -185 -138.5 -370.5t-106.5 -248.5l-13 -47q-9 -57 -12.5 -112t-0.5 -102t15.5 -75t34.5 -26q30 4 52 35t51 100q-47 42 -65 115.5
t-10 145.5t34 130zM80 606q43 82 209 537q67 189 52 242q-9 31 -41 -14q-65 -90 -127 -335q-6 -22 -11 -45q-10 -43 -22 -99.5t-29.5 -141t-30.5 -144.5zM213 334q32 119 33 237q1 96 -28 90q-2 -1 -5 -2q-18 -8 -32.5 -74.5t-8.5 -144t41 -106.5z" />
    <glyph glyph-name="ydieresis" unicode="&#xff;" horiz-adv-x="632" 
d="M244 991l-17 -92q-15 -46 -40 -62t-47 -5.5t-38 37.5t-16 59l18 102q12 35 38 52t50.5 13t41 -32t10.5 -72zM551 991l-16 -92q-15 -46 -40 -62t-47 -5.5t-38.5 37.5t-16.5 59l19 102q12 35 38 52t50 13t40.5 -32t10.5 -72zM211 -78q-120 -97 -198 -226t-101 -267
q-10 -56 23 -70q35 -14 77 30q12 12 23 29q58 90 104 236.5t72 267.5zM188 668q-3 -22 -18.5 -90t-28.5 -133t-22.5 -134.5t-5 -118.5t27.5 -61q28 -12 69 25t71 98l4 4q64 292 71 387q0 9 -6.5 15t-12 9t-2 8t20.5 13q75 37 144 62q15 6 17 -16q1 -18 -11 -87l-123 -559
q94 60 160.5 127.5t115.5 179.5q5 9 15.5 7.5t9.5 -17.5q-14 -35 -28.5 -66t-33.5 -58t-31.5 -46t-36 -41.5t-33.5 -33t-38.5 -30.5t-34.5 -24.5t-39 -25.5t-36 -23q-37 -180 -88 -340q-67 -192 -118 -282q-102 -176 -222 -171q-99 11 -68 189q24 151 114 291.5t226 246.5
q8 28 23.5 96t21.5 95q-61 -122 -137 -149q-69 -24 -112 45q-63 103 -21 339q43 237 43 246q0 7 -11 15.5t-8 16t31 19.5l103 45q37 17 44 5t-6 -78z" />
    <glyph glyph-name="Abreve" unicode="&#x102;" horiz-adv-x="1144" 
d="M877 1624q-31 -80 26 -125q45 -37 108 -25q68 13 90 76q10 29 7 66q-3 21 20 28t47.5 1.5t26.5 -15.5q26 -104 -67 -160q-79 -48 -188 -36t-153 75q-35 51 -12 121q5 13 28.5 21t45 2t21.5 -29zM1022 1212q-3 -14 -20.5 -101.5t-30.5 -143.5q50 56 77 110.5t30 96t-10 74
t-40 50t-63 19.5q-46 2 -91 -25.5t-81.5 -72t-72 -108.5t-62.5 -126.5t-53 -135.5t-42.5 -126t-32.5 -107q-7 -24 -10 -34h234q30 187 71 370t64 250l121 41q16 4 17 -1.5t-5 -29.5zM748 545h-238q-32 -112 -47 -156q-91 -319 -226 -438q-91 -80 -167 -40q-73 39 -90 169
q-9 68 0 149q4 18 21 15t15 -21q-3 -121 63 -170q61 -47 141 -1q109 61 179 251q17 46 31 98l41 144h-65q-19 0 -19 18q0 19 19 19h77q7 22 29.5 95t38.5 125t46 134t57 140.5t65.5 124t76.5 105.5t85.5 65t97.5 20q45 -5 79 -34.5t48 -79t7.5 -109t-46.5 -131.5t-111 -140
q-172 -754 -38 -862q21 -16 52.5 13t65.5 89.5t62.5 118.5t56 120t33.5 73q8 17 19 9.5t3 -24.5q-4 -8 -20 -51t-34.5 -86.5t-45.5 -102t-58 -108t-66.5 -93.5t-78 -69.5t-84.5 -25.5q-48 0 -74.5 53.5t-31 148.5t3 204.5t27.5 240.5z" />
    <glyph glyph-name="abreve" unicode="&#x103;" 
d="M254 1001q-31 -80 26 -125q45 -37 108 -25q68 13 90 76q10 29 7 66q-3 21 20 28t48 2t27 -15q26 -104 -67 -160q-79 -48 -188 -36t-153 75q-35 51 -12 121q5 13 28 20.5t44.5 1.5t21.5 -29zM326 543l34 145q14 9 70.5 33t63.5 29q5 1 7 -4t1 -16t-4 -25.5t-8 -35.5
t-10 -41.5t-11 -47.5t-10 -50t-17 -87t-17.5 -93.5t-9.5 -73.5t0.5 -69.5t18.5 -38.5q16 -14 35.5 -10.5t41.5 23t43 46t40.5 58t33.5 58.5t23 48q6 13 18.5 9.5t6.5 -19.5q-101 -225 -187 -318q-66 -69 -127 -61q-45 4 -67.5 59.5t-22.5 139.5q-40 -94 -91.5 -146.5
t-100.5 -54.5q-46 0 -75.5 50.5t-35 148t24.5 241.5q38 186 125 268q67 64 126 27q66 -42 81 -192zM311 494q-18 102 -61 120q-47 21 -93 -83q-20 -47 -38 -115q-24 -94 -18.5 -166.5t36.5 -89.5q29 -17 68.5 10.5t68.5 87.5q9 125 37 236z" />
    <glyph glyph-name="Dcroat" unicode="&#x110;" horiz-adv-x="1310" 
d="M633 676h280q37 -2 53 -23t12 -46t-20 -48.5t-38 -30.5h-320l-53 -231q-43 -191 -130.5 -295.5t-219.5 -103.5q-56 0 -98.5 22t-66 55.5t-37.5 78.5t-18 85t-2 80q1 7 10 10.5t17.5 0.5t7.5 -11q-7 -99 50 -172q55 -71 129 -62q98 12 170 170q36 77 61 185l43 188h-213
q-38 3 -56 37t-2.5 69.5t58.5 43.5l246 -2l41 178q-58 54 -75.5 117.5t1.5 121.5t61 113t98.5 95t119 64t116.5 24q178 1 264 -204q81 -193 57 -495q-23 -291 -129 -512q-102 -215 -241 -260q-49 -16 -100 -8q-67 11 -121 59.5t-64 110.5l-2 59q3 19 21 19q16 0 16 -21
l2 -51q7 -52 50.5 -76.5t99.5 -13.5q36 8 77 31q78 50 144 200.5t95.5 333.5t28.5 357t-59.5 290t-165.5 113q-61 -2 -125.5 -29t-114.5 -72t-80 -99t-23 -117t57 -117l69 299l101 37q35 11 38 7.5t-5 -36.5l-82 -377z" />
    <glyph glyph-name="dcroat" unicode="&#x111;" horiz-adv-x="641" 
d="M428 248q-3 -59 18 -80q25 -20 56 -3t64.5 61.5t58.5 88.5t39 78q6 12 18 8t6 -20q-102 -227 -186 -318q-66 -69 -127 -61q-45 4 -67.5 59.5t-22.5 139.5q-40 -94 -92 -146.5t-101 -54.5q-46 0 -75.5 50.5t-35 148t24.5 241.5q39 188 126 268q67 63 125 25
q61 -39 79 -176q48 238 82 367h-135q-36 2 -52.5 25t-2.5 47t55 30l161 -2q45 166 103 287q73 158 147 199q55 30 79 -26q37 -87 -31 -305q-7 -21 -15 -44l-39 -111h72q33 -1 48 -15t12 -30.5t-18 -32.5t-36 -22h-117q-114 -305 -168 -408q-1 -2 -1 -5q-2 -7 -2 -10
q-5 -31 -50 -253zM324 494q-18 101 -61 120q-47 21 -93 -81q-21 -47 -39 -117q-24 -94 -18 -166t37 -90q29 -17 68.5 10.5t68.5 87.5q9 125 37 236zM700 1143q67 184 52 239q-9 31 -41 -11q-63 -82 -125 -316q-4 -15 -8 -31h79zM489 604q39 69 132 320h-66
q-37 -201 -66 -320z" />
    <glyph glyph-name="Itilde" unicode="&#x128;" horiz-adv-x="755" 
d="M780 1356l-233 -1059q-43 -191 -130.5 -295.5t-219.5 -103.5q-56 0 -98.5 22t-66 55.5t-37.5 78.5t-18 85t-2 80q1 7 10 10.5t17.5 0.5t7.5 -11q-7 -99 50 -172q55 -71 129 -62q98 12 170 170q36 77 61 185l110 481q-64 124 -84 217q-8 37 -8 69.5t6 58t19.5 48.5
t29 40.5t38.5 33.5t45.5 28t51.5 24t54 20.5t56 19.5q8 3 12 4q35 11 37 8t-7 -36zM543 877q76 332 94 419v9q-110 -46 -144.5 -111t-0.5 -186q30 -91 51 -131zM387 1460q59 62 111 90.5t92.5 27.5t78 -15.5t75 -32.5t74.5 -29.5t85.5 -1t100.5 48.5q2 1 5.5 6.5t8.5 4.5
q5 0 9 -5.5t1 -9.5q-58 -62 -108 -88.5t-89 -23t-75 19.5t-73 35t-75.5 29.5t-90 -3.5t-109.5 -59q-4 -16 -17 -19q-11 -3 -10 8q0 7 6 17z" />
    <glyph glyph-name="itilde" unicode="&#x129;" horiz-adv-x="335" 
d="M39 817q35 19 61.5 0.5t32.5 -65.5q3 -18 0 -37l41 18q46 21 51 5t-12 -72q-63 -232 -70 -297q-6 -49 -7.5 -68t-3.5 -56.5t4 -57t18 -27.5q23 -15 57.5 9.5t67 70.5t57 87t37.5 68q5 8 12 9t10 -3.5t0 -13.5q-34 -113 -172 -303q-38 -48 -82.5 -68t-80.5 -10t-58 59
t-16 130q2 15 7.5 73.5t10.5 87.5q18 120 43 234q-25 -5 -44.5 15.5t-25.5 58.5q-7 43 11.5 87.5t50.5 65.5zM-143 874q59 62 111 90.5t92.5 27.5t78 -15t74.5 -32.5t74.5 -29.5t85.5 -0.5t100 48.5q1 1 5 6t9 4q5 0 9.5 -5.5t1.5 -9.5q-58 -62 -108 -88.5t-89 -23
t-75.5 19.5t-73.5 35t-75.5 29.5t-90 -3.5t-109.5 -59q-4 -17 -18 -19q-8 -2 -8 8q1 7 6 17z" />
    <glyph glyph-name="dotlessi" unicode="&#x131;" horiz-adv-x="335" 
d="M39 817q35 19 61.5 0.5t32.5 -65.5q3 -18 0 -37l41 18q46 21 51 5t-12 -72q-63 -232 -70 -297q-6 -49 -7.5 -68t-3.5 -56.5t4 -57t18 -27.5q23 -15 57.5 9.5t67 70.5t57 87t37.5 68q5 8 12 9t10 -3.5t0 -13.5q-34 -113 -172 -303q-38 -48 -82.5 -68t-80.5 -10t-58 59
t-16 130q2 15 7.5 73.5t10.5 87.5q18 120 43 234q-25 -5 -44.5 15.5t-25.5 58.5q-7 43 11.5 87.5t50.5 65.5z" />
    <glyph glyph-name="Lslash" unicode="&#x141;" horiz-adv-x="995" 
d="M610 567l-59 -270q-9 -48 -39 -139q32 -16 80 -42.5t76.5 -42.5t70 -30.5t73.5 -14t73 15t82 48.5q10 16 24 8q15 -12 6 -26q-28 -43 -56 -73.5t-57 -45.5t-55.5 -22t-58.5 -1t-59.5 16t-64.5 31t-67.5 41t-74.5 49q-8 6 -13.5 9.5t-11.5 7.5q-99 -191 -278 -188
q-111 0 -178 88q-57 75 -46 160q10 88 90 121q115 49 322 -50q22 60 35 123q36 164 39 174l-264 -98q-35 -11 -63 15.5t-28 66.5t37 61l359 131q8 28 18 72.5t13 58.5q-64 124 -84 217q-17 81 -2 139t70.5 97.5t96 57.5t127.5 48q7 3 11 4q35 11 37 8t-7 -36l-135 -613
l170 64q43 13 66 -14.5t20 -66t-26 -58.5zM145 -12q58 -19 117 22.5t107 153.5q-158 103 -258 70q-60 -20 -70 -80q-11 -66 46 -124q24 -25 58 -42zM547 877q76 332 94 419q0 7 2 9q-75 -31 -113 -66.5t-49 -93t15 -137.5q30 -91 51 -131z" />
    <glyph glyph-name="lslash" unicode="&#x142;" horiz-adv-x="327" 
d="M397 1133q-97 -280 -225 -580l221 123q44 19 61.5 2t12.5 -52t-27 -57l-313 -174q-9 -48 -13 -89t-2.5 -77.5t15.5 -56.5t39 -16q72 12 182 233q4 8 11 9t11.5 -5.5t0.5 -17.5q-99 -248 -212 -338q-85 -67 -137 -14q-63 64 -47 264q2 6 2 24l-192 -106q-32 -16 -57 -0.5
t-23.5 49t37.5 61.5l254 140q36 233 97.5 481t123.5 371q75 156 149 197q56 31 79 -25q36 -87 -35 -307q-6 -19 -13 -39zM160 602q15 27 33.5 68.5t45 111t40.5 107t49.5 135t42.5 117.5q67 184 52 239q-8 31 -40 -11q-63 -83 -124 -315q-9 -33 -17 -67
q-10 -42 -35.5 -168.5t-46.5 -216.5z" />
    <glyph glyph-name="OE" unicode="&#x152;" horiz-adv-x="1292" 
d="M1366 446q-290 -548 -532 -548q-209 0 -252 178q-61 -87 -131.5 -130t-169.5 -50q-134 -11 -199.5 91.5t-65.5 282.5q-109 -7 -179 39.5t-109 149.5q-3 17 14 20t20 -14q36 -89 96.5 -127t157.5 -31q4 112 30.5 238.5t70 248t104.5 231.5t129 191t149 125.5t160 36.5
q78 -8 117.5 -73t14.5 -170q20 -14 36 -37q66 114 167 192.5t218 89.5q60 5 99 -26t47.5 -105t-41.5 -194q-3 -13 -16.5 -18.5t-24.5 1.5t-8 23q43 103 37.5 159.5t-33.5 77t-64 7.5q-133 -40 -234 -190q-84 -125 -99 -245q-13 -108 44 -130q19 -8 46 -3q112 57 139 64
q10 0 20 -14q24 -33 -57 -62q-32 -11 -76 -20q-171 -107 -247 -282q-62 -144 -32 -263q26 -102 110 -127q102 -29 249 71q38 25 74 61.5t68.5 83.5t51 76t46.5 79.5t30 54.5q6 17 18 7q12 -9 7 -20zM266 51q48 -37 102.5 -29.5t105 44.5t101.5 102q5 143 93 293t217 223
q-113 -37 -143 55q-29 88 28 240q16 42 37 82q-11 16 -31 33q-48 -146 -137.5 -299t-217 -287.5t-257.5 -194.5q10 -195 102 -262zM655 1303q-108 -20 -223 -178t-189.5 -373t-78.5 -398q110 55 236 192.5t219 294t120 273.5q-75 22 -157 -110q-10 -16 -25 -7t-6 25
q27 42 51.5 70.5t64 50t78.5 10.5q19 75 -11.5 117.5t-78.5 32.5z" />
    <glyph glyph-name="oe" unicode="&#x153;" horiz-adv-x="684" 
d="M391 190q8 -46 33 -64.5t64.5 -4t86.5 62.5q54 59 132 203q6 11 14 4.5t2 -22.5q-49 -135 -125 -234q-46 -62 -102.5 -97.5t-104.5 -37.5q-102 0 -139 129q-36 -63 -77 -98t-77 -31q-62 5 -103 93t-22 243q12 102 46.5 200.5t76 166t84.5 108.5t74 41q18 0 35 -23.5
t10 -62.5q47 -14 61 -94q67 85 136 69q59 -14 87 -67.5t21.5 -124.5t-32.5 -143.5t-75.5 -132t-105.5 -83.5zM238 680q-45 -38 -81 -170.5t-33.5 -248t52.5 -107.5q37 3 64 55q-6 107 24 233q16 77 41 136q-1 65 -18 89t-49 13zM508 614q-41 -15 -77 -89.5t-48 -164.5
q0 -7 -2.5 -39t-3 -52t3.5 -44q97 46 152 173q43 101 31 173q-9 57 -51 45q-2 -1 -5 -2z" />
    <glyph glyph-name="Scaron" unicode="&#x160;" horiz-adv-x="837" 
d="M547 1731q-7 56 34 54q40 -2 91 -45q31 -27 28 -40q2 -10 61 -91.5t77 -127.5q19 46 78 127.5t61 91.5q-3 17 41 50q59 44 92 34q26 -8 20 -53q-3 -31 -38.5 -77t-84 -89.5t-89.5 -76t-68 -50.5q-2 -2 -4 -2q-5 -5 -8 -2q-2 -2 -7 2q-4 0 -4 2q-27 18 -68 50.5t-89.5 76
t-84 89.5t-38.5 77zM879 899q58 97 67 215q11 121 -59 187q-59 56 -135 38q-86 -19 -133 -124q-86 -192 11 -554q3 -13 7 -26q86 -315 -39 -525q-81 -136 -226 -188q-132 -48 -245 -2q-112 45 -143 161q-10 41 -9 87q4 139 84.5 256.5t208.5 171.5q20 10 23 -10
q6 -19 -10 -25q-104 -43 -172.5 -141t-69.5 -221q-3 -130 84 -194q75 -56 173 -31q108 27 171 137q102 180 23 486q-1 2 -1 3q-93 375 19 604q66 136 184 181q105 40 193 -8q92 -51 107 -170q6 -46 -1 -97q-22 -130 -82 -231q-10 -13 -26 -7q-16 12 -4 27z" />
    <glyph glyph-name="scaron" unicode="&#x161;" horiz-adv-x="452" 
d="M-66 1274q-7 57 35 54q41 -2 91 -46q29 -26 28 -39q2 -10 60.5 -91.5t76.5 -127.5q19 46 78.5 127.5t61.5 91.5q-3 17 41 50q59 44 92 34q26 -8 20 -53q-3 -31 -38.5 -77t-84 -89.5t-89.5 -76t-68 -50.5q-2 -2 -5 -2q-5 -5 -8 -2q-2 -2 -6 2q-4 0 -4 2q-27 18 -68 50.5
t-90 76t-84.5 89.5t-38.5 77zM4 350l115 266q-57 125 -3 233q31 61 76 80q43 19 58 -17q20 -48 -29 -162q1 -4 27 -76t40.5 -114.5t31.5 -106.5t20 -103q6 -96 -14 -164q99 85 151 213q5 8 17 5.5t8 -17.5q-60 -151 -174 -269t-193 -118h-8q-79 -5 -115.5 54.5t-24.5 134.5
t56 116q8 8 18 5t13 -11t-4 -16q-47 -66 -33.5 -107t74.5 -24q50 14 72 62t16.5 113t-22 129.5t-42.5 123.5q-59 -151 -108 -244q-5 -14 -18 -14q-15 0 -5 28zM203 784z" />
    <glyph glyph-name="Utilde" unicode="&#x168;" horiz-adv-x="876" 
d="M166 33q25 -10 62.5 16.5t80 79t79 105.5t73.5 114q11 103 33 217q27 149 92.5 413t87.5 372l119 43q17 4 18.5 -2.5t-4.5 -30.5q-20 -92 -56 -250.5t-64.5 -291t-49.5 -253.5q-35 -185 -33.5 -338.5t49.5 -191.5q21 -16 52 13t65.5 89.5t62 117t56 120.5t33.5 74
q7 11 15 11.5t10.5 -7.5t-1.5 -19q-4 -8 -20 -51t-34.5 -86.5t-45.5 -102t-58 -108t-66.5 -93.5t-78 -69.5t-84.5 -25.5q-134 0 -106 360q-102 -154 -181.5 -242t-128 -108t-80.5 2t-44 77t-13 128.5t6.5 145.5t20.5 138q31 164 101 457t102 440q3 17 0 25.5t-6 12t0 6
t18 8.5l102 36q34 12 37 8.5t-6 -34.5l-186 -850q-104 -452 -29 -475zM279 1464q59 62 111 90.5t92.5 27.5t78 -15.5t74.5 -32.5t74.5 -29.5t85.5 -1t100 48.5q2 1 5.5 6.5t8.5 4.5q5 0 9.5 -5.5t1.5 -9.5q-58 -62 -108 -88.5t-89 -23t-75.5 19.5t-73.5 35t-75.5 29.5
t-90 -3.5t-109.5 -59q-4 -17 -18 -19q-8 -2 -8 8q1 7 6 17z" />
    <glyph glyph-name="utilde" unicode="&#x169;" horiz-adv-x="645" 
d="M195 662q-4 -23 -18 -87t-26 -124.5t-21 -124.5t-3.5 -109t27.5 -57q26 -13 65.5 13t69.5 81q3 51 8.5 96t15.5 93t16.5 76t22 86t21.5 81q5 1 53.5 23t67.5 28l7 3.5t6.5 3t6 1t4.5 -2t1.5 -6.5t-1.5 -13q-4 -24 -21 -92.5t-33 -137t-28 -140.5t-8 -125t29 -68
q29 -20 74.5 23.5t80.5 102.5t54 107q7 12 18 7t6 -17q-19 -71 -94.5 -195t-130.5 -163q-78 -52 -133 2t-47 170q-60 -143 -143 -184q-70 -35 -117 23q-65 83 -37 291q5 35 12 72q41 225 41 240q0 6 -8 15t-11 13t7 11l127 57q37 18 44.5 5.5t-5.5 -78.5zM45 840
q59 62 111 90.5t92.5 27.5t78 -15.5t75 -32.5t74.5 -29.5t85.5 -1t100.5 48.5q1 1 5 6t9 4q5 0 9 -5t1 -9q-58 -62 -108 -88.5t-89 -23t-75 19.5t-73 35t-75.5 29.5t-90 -3.5t-109.5 -59q-4 -16 -17 -19q-11 -3 -10 8q0 7 6 17z" />
    <glyph glyph-name="Ydieresis" unicode="&#x178;" horiz-adv-x="829" 
d="M862 1331l-315 -1333q-89 -399 -350 -399q-69 0 -117 32t-70 84t-30 103t-5 104q1 5 10 8.5t17.5 1.5t7.5 -10q-7 -99 50 -173q55 -71 129 -62q99 11 171 170q35 77 60 184l108 463q-70 -101 -129 -170.5t-102 -106t-76.5 -48t-54.5 1.5t-34 44.5t-17 78t-1.5 106
t10.5 124t21 136.5q8 38 38.5 199.5t52.5 271t34 155.5q3 17 0 25.5t-6 12t0 6t19 8.5l102 36q34 12 36 8q1 -1 -5 -34l-123 -572q-2 -12 -14 -69.5t-23 -118t-19.5 -125.5t-2 -110t29.5 -52q26 -10 62.5 15.5t79.5 79.5t77 103.5t74 113.5l172 727l102 32q40 12 43 -0.5
t-12 -50.5zM616 1604l-16 -93q-15 -46 -40 -62t-47 -5.5t-38 37.5t-16 59l18 102q10 28 29 45.5t39 19t38 -7t28 -34t5 -61.5zM924 1604l-17 -93q-15 -46 -40 -62t-47 -5.5t-38 37.5t-16 59l18 102q12 35 38 52t50.5 13t41 -31.5t10.5 -71.5z" />
    <glyph glyph-name="Zcaron" unicode="&#x17d;" horiz-adv-x="915" 
d="M487 1726q-7 57 35 55q41 -3 91 -46q29 -26 28 -39q2 -10 60.5 -91.5t76.5 -127.5q19 46 78.5 127.5t61.5 91.5q-3 17 41 49q59 45 92 34q26 -8 20 -53q-5 -41 -65 -107t-117.5 -112t-97.5 -73q-2 -2 -5 -2q-5 -5 -8 -2q-2 -2 -6 2q-4 0 -4 2q-27 18 -68 50.5t-90 75.5
t-84.5 89t-38.5 77zM403 696zM262 1059q19 164 94 245t210.5 89.5t334.5 -41.5q37 -9 -9 -75q-7 -9 -30 -40l-305 -414q146 -28 189 -205q42 -177 -27 -424q-68 -244 -204 -410q-151 -187 -319 -181l-22 2q-45 4 -87.5 29.5t-75.5 73t-36 116t31 158.5q3 14 16.5 19.5
t24.5 -1.5t8 -23q-31 -77 -28 -135t29.5 -94.5t59.5 -53.5t62 -13q93 16 184 119t146.5 241.5t81.5 277.5t-7 243.5t-122 123.5q-134 -192 -226 -215q-54 -13 -70 37q-18 57 25 136q59 107 183 156q51 20 108 27l318 410q-17 -2 -65 4.5t-98 13.5t-109.5 3.5t-106.5 -20.5
t-81 -63.5t-40 -119.5q-1 -1 -5.5 -9t-6 -8h-8.5q-2 1 -7 4t-7 5t-4 5.5t1 6.5z" />
    <glyph glyph-name="zcaron" unicode="&#x17e;" horiz-adv-x="595" 
d="M92 1120q-7 57 35 55q41 -3 91 -46q29 -26 28 -39q2 -10 60.5 -92t76.5 -128q19 46 78 128t61 92q-3 17 42 50q59 44 92 33q26 -8 20 -53q-3 -31 -38.5 -77t-84.5 -89.5t-90 -76t-68 -50.5q-2 -2 -4 -2q-5 -5 -8 -2q-2 -2 -6 2q-4 0 -4 2q-27 18 -68 50.5t-90 76
t-84.5 89.5t-38.5 77zM188 -53q-82 -59 -138 -114.5t-81 -95.5t-34 -74t-5 -53t15 -30q18 -24 63.5 8t99 129.5t80.5 229.5zM6 354l125 342q5 14 20 13q11 0 7 -9l-11 -26q34 5 127 32t132 35q44 6 44 -16q-1 -17 -34 -70q-37 -71 -205 -340q33 4 59.5 -3.5t49 -32.5
t27.5 -72t-5 -121q97 62 162 128t114 179q5 9 17 7.5t8 -17.5q-14 -35 -28.5 -66t-33.5 -58t-31.5 -46t-36 -41.5t-33.5 -33t-38.5 -30.5t-34.5 -24.5t-39 -25.5t-36 -23q-33 -157 -82 -276t-101 -182t-100 -91.5t-90 -24.5q-57 7 -76 69q-26 87 39 203q81 145 273 261
q1 6 4 18q15 67 21 99.5t5.5 71t-14.5 59.5q-10 16 -35 16l-4 -6q-81 -150 -156 -186q-47 -22 -64 9q-19 35 21 94q45 70 148 124q95 123 125.5 165.5t89.5 133.5l-240 -72q-20 -56 -69 -182q-6 -11 -19 -8q-11 4 -2 24zM78 231z" />
    <glyph glyph-name="Ohorn" unicode="&#x1a0;" horiz-adv-x="1003" 
d="M983 1325q14 -129 -32.5 -180t-121.5 -29q51 -52 62 -162t-13.5 -241.5t-80.5 -273.5t-130.5 -259.5t-172.5 -196.5t-197 -87q-134 -11 -199 91.5t-65 282.5q-110 -7 -180.5 39.5t-108.5 149.5q-3 17 14 20q18 4 21 -14q36 -89 96.5 -127t157.5 -31q4 112 30.5 238.5
t70 248t104.5 231.5t129 191t149 125.5t160 36.5q57 -6 95 -44.5t44 -102.5q38 -16 68 -18t48 25t17 81q-1 9 7 13.5t17 3t11 -10.5zM283 51q119 -86 263 64q126 130 220 375q94 242 92 423q-1 139 -65 181q-35 -107 -97 -223.5t-141 -225t-178 -198t-197 -134.5
q10 -195 103 -262zM672 1303q-107 -20 -222.5 -178t-190.5 -373.5t-79 -397.5q110 55 236.5 192.5t219.5 294t120 273.5q-76 22 -158 -110q-10 -16 -25 -7t-6 25q102 156 195 131q19 75 -11.5 117.5t-78.5 32.5z" />
    <glyph glyph-name="ohorn" unicode="&#x1a1;" horiz-adv-x="509" 
d="M334 307q22 -9 42.5 -10.5t37 1.5t33.5 15t29 21.5t26 29.5t21 32t19 36t15.5 32.5t13.5 31.5q5 11 17 7.5t8 -16.5q-9 -32 -25 -66t-41 -70t-55.5 -58.5t-69 -32t-81.5 9.5q-28 -113 -92 -195t-119 -75q-62 5 -103 93t-22 243q12 102 46 200.5t75.5 166t84.5 108.5
t74 41q13 0 27 -13.5t18 -37.5q46 -26 80.5 -31.5t57 19.5t20.5 85q-2 14 15 17t20 -10q13 -117 -24.5 -170t-102.5 -45q11 -74 -5 -178.5t-40 -180.5zM252 680q-45 -38 -81 -170.5t-33.5 -248t52.5 -107.5q30 4 52 35t51 100q-47 42 -65 115.5t-10 145.5t34 130zM309 326
q48 132 41 264q-4 87 -31 91q-7 1 -16 -7q-18 -18 -32.5 -82t-7 -143.5t45.5 -122.5z" />
    <glyph glyph-name="Uhorn" unicode="&#x1af;" horiz-adv-x="876" 
d="M166 33q25 -10 62.5 16.5t80 79t79 105.5t73.5 114q11 103 33 217q27 149 92.5 413t87.5 372l119 43q17 4 18.5 -2.5t-4.5 -30.5q-3 -11 -7 -33t-7 -33q35 -12 61.5 -10.5t42 28t14.5 77.5q-1 9 7 13.5t17 3t11 -10.5q16 -139 -39 -187t-137 -14q-7 -33 -27.5 -121
t-30 -133t-25 -117t-27.5 -134t-23 -124q-35 -185 -33.5 -338.5t49.5 -191.5q21 -16 52 13t65.5 89.5t62 117t56 120.5t33.5 74q7 11 15 11.5t10.5 -7.5t-1.5 -19q-4 -8 -20 -51t-34.5 -86.5t-45.5 -102t-58 -108t-66.5 -93.5t-78 -69.5t-84.5 -25.5q-134 0 -106 360
q-102 -154 -181.5 -242t-128 -108t-80.5 2t-44 77t-13 128.5t6.5 145.5t20.5 138q31 164 101 457t102 440q3 17 0 25.5t-6 12t0 6t18 8.5l102 36q34 12 37 8.5t-6 -34.5l-186 -850q-104 -452 -29 -475z" />
    <glyph glyph-name="uhorn" unicode="&#x1b0;" horiz-adv-x="645" 
d="M195 662q-4 -23 -18 -87t-26 -124.5t-21 -124.5t-3.5 -109t27.5 -57q26 -13 65.5 13t69.5 81q3 51 8.5 96t15.5 93t16.5 76t22 86t21.5 81q5 1 53.5 23t67.5 28l7 3.5t6.5 3t6 1t4.5 -2t1.5 -6.5t-1.5 -13q-1 -11 -14 -68q35 -12 61.5 -11t42.5 28t15 78q-2 14 14.5 16.5
t19.5 -10.5q7 -59 0 -103t-24.5 -68.5t-42.5 -35.5t-53.5 -9t-59.5 15q-88 -354 -20 -395q29 -20 74.5 23.5t80.5 102.5t54 107q7 12 18 7t6 -17q-19 -71 -94.5 -195t-130.5 -163q-78 -52 -133 2t-47 170q-60 -143 -143 -184q-70 -35 -117 23q-65 83 -37 291q5 35 12 72
q41 225 41 240q0 6 -8 15t-11 13t7 11l127 57q37 18 44.5 5.5t-5.5 -78.5z" />
    <glyph glyph-name="circumflex" unicode="&#x2c6;" horiz-adv-x="741" 
d="M352 811q4 38 72.5 102t122.5 103h4q3 3 4 2q2 2 6 -2h2q56 -40 124.5 -103.5t72.5 -101.5q6 -41 -26 -38q-31 3 -66 35q-17 16 -15 23q-2 5 -43.5 63t-54.5 91q-13 -32 -53.5 -89.5t-42.5 -64.5q2 -12 -34 -37q-50 -35 -68 -15q-8 9 -5 32z" />
    <glyph glyph-name="caron" unicode="&#x2c7;" horiz-adv-x="1136" 
d="M276 1411q-7 57 35 54q41 -2 91 -46q29 -26 28 -39q2 -10 60.5 -91.5t76.5 -127.5q19 46 78.5 127.5t61.5 91.5q-3 17 41 50q59 44 92 34q26 -8 20 -53q-3 -31 -38.5 -77t-84 -89.5t-89.5 -76t-68 -50.5q-2 -2 -5 -2q-5 -5 -8 -2q-2 -2 -6 2q-4 0 -4 2q-27 18 -68 50.5
t-90 76t-84.5 89.5t-38.5 77z" />
    <glyph glyph-name="breve" unicode="&#x2d8;" horiz-adv-x="1044" 
d="M551 1001q-31 -80 26 -125q45 -37 108 -25q68 13 90 76q10 29 7 66q-3 21 20 28t48 2t27 -15q26 -104 -67 -160q-79 -48 -188 -36t-153 75q-35 51 -12 121q5 13 28 20.5t44.5 1.5t21.5 -29z" />
    <glyph glyph-name="dotaccent" unicode="&#x2d9;" horiz-adv-x="528" 
d="M334 913l-17 -92q-15 -46 -40 -62t-47 -5.5t-38 37.5t-16 59l19 102q12 35 38 52t50 13t40.5 -32t10.5 -72z" />
    <glyph glyph-name="ring" unicode="&#x2da;" horiz-adv-x="665" 
d="M219 1188q0 78 39 133t94 55q56 0 95.5 -55t39.5 -133t-39.5 -133.5t-95.5 -55.5q-55 0 -94 55.5t-39 133.5zM270 1186q0 -57 29.5 -96t71.5 -39q41 0 70.5 39t29.5 96t-29.5 97t-70.5 40t-71 -40t-30 -97z" />
    <glyph glyph-name="ogonek" unicode="&#x2db;" horiz-adv-x="473" 
d="M328 20q6 -18 -10.5 -28.5t-42 -16.5t-47.5 -27t-26.5 -61t21.5 -118q19 -20 40.5 -14.5t37 19.5t27.5 33q9 15 17 8q5 -6 -1 -20q-16 -27 -36.5 -43.5t-45 -19t-47.5 19.5q-58 64 -55.5 136.5t56 118.5t112.5 13z" />
    <glyph glyph-name="tilde" unicode="&#x2dc;" horiz-adv-x="1122" 
d="M688 840q59 62 111 90.5t92.5 27.5t78 -15.5t75 -32.5t74.5 -29.5t85.5 -1t100.5 48.5q1 1 5 6t9 4q5 0 9 -5t1 -9q-58 -62 -108 -88.5t-89 -23t-75 19.5t-73 35t-75.5 29.5t-90 -3.5t-109.5 -59q-4 -16 -17 -19q-11 -3 -10 8q0 7 6 17z" />
    <glyph glyph-name="hungarumlaut" unicode="&#x2dd;" horiz-adv-x="1150" 
d="M584 1411q-7 -59 -115.5 -184.5t-165.5 -161.5q-30 -18 -17 23q12 43 112 227q29 55 32 65q-3 17 42 50q59 44 92 34q26 -8 20 -53zM905 1411q-5 -41 -62.5 -118.5t-121 -142t-96.5 -85.5q-28 -15 -19 19q10 42 109 222q35 64 37 74q-3 17 41 50q59 44 92 34
q26 -8 20 -53z" />
    <glyph glyph-name="gravecomb" unicode="&#x300;" horiz-adv-x="788" 
d="M489 1055q-6 40 25 37q32 -3 67 -36q16 -16 15 -24q0 -2 57 -108q62 -118 40 -117q-3 1 -9 4q-41 27 -116 115t-79 129z" />
    <glyph glyph-name="acutecomb" unicode="&#x301;" horiz-adv-x="808" 
d="M684 1055q-4 -41 -80 -128.5t-117 -115.5q-22 -13 -10 22q10 28 84 165q16 28 17 34q-2 14 34 39q47 34 66 16q9 -9 6 -32z" />
    <glyph glyph-name="uni0302" unicode="&#x302;" horiz-adv-x="741" 
d="M352 811q4 38 72.5 102t122.5 103h4q3 3 4 2q2 2 6 -2h2q56 -40 124.5 -103.5t72.5 -101.5q6 -41 -26 -38q-31 3 -66 35q-17 16 -15 23q-2 5 -43.5 63t-54.5 91q-13 -32 -53.5 -89.5t-42.5 -64.5q2 -12 -34 -37q-50 -35 -68 -15q-8 9 -5 32z" />
    <glyph glyph-name="tildecomb" unicode="&#x303;" horiz-adv-x="1122" 
d="M688 840q59 62 111 90.5t92.5 27.5t78 -15.5t75 -32.5t74.5 -29.5t85.5 -1t100.5 48.5q1 1 5 6t9 4q5 0 9 -5t1 -9q-58 -62 -108 -88.5t-89 -23t-75 19.5t-73 35t-75.5 29.5t-90 -3.5t-109.5 -59q-4 -16 -17 -19q-11 -3 -10 8q0 7 6 17z" />
    <glyph glyph-name="uni0306" unicode="&#x306;" horiz-adv-x="1044" 
d="M551 1001q-31 -80 26 -125q45 -37 108 -25q68 13 90 76q10 29 7 66q-3 21 20 28t48 2t27 -15q26 -104 -67 -160q-79 -48 -188 -36t-153 75q-35 51 -12 121q5 13 28 20.5t44.5 1.5t21.5 -29z" />
    <glyph glyph-name="hookabovecomb" unicode="&#x309;" horiz-adv-x="684" 
d="M406 991q-1 58 50 103t115 45q67 0 104.5 -23.5t40.5 -57t-24.5 -72t-81.5 -66.5q-7 -4 -27 -14t-28.5 -15t-21 -13.5t-19 -17.5t-8.5 -20q-3 -19 -20.5 -26t-33 1.5t-12.5 26.5q4 25 18.5 39.5t44 29.5t44.5 27q72 52 54 101q-12 34 -53 41q-52 8 -83 -37
q-15 -23 -21 -56q-1 -9 -10.5 -12.5t-18.5 0.5t-9 16z" />
    <glyph glyph-name="dotbelowcomb" unicode="&#x323;" horiz-adv-x="528" 
d="M641 -127l-12 -63q-13 -43 -37.5 -49t-43 16t-18.5 53l13 72q11 33 37 42.5t46 -10.5t15 -61z" />
    <glyph glyph-name="uni1EA0" unicode="&#x1ea0;" horiz-adv-x="1144" 
d="M1022 1212q-3 -14 -20.5 -101.5t-30.5 -143.5q50 56 77 110.5t30 96t-10 74t-40 50t-63 19.5q-46 2 -91 -25.5t-81.5 -72t-72 -108.5t-62.5 -126.5t-53 -135.5t-42.5 -126t-32.5 -107q-7 -24 -10 -34h234q30 187 71 370t64 250l121 41q16 4 17 -1.5t-5 -29.5zM748 545
h-238q-32 -112 -47 -156q-91 -319 -226 -438q-91 -80 -167 -40q-73 39 -90 169q-9 68 0 149q4 18 21 15t15 -21q-3 -121 63 -170q61 -47 141 -1q109 61 179 251q17 46 31 98l41 144h-65q-19 0 -19 18q0 19 19 19h77q7 22 29.5 95t38.5 125t46 134t57 140.5t65.5 124
t76.5 105.5t85.5 65t97.5 20q45 -5 79 -34.5t48 -79t7.5 -109t-46.5 -131.5t-111 -140q-172 -754 -38 -862q21 -16 52.5 13t65.5 89.5t62.5 118.5t56 120t33.5 73q8 17 19 9.5t3 -24.5q-4 -8 -20 -51t-34.5 -86.5t-45.5 -102t-58 -108t-66.5 -93.5t-78 -69.5t-84.5 -25.5
q-48 0 -74.5 53.5t-31 148.5t3 204.5t27.5 240.5zM553 -127l-12 -63q-13 -43 -37.5 -49t-43 16t-18.5 53l13 72q11 33 37 42.5t46 -10.5t15 -61z" />
    <glyph glyph-name="uni1EA1" unicode="&#x1ea1;" 
d="M326 543l34 145q14 9 70.5 33t63.5 29q5 1 7 -4t1 -16t-4 -25.5t-8 -35.5t-10 -41.5t-11 -47.5t-10 -50t-17 -87t-17.5 -93.5t-9.5 -73.5t0.5 -69.5t18.5 -38.5q16 -14 35.5 -10.5t41.5 23t43 46t40.5 58t33.5 58.5t23 48q6 13 18.5 9.5t6.5 -19.5q-101 -225 -187 -318
q-66 -69 -127 -61q-45 4 -67.5 59.5t-22.5 139.5q-40 -94 -91.5 -146.5t-100.5 -54.5q-46 0 -75.5 50.5t-35 148t24.5 241.5q38 186 125 268q67 64 126 27q66 -42 81 -192zM311 494q-18 102 -61 120q-47 21 -93 -83q-20 -47 -38 -115q-24 -94 -18.5 -166.5t36.5 -89.5
q29 -17 68.5 10.5t68.5 87.5q9 125 37 236zM252 -127l-12 -63q-13 -43 -37.5 -49t-43 16t-18.5 53l13 72q11 33 37 42.5t46 -10.5t15 -61z" />
    <glyph glyph-name="uni1EA2" unicode="&#x1ea2;" horiz-adv-x="1144" 
d="M1022 1212q-3 -14 -20.5 -101.5t-30.5 -143.5q50 56 77 110.5t30 96t-10 74t-40 50t-63 19.5q-46 2 -91 -25.5t-81.5 -72t-72 -108.5t-62.5 -126.5t-53 -135.5t-42.5 -126t-32.5 -107q-7 -24 -10 -34h234q30 187 71 370t64 250l121 41q16 4 17 -1.5t-5 -29.5zM748 545
h-238q-32 -112 -47 -156q-91 -319 -226 -438q-91 -80 -167 -40q-73 39 -90 169q-9 68 0 149q4 18 21 15t15 -21q-3 -121 63 -170q61 -47 141 -1q109 61 179 251q17 46 31 98l41 144h-65q-19 0 -19 18q0 19 19 19h77q7 22 29.5 95t38.5 125t46 134t57 140.5t65.5 124
t76.5 105.5t85.5 65t97.5 20q45 -5 79 -34.5t48 -79t7.5 -109t-46.5 -131.5t-111 -140q-172 -754 -38 -862q21 -16 52.5 13t65.5 89.5t62.5 118.5t56 120t33.5 73q8 17 19 9.5t3 -24.5q-4 -8 -20 -51t-34.5 -86.5t-45.5 -102t-58 -108t-66.5 -93.5t-78 -69.5t-84.5 -25.5
q-48 0 -74.5 53.5t-31 148.5t3 204.5t27.5 240.5zM903 1626q-1 58 50.5 103t115.5 45q67 0 104.5 -24t40.5 -57.5t-24.5 -72t-81.5 -66.5l-27 -13.5t-28 -15t-21.5 -13.5t-19 -17t-8.5 -20q-3 -19 -20.5 -26t-33 1.5t-12.5 26.5q4 25 18.5 39.5t43.5 29.5t44 27q71 50 55 99
q-11 34 -51 42q-51 10 -83 -34q-17 -23 -23 -58q-2 -14 -20.5 -14t-18.5 18z" />
    <glyph glyph-name="uni1EA3" unicode="&#x1ea3;" 
d="M326 543l34 145q14 9 70.5 33t63.5 29q5 1 7 -4t1 -16t-4 -25.5t-8 -35.5t-10 -41.5t-11 -47.5t-10 -50t-17 -87t-17.5 -93.5t-9.5 -73.5t0.5 -69.5t18.5 -38.5q16 -14 35.5 -10.5t41.5 23t43 46t40.5 58t33.5 58.5t23 48q6 13 18.5 9.5t6.5 -19.5q-101 -225 -187 -318
q-66 -69 -127 -61q-45 4 -67.5 59.5t-22.5 139.5q-40 -94 -91.5 -146.5t-100.5 -54.5q-46 0 -75.5 50.5t-35 148t24.5 241.5q38 186 125 268q67 64 126 27q66 -42 81 -192zM311 494q-18 102 -61 120q-47 21 -93 -83q-20 -47 -38 -115q-24 -94 -18.5 -166.5t36.5 -89.5
q29 -17 68.5 10.5t68.5 87.5q9 125 37 236zM264 991q-1 58 50.5 103t115.5 45q67 0 104.5 -23.5t40.5 -57t-24.5 -72t-81.5 -66.5q-7 -4 -27 -14t-28.5 -15t-21 -13.5t-19 -17.5t-8.5 -20q-3 -19 -20.5 -26t-33 1.5t-12.5 26.5q4 25 18.5 39.5t44 29.5t44.5 27q72 52 54 101
q-12 34 -53 41q-52 8 -83 -37q-15 -23 -21 -56q-1 -14 -20 -14t-19 18z" />
    <glyph glyph-name="uni1EA4" unicode="&#x1ea4;" horiz-adv-x="1144" 
d="M1022 1212q-3 -14 -20.5 -101.5t-30.5 -143.5q50 56 77 110.5t30 96t-10 74t-40 50t-63 19.5q-46 2 -91 -25.5t-81.5 -72t-72 -108.5t-62.5 -126.5t-53 -135.5t-42.5 -126t-32.5 -107q-7 -24 -10 -34h234q30 187 71 370t64 250l121 41q16 4 17 -1.5t-5 -29.5zM748 545
h-238q-32 -112 -47 -156q-91 -319 -226 -438q-91 -80 -167 -40q-73 39 -90 169q-9 68 0 149q4 18 21 15t15 -21q-3 -121 63 -170q61 -47 141 -1q109 61 179 251q17 46 31 98l41 144h-65q-19 0 -19 18q0 19 19 19h77q7 22 29.5 95t38.5 125t46 134t57 140.5t65.5 124
t76.5 105.5t85.5 65t97.5 20q45 -5 79 -34.5t48 -79t7.5 -109t-46.5 -131.5t-111 -140q-172 -754 -38 -862q21 -16 52.5 13t65.5 89.5t62.5 118.5t56 120t33.5 73q8 17 19 9.5t3 -24.5q-4 -8 -20 -51t-34.5 -86.5t-45.5 -102t-58 -108t-66.5 -93.5t-78 -69.5t-84.5 -25.5
q-48 0 -74.5 53.5t-31 148.5t3 204.5t27.5 240.5zM780 1460q4 38 72.5 102t122.5 103h4q3 3 4 2q2 2 6 -2h2q56 -40 124.5 -103.5t72.5 -101.5q6 -41 -26 -38q-31 3 -66 36q-17 16 -15 23q-2 5 -43.5 62.5t-54.5 90.5q-13 -32 -53.5 -89t-42.5 -64q2 -12 -34 -37
q-50 -36 -68 -16q-8 9 -5 32zM1262 1905q-4 -41 -80 -128.5t-117 -115.5q-22 -13 -10 22q10 28 84 166q15 27 16 33q-2 14 34 39q48 34 67 16q9 -9 6 -32z" />
    <glyph glyph-name="uni1EA5" unicode="&#x1ea5;" 
d="M326 543l34 145q14 9 70.5 33t63.5 29q5 1 7 -4t1 -16t-4 -25.5t-8 -35.5t-10 -41.5t-11 -47.5t-10 -50t-17 -87t-17.5 -93.5t-9.5 -73.5t0.5 -69.5t18.5 -38.5q16 -14 35.5 -10.5t41.5 23t43 46t40.5 58t33.5 58.5t23 48q6 13 18.5 9.5t6.5 -19.5q-101 -225 -187 -318
q-66 -69 -127 -61q-45 4 -67.5 59.5t-22.5 139.5q-40 -94 -91.5 -146.5t-100.5 -54.5q-46 0 -75.5 50.5t-35 148t24.5 241.5q38 186 125 268q67 64 126 27q66 -42 81 -192zM311 494q-18 102 -61 120q-47 21 -93 -83q-20 -47 -38 -115q-24 -94 -18.5 -166.5t36.5 -89.5
q29 -17 68.5 10.5t68.5 87.5q9 125 37 236zM147 838q4 38 72 101.5t123 102.5h4q3 3 4 2q2 2 6 -2h2q57 -40 125 -103t72 -101q6 -40 -24 -38q-32 2 -67 35q-17 16 -15 23q-2 5 -44 63t-55 91q-13 -32 -53.5 -89.5t-42.5 -64.5q2 -12 -34 -37q-50 -35 -68 -15q-8 9 -5 32z
M629 1282q-4 -41 -80 -128.5t-117 -115.5q-22 -13 -10 22q10 28 84 167q15 27 16 33q-2 14 34 39q48 33 67 15q9 -9 6 -32z" />
    <glyph glyph-name="uni1EA6" unicode="&#x1ea6;" horiz-adv-x="1144" 
d="M1022 1212q-3 -14 -20.5 -101.5t-30.5 -143.5q50 56 77 110.5t30 96t-10 74t-40 50t-63 19.5q-46 2 -91 -25.5t-81.5 -72t-72 -108.5t-62.5 -126.5t-53 -135.5t-42.5 -126t-32.5 -107q-7 -24 -10 -34h234q30 187 71 370t64 250l121 41q16 4 17 -1.5t-5 -29.5zM748 545
h-238q-32 -112 -47 -156q-91 -319 -226 -438q-91 -80 -167 -40q-73 39 -90 169q-9 68 0 149q4 18 21 15t15 -21q-3 -121 63 -170q61 -47 141 -1q109 61 179 251q17 46 31 98l41 144h-65q-19 0 -19 18q0 19 19 19h77q7 22 29.5 95t38.5 125t46 134t57 140.5t65.5 124
t76.5 105.5t85.5 65t97.5 20q45 -5 79 -34.5t48 -79t7.5 -109t-46.5 -131.5t-111 -140q-172 -754 -38 -862q21 -16 52.5 13t65.5 89.5t62.5 118.5t56 120t33.5 73q8 17 19 9.5t3 -24.5q-4 -8 -20 -51t-34.5 -86.5t-45.5 -102t-58 -108t-66.5 -93.5t-78 -69.5t-84.5 -25.5
q-48 0 -74.5 53.5t-31 148.5t3 204.5t27.5 240.5zM778 1462q4 38 72.5 102t122.5 103h4q3 3 4 2q2 2 6 -2h2q56 -40 124.5 -103.5t72.5 -101.5q6 -41 -26 -38q-31 3 -66 36q-17 16 -15 23q-2 5 -43.5 62.5t-54.5 90.5q-13 -32 -54 -89t-42 -64q2 -12 -34 -37
q-50 -36 -68 -16q-8 9 -5 32zM899 1905q-6 40 25 37q32 -3 67 -36q16 -16 15 -24q0 -2 57 -108q62 -118 40 -117q-3 1 -9 4q-41 27 -116 115t-79 129z" />
    <glyph glyph-name="uni1EA7" unicode="&#x1ea7;" 
d="M326 543l34 145q14 9 70.5 33t63.5 29q5 1 7 -4t1 -16t-4 -25.5t-8 -35.5t-10 -41.5t-11 -47.5t-10 -50t-17 -87t-17.5 -93.5t-9.5 -73.5t0.5 -69.5t18.5 -38.5q16 -14 35.5 -10.5t41.5 23t43 46t40.5 58t33.5 58.5t23 48q6 13 18.5 9.5t6.5 -19.5q-101 -225 -187 -318
q-66 -69 -127 -61q-45 4 -67.5 59.5t-22.5 139.5q-40 -94 -91.5 -146.5t-100.5 -54.5q-46 0 -75.5 50.5t-35 148t24.5 241.5q38 186 125 268q67 64 126 27q66 -42 81 -192zM311 494q-18 102 -61 120q-47 21 -93 -83q-20 -47 -38 -115q-24 -94 -18.5 -166.5t36.5 -89.5
q29 -17 68.5 10.5t68.5 87.5q9 125 37 236zM117 840q4 38 72 101.5t122 102.5h4q3 4 4 3q2 2 7 -3h2q56 -40 124 -103t72 -101q6 -40 -24 -38q-32 2 -67 35q-17 16 -15 23q-2 5 -44 63t-55 91q-13 -32 -53.5 -89.5t-42.5 -64.5q2 -12 -32 -36q-49 -35 -68 -17q-9 9 -6 33z
M238 1282q-6 41 25 37q32 -3 66 -36q16 -15 15 -23q0 -2 56 -108q62 -117 42 -118q-4 0 -10 4q-40 27 -115 115t-79 129z" />
    <glyph glyph-name="uni1EA8" unicode="&#x1ea8;" horiz-adv-x="1144" 
d="M1022 1212q-3 -14 -20.5 -101.5t-30.5 -143.5q50 56 77 110.5t30 96t-10 74t-40 50t-63 19.5q-46 2 -91 -25.5t-81.5 -72t-72 -108.5t-62.5 -126.5t-53 -135.5t-42.5 -126t-32.5 -107q-7 -24 -10 -34h234q30 187 71 370t64 250l121 41q16 4 17 -1.5t-5 -29.5zM748 545
h-238q-32 -112 -47 -156q-91 -319 -226 -438q-91 -80 -167 -40q-73 39 -90 169q-9 68 0 149q4 18 21 15t15 -21q-3 -121 63 -170q61 -47 141 -1q109 61 179 251q17 46 31 98l41 144h-65q-19 0 -19 18q0 19 19 19h77q7 22 29.5 95t38.5 125t46 134t57 140.5t65.5 124
t76.5 105.5t85.5 65t97.5 20q45 -5 79 -34.5t48 -79t7.5 -109t-46.5 -131.5t-111 -140q-172 -754 -38 -862q21 -16 52.5 13t65.5 89.5t62.5 118.5t56 120t33.5 73q8 17 19 9.5t3 -24.5q-4 -8 -20 -51t-34.5 -86.5t-45.5 -102t-58 -108t-66.5 -93.5t-78 -69.5t-84.5 -25.5
q-48 0 -74.5 53.5t-31 148.5t3 204.5t27.5 240.5zM770 1464q4 38 72.5 102t122.5 103h4q3 3 4 2q2 2 6 -2h2q56 -40 124.5 -103.5t72.5 -101.5q6 -41 -26 -38q-31 3 -66 36q-17 16 -15 23q-2 5 -43.5 62.5t-54.5 90.5q-13 -32 -53.5 -89t-42.5 -64q2 -12 -34 -37
q-50 -36 -68 -16q-8 9 -5 32zM1028 1825q-1 50 44 88.5t102 38.5q59 0 92 -20.5t35.5 -49.5t-22 -62.5t-71.5 -58.5q-5 -2 -20 -9.5l-21 -10.5t-17 -9.5t-16 -11t-10.5 -12t-7.5 -14.5q-4 -24 -29 -25q-23 -2 -28 15q-1 5 0 10q3 22 15 34.5t39 26.5t40 23q63 45 47 89
q-11 30 -49 35q-47 6 -73 -38q-11 -19 -15 -43q-1 -13 -18 -12.5t-17 16.5z" />
    <glyph glyph-name="uni1EA9" unicode="&#x1ea9;" 
d="M326 543l34 145q14 9 70.5 33t63.5 29q5 1 7 -4t1 -16t-4 -25.5t-8 -35.5t-10 -41.5t-11 -47.5t-10 -50t-17 -87t-17.5 -93.5t-9.5 -73.5t0.5 -69.5t18.5 -38.5q16 -14 35.5 -10.5t41.5 23t43 46t40.5 58t33.5 58.5t23 48q6 13 18.5 9.5t6.5 -19.5q-101 -225 -187 -318
q-66 -69 -127 -61q-45 4 -67.5 59.5t-22.5 139.5q-40 -94 -91.5 -146.5t-100.5 -54.5q-46 0 -75.5 50.5t-35 148t24.5 241.5q38 186 125 268q67 64 126 27q66 -42 81 -192zM311 494q-18 102 -61 120q-47 21 -93 -83q-20 -47 -38 -115q-24 -94 -18.5 -166.5t36.5 -89.5
q29 -17 68.5 10.5t68.5 87.5q9 125 37 236zM131 840q4 38 72 101.5t123 102.5h4q4 4 4 3q2 1 6 -3h2q57 -40 125 -103t72 -101q6 -41 -26 -38q-31 3 -66 35q-17 16 -15 23q-2 5 -43.5 63t-54.5 91q-13 -32 -53.5 -89.5t-42.5 -64.5q2 -12 -34 -37q-50 -35 -68 -15
q-8 9 -5 32zM389 1200q-1 50 44 88.5t102 38.5q59 0 92 -20t35.5 -49t-22 -62.5t-71.5 -58.5l-17 -8.5t-18 -8.5t-15.5 -8t-15 -10t-11.5 -9.5t-10 -11.5t-5 -12q-4 -24 -29 -25q-23 -2 -28 15q-1 5 0 10q3 22 15 34.5t39 26.5t40 23q63 45 47 89q-11 30 -49 35
q-47 6 -73 -38q-11 -19 -15 -43q-2 -13 -18.5 -12.5t-16.5 16.5z" />
    <glyph glyph-name="uni1EAA" unicode="&#x1eaa;" horiz-adv-x="1144" 
d="M1022 1212q-3 -14 -20.5 -101.5t-30.5 -143.5q50 56 77 110.5t30 96t-10 74t-40 50t-63 19.5q-46 2 -91 -25.5t-81.5 -72t-72 -108.5t-62.5 -126.5t-53 -135.5t-42.5 -126t-32.5 -107q-7 -24 -10 -34h234q30 187 71 370t64 250l121 41q16 4 17 -1.5t-5 -29.5zM748 545
h-238q-32 -112 -47 -156q-91 -319 -226 -438q-91 -80 -167 -40q-73 39 -90 169q-9 68 0 149q4 18 21 15t15 -21q-3 -121 63 -170q61 -47 141 -1q109 61 179 251q17 46 31 98l41 144h-65q-19 0 -19 18q0 19 19 19h77q7 22 29.5 95t38.5 125t46 134t57 140.5t65.5 124
t76.5 105.5t85.5 65t97.5 20q45 -5 79 -34.5t48 -79t7.5 -109t-46.5 -131.5t-111 -140q-172 -754 -38 -862q21 -16 52.5 13t65.5 89.5t62.5 118.5t56 120t33.5 73q8 17 19 9.5t3 -24.5q-4 -8 -20 -51t-34.5 -86.5t-45.5 -102t-58 -108t-66.5 -93.5t-78 -69.5t-84.5 -25.5
q-48 0 -74.5 53.5t-31 148.5t3 204.5t27.5 240.5zM766 1460q4 38 72.5 102t122.5 103h4q3 3 4 2q2 2 6 -2h2q56 -40 124.5 -103.5t72.5 -101.5q6 -41 -26 -38q-31 3 -66 36q-17 16 -15 23q-2 5 -43.5 62.5t-54.5 90.5q-13 -32 -54.5 -89t-42.5 -64q2 -12 -32 -37
q-49 -35 -68 -17q-9 9 -6 33zM745 1735q59 62 111 90.5t92.5 27.5t78 -15.5t75 -32.5t74.5 -29.5t85.5 -1t100.5 48.5q1 1 5 6t9 4q5 0 9 -5t1 -9q-58 -62 -108 -88.5t-89 -23t-75 19.5t-73 35t-75.5 29.5t-90 -3.5t-109.5 -59q-4 -16 -17 -19q-11 -3 -10 8q0 7 6 17z" />
    <glyph glyph-name="uni1EAB" unicode="&#x1eab;" 
d="M326 543l34 145q14 9 70.5 33t63.5 29q5 1 7 -4t1 -16t-4 -25.5t-8 -35.5t-10 -41.5t-11 -47.5t-10 -50t-17 -87t-17.5 -93.5t-9.5 -73.5t0.5 -69.5t18.5 -38.5q16 -14 35.5 -10.5t41.5 23t43 46t40.5 58t33.5 58.5t23 48q6 13 18.5 9.5t6.5 -19.5q-101 -225 -187 -318
q-66 -69 -127 -61q-45 4 -67.5 59.5t-22.5 139.5q-40 -94 -91.5 -146.5t-100.5 -54.5q-46 0 -75.5 50.5t-35 148t24.5 241.5q38 186 125 268q67 64 126 27q66 -42 81 -192zM311 494q-18 102 -61 120q-47 21 -93 -83q-20 -47 -38 -115q-24 -94 -18.5 -166.5t36.5 -89.5
q29 -17 68.5 10.5t68.5 87.5q9 125 37 236zM127 838q4 38 72 101.5t123 102.5h4q3 3 4 2q2 2 6 -2h2q57 -40 125 -103t72 -101q6 -41 -26 -38q-31 3 -66 35q-17 16 -15 23q-2 5 -43.5 63t-54.5 91q-13 -32 -54.5 -89.5t-42.5 -64.5q2 -12 -32 -36q-49 -35 -68 -17
q-9 9 -6 33zM106 1112q59 62 111 90.5t92.5 27.5t78 -15.5t75 -32.5t74.5 -29.5t85.5 -1t100.5 48.5q1 1 5 6t9 4q5 0 9.5 -5t1.5 -9q-58 -62 -108 -88.5t-89 -23t-75.5 19.5t-73.5 35t-75.5 29.5t-90 -3.5t-109.5 -59q-4 -16 -17 -19q-11 -3 -10 8q0 7 6 17z" />
    <glyph glyph-name="uni1EAC" unicode="&#x1eac;" horiz-adv-x="1144" 
d="M1022 1212q-3 -14 -20.5 -101.5t-30.5 -143.5q50 56 77 110.5t30 96t-10 74t-40 50t-63 19.5q-46 2 -91 -25.5t-81.5 -72t-72 -108.5t-62.5 -126.5t-53 -135.5t-42.5 -126t-32.5 -107q-7 -24 -10 -34h234q30 187 71 370t64 250l121 41q16 4 17 -1.5t-5 -29.5zM748 545
h-238q-32 -112 -47 -156q-91 -319 -226 -438q-91 -80 -167 -40q-73 39 -90 169q-9 68 0 149q4 18 21 15t15 -21q-3 -121 63 -170q61 -47 141 -1q109 61 179 251q17 46 31 98l41 144h-65q-19 0 -19 18q0 19 19 19h77q7 22 29.5 95t38.5 125t46 134t57 140.5t65.5 124
t76.5 105.5t85.5 65t97.5 20q45 -5 79 -34.5t48 -79t7.5 -109t-46.5 -131.5t-111 -140q-172 -754 -38 -862q21 -16 52.5 13t65.5 89.5t62.5 118.5t56 120t33.5 73q8 17 19 9.5t3 -24.5q-4 -8 -20 -51t-34.5 -86.5t-45.5 -102t-58 -108t-66.5 -93.5t-78 -69.5t-84.5 -25.5
q-48 0 -74.5 53.5t-31 148.5t3 204.5t27.5 240.5zM774 1464q4 38 72.5 102t122.5 103h4q3 3 4 2q2 2 6 -2h2q56 -40 124.5 -103.5t72.5 -101.5q6 -41 -26 -38q-31 3 -66 36q-17 16 -15 23q-2 5 -43.5 62.5t-54.5 90.5q-13 -32 -54 -89t-42 -64q2 -12 -34 -37
q-50 -36 -68 -16q-8 9 -5 32zM573 -127l-12 -63q-13 -43 -37.5 -49t-42.5 16t-18 53l12 72q11 33 37 42.5t46 -10.5t15 -61z" />
    <glyph glyph-name="uni1EAD" unicode="&#x1ead;" 
d="M326 543l34 145q14 9 70.5 33t63.5 29q5 1 7 -4t1 -16t-4 -25.5t-8 -35.5t-10 -41.5t-11 -47.5t-10 -50t-17 -87t-17.5 -93.5t-9.5 -73.5t0.5 -69.5t18.5 -38.5q16 -14 35.5 -10.5t41.5 23t43 46t40.5 58t33.5 58.5t23 48q6 13 18.5 9.5t6.5 -19.5q-101 -225 -187 -318
q-66 -69 -127 -61q-45 4 -67.5 59.5t-22.5 139.5q-40 -94 -91.5 -146.5t-100.5 -54.5q-46 0 -75.5 50.5t-35 148t24.5 241.5q38 186 125 268q67 64 126 27q66 -42 81 -192zM311 494q-18 102 -61 120q-47 21 -93 -83q-20 -47 -38 -115q-24 -94 -18.5 -166.5t36.5 -89.5
q29 -17 68.5 10.5t68.5 87.5q9 125 37 236zM127 842q4 38 72.5 102t122.5 103h4q3 3 4 2q2 2 6 -2h2q56 -40 124.5 -103.5t72.5 -101.5q6 -41 -26 -38q-31 3 -66 35q-17 16 -15 23q-2 5 -43.5 63t-54.5 91q-13 -32 -54.5 -89.5t-42.5 -64.5q2 -12 -32 -36q-49 -35 -68 -17
q-9 9 -6 33zM252 -127l-12 -63q-13 -43 -37.5 -49t-43 16t-18.5 53l13 72q11 33 37 42.5t46 -10.5t15 -61z" />
    <glyph glyph-name="uni1EAE" unicode="&#x1eae;" horiz-adv-x="1144" 
d="M1022 1212q-3 -14 -20.5 -101.5t-30.5 -143.5q50 56 77 110.5t30 96t-10 74t-40 50t-63 19.5q-46 2 -91 -25.5t-81.5 -72t-72 -108.5t-62.5 -126.5t-53 -135.5t-42.5 -126t-32.5 -107q-7 -24 -10 -34h234q30 187 71 370t64 250l121 41q16 4 17 -1.5t-5 -29.5zM748 545
h-238q-32 -112 -47 -156q-91 -319 -226 -438q-91 -80 -167 -40q-73 39 -90 169q-9 68 0 149q4 18 21 15t15 -21q-3 -121 63 -170q61 -47 141 -1q109 61 179 251q17 46 31 98l41 144h-65q-19 0 -19 18q0 19 19 19h77q7 22 29.5 95t38.5 125t46 134t57 140.5t65.5 124
t76.5 105.5t85.5 65t97.5 20q45 -5 79 -34.5t48 -79t7.5 -109t-46.5 -131.5t-111 -140q-172 -754 -38 -862q21 -16 52.5 13t65.5 89.5t62.5 118.5t56 120t33.5 73q8 17 19 9.5t3 -24.5q-4 -8 -20 -51t-34.5 -86.5t-45.5 -102t-58 -108t-66.5 -93.5t-78 -69.5t-84.5 -25.5
q-48 0 -74.5 53.5t-31 148.5t3 204.5t27.5 240.5zM899 1628q-31 -80 26 -125q45 -37 108 -25q68 13 90 76q10 29 7 66q-3 21 20 28t48 1.5t27 -15.5q26 -104 -67 -160q-79 -48 -188 -36t-153 75q-35 51 -12 121q5 13 28 21t44.5 2t21.5 -29zM1196 1898q-4 -41 -80 -128
t-117 -115q-22 -13 -10 22q10 28 84 165q16 28 17 34q-2 14 34 39q47 33 66 15q9 -9 6 -32z" />
    <glyph glyph-name="uni1EAF" unicode="&#x1eaf;" 
d="M326 543l34 145q14 9 70.5 33t63.5 29q5 1 7 -4t1 -16t-4 -25.5t-8 -35.5t-10 -41.5t-11 -47.5t-10 -50t-17 -87t-17.5 -93.5t-9.5 -73.5t0.5 -69.5t18.5 -38.5q16 -14 35.5 -10.5t41.5 23t43 46t40.5 58t33.5 58.5t23 48q6 13 18.5 9.5t6.5 -19.5q-101 -225 -187 -318
q-66 -69 -127 -61q-45 4 -67.5 59.5t-22.5 139.5q-40 -94 -91.5 -146.5t-100.5 -54.5q-46 0 -75.5 50.5t-35 148t24.5 241.5q38 186 125 268q67 64 126 27q66 -42 81 -192zM311 494q-18 102 -61 120q-47 21 -93 -83q-20 -47 -38 -115q-24 -94 -18.5 -166.5t36.5 -89.5
q29 -17 68.5 10.5t68.5 87.5q9 125 37 236zM250 1004q-31 -80 26 -125q45 -38 108 -26q68 13 90 76q10 29 7 66q-3 21 20 28t47.5 2t26.5 -15q26 -103 -66 -159q-78 -48 -186 -37q-109 11 -154 73q-37 51 -13 123q5 13 28 21t44.5 2t21.5 -29zM547 1274q-4 -41 -80 -128.5
t-117 -115.5q-22 -13 -10 22q10 28 84 166q15 27 16 33q-2 14 34 39q48 34 67 16q9 -9 6 -32z" />
    <glyph glyph-name="uni1EB0" unicode="&#x1eb0;" horiz-adv-x="1144" 
d="M1022 1212q-3 -14 -20.5 -101.5t-30.5 -143.5q50 56 77 110.5t30 96t-10 74t-40 50t-63 19.5q-46 2 -91 -25.5t-81.5 -72t-72 -108.5t-62.5 -126.5t-53 -135.5t-42.5 -126t-32.5 -107q-7 -24 -10 -34h234q30 187 71 370t64 250l121 41q16 4 17 -1.5t-5 -29.5zM748 545
h-238q-32 -112 -47 -156q-91 -319 -226 -438q-91 -80 -167 -40q-73 39 -90 169q-9 68 0 149q4 18 21 15t15 -21q-3 -121 63 -170q61 -47 141 -1q109 61 179 251q17 46 31 98l41 144h-65q-19 0 -19 18q0 19 19 19h77q7 22 29.5 95t38.5 125t46 134t57 140.5t65.5 124
t76.5 105.5t85.5 65t97.5 20q45 -5 79 -34.5t48 -79t7.5 -109t-46.5 -131.5t-111 -140q-172 -754 -38 -862q21 -16 52.5 13t65.5 89.5t62.5 118.5t56 120t33.5 73q8 17 19 9.5t3 -24.5q-4 -8 -20 -51t-34.5 -86.5t-45.5 -102t-58 -108t-66.5 -93.5t-78 -69.5t-84.5 -25.5
q-48 0 -74.5 53.5t-31 148.5t3 204.5t27.5 240.5zM895 1626q-31 -80 26 -125q45 -37 108 -25q68 13 90 76q10 29 7 66q-3 21 20 28t48 1.5t27 -15.5q26 -104 -67 -160q-79 -48 -188 -36t-153 75q-35 51 -12 121q5 13 28 21t44.5 2t21.5 -29zM856 1896q-6 41 26.5 37.5
t65.5 -36.5q15 -15 15 -23q0 -2 57 -108q62 -118 40 -117q-3 1 -9 4q-41 27 -116 114.5t-79 128.5z" />
    <glyph glyph-name="uni1EB1" unicode="&#x1eb1;" 
d="M326 543l34 145q14 9 70.5 33t63.5 29q5 1 7 -4t1 -16t-4 -25.5t-8 -35.5t-10 -41.5t-11 -47.5t-10 -50t-17 -87t-17.5 -93.5t-9.5 -73.5t0.5 -69.5t18.5 -38.5q16 -14 35.5 -10.5t41.5 23t43 46t40.5 58t33.5 58.5t23 48q6 13 18.5 9.5t6.5 -19.5q-101 -225 -187 -318
q-66 -69 -127 -61q-45 4 -67.5 59.5t-22.5 139.5q-40 -94 -91.5 -146.5t-100.5 -54.5q-46 0 -75.5 50.5t-35 148t24.5 241.5q38 186 125 268q67 64 126 27q66 -42 81 -192zM311 494q-18 102 -61 120q-47 21 -93 -83q-20 -47 -38 -115q-24 -94 -18.5 -166.5t36.5 -89.5
q29 -17 68.5 10.5t68.5 87.5q9 125 37 236zM260 1001q-30 -79 25 -125q46 -37 109 -25q68 13 91 76q10 29 7 66q-3 21 20 28t47.5 2t26.5 -15q26 -104 -67 -160q-79 -48 -188 -36t-153 75q-35 51 -12 121q5 13 28 20.5t44.5 1.5t21.5 -29zM221 1272q-6 40 25 37
q32 -3 67 -36q16 -16 15 -24q0 -2 57 -108q62 -118 40 -117q-3 1 -9 4q-41 27 -116 115t-79 129z" />
    <glyph glyph-name="uni1EB2" unicode="&#x1eb2;" horiz-adv-x="1144" 
d="M1022 1212q-3 -14 -20.5 -101.5t-30.5 -143.5q50 56 77 110.5t30 96t-10 74t-40 50t-63 19.5q-46 2 -91 -25.5t-81.5 -72t-72 -108.5t-62.5 -126.5t-53 -135.5t-42.5 -126t-32.5 -107q-7 -24 -10 -34h234q30 187 71 370t64 250l121 41q16 4 17 -1.5t-5 -29.5zM748 545
h-238q-32 -112 -47 -156q-91 -319 -226 -438q-91 -80 -167 -40q-73 39 -90 169q-9 68 0 149q4 18 21 15t15 -21q-3 -121 63 -170q61 -47 141 -1q109 61 179 251q17 46 31 98l41 144h-65q-19 0 -19 18q0 19 19 19h77q7 22 29.5 95t38.5 125t46 134t57 140.5t65.5 124
t76.5 105.5t85.5 65t97.5 20q45 -5 79 -34.5t48 -79t7.5 -109t-46.5 -131.5t-111 -140q-172 -754 -38 -862q21 -16 52.5 13t65.5 89.5t62.5 118.5t56 120t33.5 73q8 17 19 9.5t3 -24.5q-4 -8 -20 -51t-34.5 -86.5t-45.5 -102t-58 -108t-66.5 -93.5t-78 -69.5t-84.5 -25.5
q-48 0 -74.5 53.5t-31 148.5t3 204.5t27.5 240.5zM877 1630q-31 -80 26 -125q45 -37 108 -25q68 13 90 76q10 29 7 66q-3 21 20 28t47.5 1.5t26.5 -15.5q26 -104 -67 -160q-79 -48 -188 -36t-153 75q-35 51 -12 121q5 13 28.5 21t45 2t21.5 -29zM918 1827q-1 50 44 88.5
t101 38.5q59 0 92 -20.5t36 -49.5t-21.5 -62.5t-71.5 -58.5q-5 -2 -20 -9.5l-21 -10.5t-17 -9.5t-16 -11t-10.5 -12t-7.5 -14.5q-4 -25 -30 -26q-24 0 -28 18q-1 4 0 8q3 22 15 34.5t39 26.5t40 23q63 45 47 89q-11 30 -49 35q-47 6 -73 -38q-11 -18 -15 -43
q-1 -8 -9.5 -11.5t-16.5 0.5t-8 15z" />
    <glyph glyph-name="uni1EB3" unicode="&#x1eb3;" 
d="M326 543l34 145q14 9 70.5 33t63.5 29q5 1 7 -4t1 -16t-4 -25.5t-8 -35.5t-10 -41.5t-11 -47.5t-10 -50t-17 -87t-17.5 -93.5t-9.5 -73.5t0.5 -69.5t18.5 -38.5q16 -14 35.5 -10.5t41.5 23t43 46t40.5 58t33.5 58.5t23 48q6 13 18.5 9.5t6.5 -19.5q-101 -225 -187 -318
q-66 -69 -127 -61q-45 4 -67.5 59.5t-22.5 139.5q-40 -94 -91.5 -146.5t-100.5 -54.5q-46 0 -75.5 50.5t-35 148t24.5 241.5q38 186 125 268q67 64 126 27q66 -42 81 -192zM311 494q-18 102 -61 120q-47 21 -93 -83q-20 -47 -38 -115q-24 -94 -18.5 -166.5t36.5 -89.5
q29 -17 68.5 10.5t68.5 87.5q9 125 37 236zM256 1001q-31 -80 26 -125q45 -37 108 -25q68 13 90 76q10 29 7 66q-3 21 20 28t48 2t27 -15q26 -104 -67 -160q-79 -48 -188 -36t-153 75q-35 51 -12 121q5 13 28 20.5t44.5 1.5t21.5 -29zM297 1198q-1 50 44 88.5t101 38.5
q59 0 92 -20t36 -49t-21.5 -62.5t-71.5 -58.5l-17 -8.5t-18 -8.5t-15.5 -8t-15 -10t-11.5 -9.5t-10 -11.5t-5 -12q-4 -24 -29 -25q-23 -2 -28 15q-1 5 0 10q3 22 15 34.5t39 26.5t40 23q63 45 47 89q-11 30 -49 35q-47 6 -73 -38q-11 -19 -15 -43q-2 -13 -18.5 -12.5
t-16.5 16.5z" />
    <glyph glyph-name="uni1EB4" unicode="&#x1eb4;" horiz-adv-x="1144" 
d="M1022 1212q-3 -14 -20.5 -101.5t-30.5 -143.5q50 56 77 110.5t30 96t-10 74t-40 50t-63 19.5q-46 2 -91 -25.5t-81.5 -72t-72 -108.5t-62.5 -126.5t-53 -135.5t-42.5 -126t-32.5 -107q-7 -24 -10 -34h234q30 187 71 370t64 250l121 41q16 4 17 -1.5t-5 -29.5zM748 545
h-238q-32 -112 -47 -156q-91 -319 -226 -438q-91 -80 -167 -40q-73 39 -90 169q-9 68 0 149q4 18 21 15t15 -21q-3 -121 63 -170q61 -47 141 -1q109 61 179 251q17 46 31 98l41 144h-65q-19 0 -19 18q0 19 19 19h77q7 22 29.5 95t38.5 125t46 134t57 140.5t65.5 124
t76.5 105.5t85.5 65t97.5 20q45 -5 79 -34.5t48 -79t7.5 -109t-46.5 -131.5t-111 -140q-172 -754 -38 -862q21 -16 52.5 13t65.5 89.5t62.5 118.5t56 120t33.5 73q8 17 19 9.5t3 -24.5q-4 -8 -20 -51t-34.5 -86.5t-45.5 -102t-58 -108t-66.5 -93.5t-78 -69.5t-84.5 -25.5
q-48 0 -74.5 53.5t-31 148.5t3 204.5t27.5 240.5zM872 1628q-30 -79 25 -125q46 -37 109 -25q68 13 91 76q10 29 7 66q-3 21 20 28t47.5 1.5t26.5 -15.5q26 -104 -67 -160q-79 -48 -188 -36t-153 75q-35 51 -12 121q5 13 28 21t44.5 2t21.5 -29zM748 1733q59 62 111 90.5
t92.5 27.5t78 -15.5t74.5 -32.5t74.5 -29.5t85.5 -1t100 48.5q1 1 5 6t9 4q5 0 9.5 -5t1.5 -9q-58 -62 -108 -88.5t-89 -23.5t-75.5 19.5t-73.5 35.5t-75.5 29t-90 -4t-109.5 -59q-4 -17 -18 -19q-8 -1 -8 8q-1 7 6 18z" />
    <glyph glyph-name="uni1EB5" unicode="&#x1eb5;" 
d="M326 543l34 145q14 9 70.5 33t63.5 29q5 1 7 -4t1 -16t-4 -25.5t-8 -35.5t-10 -41.5t-11 -47.5t-10 -50t-17 -87t-17.5 -93.5t-9.5 -73.5t0.5 -69.5t18.5 -38.5q16 -14 35.5 -10.5t41.5 23t43 46t40.5 58t33.5 58.5t23 48q6 13 18.5 9.5t6.5 -19.5q-101 -225 -187 -318
q-66 -69 -127 -61q-45 4 -67.5 59.5t-22.5 139.5q-40 -94 -91.5 -146.5t-100.5 -54.5q-46 0 -75.5 50.5t-35 148t24.5 241.5q38 186 125 268q67 64 126 27q66 -42 81 -192zM311 494q-18 102 -61 120q-47 21 -93 -83q-20 -47 -38 -115q-24 -94 -18.5 -166.5t36.5 -89.5
q29 -17 68.5 10.5t68.5 87.5q9 125 37 236zM246 1001q-31 -80 26 -125q45 -37 108 -25q68 13 90 76q10 29 7 66q-3 21 20 28t47.5 2t26.5 -15q26 -103 -66 -159q-78 -48 -186 -37q-109 11 -154 73q-37 51 -13 123q5 13 28 20.5t44.5 1.5t21.5 -29zM121 1106q59 62 111 90.5
t92.5 27.5t78 -15.5t74.5 -32.5t74.5 -29.5t85.5 -1t100 48.5q2 1 4.5 4.5t4.5 5t6 0.5q5 0 9 -5t1 -9q-58 -62 -108 -88.5t-89 -23t-75.5 19.5t-73.5 35t-75.5 29.5t-90 -3.5t-109.5 -59q-4 -17 -18 -19q-8 -2 -8 8q1 7 6 17z" />
    <glyph glyph-name="uni1EB6" unicode="&#x1eb6;" horiz-adv-x="1144" 
d="M1022 1212q-3 -14 -20.5 -101.5t-30.5 -143.5q50 56 77 110.5t30 96t-10 74t-40 50t-63 19.5q-46 2 -91 -25.5t-81.5 -72t-72 -108.5t-62.5 -126.5t-53 -135.5t-42.5 -126t-32.5 -107q-7 -24 -10 -34h234q30 187 71 370t64 250l121 41q16 4 17 -1.5t-5 -29.5zM748 545
h-238q-32 -112 -47 -156q-91 -319 -226 -438q-91 -80 -167 -40q-73 39 -90 169q-9 68 0 149q4 18 21 15t15 -21q-3 -121 63 -170q61 -47 141 -1q109 61 179 251q17 46 31 98l41 144h-65q-19 0 -19 18q0 19 19 19h77q7 22 29.5 95t38.5 125t46 134t57 140.5t65.5 124
t76.5 105.5t85.5 65t97.5 20q45 -5 79 -34.5t48 -79t7.5 -109t-46.5 -131.5t-111 -140q-172 -754 -38 -862q21 -16 52.5 13t65.5 89.5t62.5 118.5t56 120t33.5 73q8 17 19 9.5t3 -24.5q-4 -8 -20 -51t-34.5 -86.5t-45.5 -102t-58 -108t-66.5 -93.5t-78 -69.5t-84.5 -25.5
q-48 0 -74.5 53.5t-31 148.5t3 204.5t27.5 240.5zM563 -127l-12 -63q-13 -43 -37.5 -49t-42.5 16t-18 53l12 72q11 33 37 42.5t46 -10.5t15 -61zM877 1630q-31 -80 26 -125q45 -37 108 -25q68 13 90 76q10 29 7 66q-3 21 20 28t47.5 1.5t26.5 -15.5q26 -104 -67 -160
q-79 -48 -188 -36t-153 75q-35 51 -12 121q5 13 28.5 21t45 2t21.5 -29z" />
    <glyph glyph-name="uni1EB7" unicode="&#x1eb7;" 
d="M326 543l34 145q14 9 70.5 33t63.5 29q5 1 7 -4t1 -16t-4 -25.5t-8 -35.5t-10 -41.5t-11 -47.5t-10 -50t-17 -87t-17.5 -93.5t-9.5 -73.5t0.5 -69.5t18.5 -38.5q16 -14 35.5 -10.5t41.5 23t43 46t40.5 58t33.5 58.5t23 48q6 13 18.5 9.5t6.5 -19.5q-101 -225 -187 -318
q-66 -69 -127 -61q-45 4 -67.5 59.5t-22.5 139.5q-40 -94 -91.5 -146.5t-100.5 -54.5q-46 0 -75.5 50.5t-35 148t24.5 241.5q38 186 125 268q67 64 126 27q66 -42 81 -192zM311 494q-18 102 -61 120q-47 21 -93 -83q-20 -47 -38 -115q-24 -94 -18.5 -166.5t36.5 -89.5
q29 -17 68.5 10.5t68.5 87.5q9 125 37 236zM258 -127l-12 -63q-13 -43 -37.5 -49t-43 16t-18.5 53l13 72q11 33 37 42.5t46 -10.5t15 -61zM250 1001q-31 -80 26 -125q45 -37 108 -25q68 13 90 76q10 29 7 66q-3 21 20 28t47.5 2t26.5 -15q26 -103 -66 -159q-78 -48 -186 -37
q-109 11 -154 73q-37 51 -13 123q5 13 28 20.5t44.5 1.5t21.5 -29z" />
    <glyph glyph-name="uni1EB8" unicode="&#x1eb8;" horiz-adv-x="702" 
d="M776 446q-290 -548 -532 -548q-182 -3 -238 134q-49 119 11 294q58 169 180 285q47 44 98 73q-112 -34 -143 56q-31 87 26 235q63 166 188 280q120 111 257 125q44 4 77.5 -13t53.5 -54.5t14 -104t-41 -153.5q-3 -13 -16.5 -18.5t-24.5 1.5t-8 23q43 103 37.5 159.5
t-33.5 77t-64 7.5q-133 -40 -234 -190q-84 -125 -99 -245q-13 -108 44 -130q19 -8 46 -3q112 57 139 64q10 0 20 -14q24 -33 -57 -62q-31 -11 -76 -20q-171 -107 -247 -282q-62 -144 -32 -263q26 -102 110 -127q102 -29 249 71q32 21 64.5 53t56 61.5t50 70t40.5 65t34.5 61
t25.5 44.5q6 18 19 6q9 -9 5 -19zM215 -227l-12 -64q-13 -43 -37.5 -49t-43 16.5t-18.5 53.5l13 71q8 24 26 36t35.5 9t29 -22.5t7.5 -50.5z" />
    <glyph glyph-name="uni1EB9" unicode="&#x1eb9;" horiz-adv-x="425" 
d="M133 190q8 -46 33 -64.5t64.5 -4t86.5 62.5q54 59 132 203q6 11 14 4.5t2 -22.5q-49 -135 -125 -234q-46 -62 -102.5 -97.5t-104.5 -37.5q-69 0 -109 61.5t-43 159.5t25 221q27 145 97.5 231t134.5 68q59 -14 87 -67.5t21.5 -124.5t-32.5 -143.5t-75.5 -132t-105.5 -83.5
zM250 614q-41 -15 -77 -89.5t-48 -164.5q0 -7 -2.5 -39t-3 -52t3.5 -44q97 46 152 173q43 101 31 173q-9 57 -51 45q-2 -1 -5 -2zM166 -127l-12 -63q-13 -43 -37.5 -49t-43 16t-18.5 53l13 72q11 33 37 42.5t46 -10.5t15 -61z" />
    <glyph glyph-name="uni1EBA" unicode="&#x1eba;" horiz-adv-x="702" 
d="M776 446q-290 -548 -532 -548q-182 -3 -238 134q-49 119 11 294q58 169 180 285q47 44 98 73q-112 -34 -143 56q-31 87 26 235q63 166 188 280q120 111 257 125q44 4 77.5 -13t53.5 -54.5t14 -104t-41 -153.5q-3 -13 -16.5 -18.5t-24.5 1.5t-8 23q43 103 37.5 159.5
t-33.5 77t-64 7.5q-133 -40 -234 -190q-84 -125 -99 -245q-13 -108 44 -130q19 -8 46 -3q112 57 139 64q10 0 20 -14q24 -33 -57 -62q-31 -11 -76 -20q-171 -107 -247 -282q-62 -144 -32 -263q26 -102 110 -127q102 -29 249 71q32 21 64.5 53t56 61.5t50 70t40.5 65t34.5 61
t25.5 44.5q6 18 19 6q9 -9 5 -19zM549 1620q-1 58 50.5 102.5t115.5 44.5q67 0 104.5 -23.5t40.5 -57t-24.5 -72t-81.5 -66.5q-8 -4 -27.5 -14t-28.5 -15t-21.5 -13.5t-19 -17.5t-8.5 -20q-3 -19 -20.5 -26t-32.5 1.5t-12 26.5q4 25 18.5 39.5t43.5 30t44 27.5q71 50 55 99
q-11 34 -51 42q-51 10 -83 -34q-17 -23 -23 -58q-2 -14 -20.5 -14t-18.5 18z" />
    <glyph glyph-name="uni1EBB" unicode="&#x1ebb;" horiz-adv-x="425" 
d="M133 190q8 -46 33 -64.5t64.5 -4t86.5 62.5q54 59 132 203q6 11 14 4.5t2 -22.5q-49 -135 -125 -234q-46 -62 -102.5 -97.5t-104.5 -37.5q-69 0 -109 61.5t-43 159.5t25 221q27 145 97.5 231t134.5 68q59 -14 87 -67.5t21.5 -124.5t-32.5 -143.5t-75.5 -132t-105.5 -83.5
zM250 614q-41 -15 -77 -89.5t-48 -164.5q0 -7 -2.5 -39t-3 -52t3.5 -44q97 46 152 173q43 101 31 173q-9 57 -51 45q-2 -1 -5 -2zM195 991q-1 58 50 103t115 45q67 0 104.5 -23.5t40.5 -57t-24.5 -72t-81.5 -66.5q-7 -4 -27 -14t-28.5 -15t-21 -13.5t-19 -17.5t-8.5 -20
q-3 -19 -20.5 -26t-33 1.5t-12.5 26.5q4 25 18.5 39.5t44 29.5t44.5 27q72 52 54 101q-12 34 -53 41q-52 8 -83 -37q-15 -23 -21 -56q-1 -9 -10.5 -12.5t-18.5 0.5t-9 16z" />
    <glyph glyph-name="uni1EBC" unicode="&#x1ebc;" horiz-adv-x="702" 
d="M776 446q-290 -548 -532 -548q-182 -3 -238 134q-49 119 11 294q58 169 180 285q47 44 98 73q-112 -34 -143 56q-31 87 26 235q63 166 188 280q120 111 257 125q44 4 77.5 -13t53.5 -54.5t14 -104t-41 -153.5q-3 -13 -16.5 -18.5t-24.5 1.5t-8 23q43 103 37.5 159.5
t-33.5 77t-64 7.5q-133 -40 -234 -190q-84 -125 -99 -245q-13 -108 44 -130q19 -8 46 -3q112 57 139 64q10 0 20 -14q24 -33 -57 -62q-31 -11 -76 -20q-171 -107 -247 -282q-62 -144 -32 -263q26 -102 110 -127q102 -29 249 71q32 21 64.5 53t56 61.5t50 70t40.5 65t34.5 61
t25.5 44.5q6 18 19 6q9 -9 5 -19zM346 1468q59 62 111 90.5t92.5 27.5t78 -15.5t75 -32.5t74.5 -29.5t85.5 -1t100.5 48.5q2 1 5.5 6.5t8.5 4.5q5 0 9 -5.5t1 -9.5q-58 -62 -108 -88.5t-89 -23t-75 19.5t-73 35t-75.5 29.5t-90 -3.5t-109.5 -59q-4 -16 -17 -19q-11 -3 -10 8
q0 7 6 17z" />
    <glyph glyph-name="uni1EBD" unicode="&#x1ebd;" horiz-adv-x="425" 
d="M133 190q8 -46 33 -64.5t64.5 -4t86.5 62.5q54 59 132 203q6 11 14 4.5t2 -22.5q-49 -135 -125 -234q-46 -62 -102.5 -97.5t-104.5 -37.5q-69 0 -109 61.5t-43 159.5t25 221q27 145 97.5 231t134.5 68q59 -14 87 -67.5t21.5 -124.5t-32.5 -143.5t-75.5 -132t-105.5 -83.5
zM250 614q-41 -15 -77 -89.5t-48 -164.5q0 -7 -2.5 -39t-3 -52t3.5 -44q97 46 152 173q43 101 31 173q-9 57 -51 45q-2 -1 -5 -2zM-25 840q59 62 111 90.5t92.5 27.5t78 -15.5t75 -32.5t74.5 -29.5t85.5 -1t100.5 48.5q1 1 5 6t9 4q5 0 9 -5t1 -9q-58 -62 -108 -88.5
t-89 -23t-75 19.5t-73 35t-75.5 29.5t-90 -3.5t-109.5 -59q-4 -16 -17 -19q-11 -3 -10 8q0 7 6 17z" />
    <glyph glyph-name="uni1EBE" unicode="&#x1ebe;" horiz-adv-x="702" 
d="M776 446q-290 -548 -532 -548q-182 -3 -238 134q-49 119 11 294q58 169 180 285q47 44 98 73q-112 -34 -143 56q-31 87 26 235q63 166 188 280q120 111 257 125q44 4 77.5 -13t53.5 -54.5t14 -104t-41 -153.5q-3 -13 -16.5 -18.5t-24.5 1.5t-8 23q43 103 37.5 159.5
t-33.5 77t-64 7.5q-133 -40 -234 -190q-84 -125 -99 -245q-13 -108 44 -130q19 -8 46 -3q112 57 139 64q10 0 20 -14q24 -33 -57 -62q-31 -11 -76 -20q-171 -107 -247 -282q-62 -144 -32 -263q26 -102 110 -127q102 -29 249 71q32 21 64.5 53t56 61.5t50 70t40.5 65t34.5 61
t25.5 44.5q6 18 19 6q9 -9 5 -19zM430 1462q4 38 72.5 102t122.5 103h4q3 3 4 2q2 2 6 -2h2q56 -40 124.5 -103.5t72.5 -101.5q6 -41 -26 -38q-31 3 -66 36q-17 16 -15 23q-2 5 -43.5 62.5t-54.5 90.5q-13 -32 -54 -89t-42 -64q2 -12 -34 -37q-50 -36 -68 -16q-8 9 -5 32z
M911 1907q-4 -41 -79.5 -129t-116.5 -115q-22 -13 -10 21q11 34 69 139q29 54 31 61q-2 14 34 39q47 34 66 16q9 -9 6 -32z" />
    <glyph glyph-name="uni1EBF" unicode="&#x1ebf;" horiz-adv-x="425" 
d="M133 190q8 -46 33 -64.5t64.5 -4t86.5 62.5q54 59 132 203q6 11 14 4.5t2 -22.5q-49 -135 -125 -234q-46 -62 -102.5 -97.5t-104.5 -37.5q-69 0 -109 61.5t-43 159.5t25 221q27 145 97.5 231t134.5 68q59 -14 87 -67.5t21.5 -124.5t-32.5 -143.5t-75.5 -132t-105.5 -83.5
zM250 614q-41 -15 -77 -89.5t-48 -164.5q0 -7 -2.5 -39t-3 -52t3.5 -44q97 46 152 173q43 101 31 173q-9 57 -51 45q-2 -1 -5 -2zM20 834q4 38 72 101.5t123 102.5h4q3 3 4 2q2 2 6 -2h2q57 -40 125 -103t72 -101q6 -40 -24 -38q-32 2 -67 35q-17 16 -15 23q-2 5 -44 63
t-55 91q-13 -32 -53.5 -89.5t-42.5 -64.5q2 -12 -34 -37q-50 -35 -68 -15q-8 9 -5 32zM502 1278q-4 -41 -80 -128.5t-117 -115.5q-22 -13 -10 22q10 28 84 166q15 27 16 33q-2 14 34 39q48 34 67 16q9 -9 6 -32z" />
    <glyph glyph-name="uni1EC0" unicode="&#x1ec0;" horiz-adv-x="702" 
d="M776 446q-290 -548 -532 -548q-182 -3 -238 134q-49 119 11 294q58 169 180 285q47 44 98 73q-112 -34 -143 56q-31 87 26 235q63 166 188 280q120 111 257 125q44 4 77.5 -13t53.5 -54.5t14 -104t-41 -153.5q-3 -13 -16.5 -18.5t-24.5 1.5t-8 23q43 103 37.5 159.5
t-33.5 77t-64 7.5q-133 -40 -234 -190q-84 -125 -99 -245q-13 -108 44 -130q19 -8 46 -3q112 57 139 64q10 0 20 -14q24 -33 -57 -62q-31 -11 -76 -20q-171 -107 -247 -282q-62 -144 -32 -263q26 -102 110 -127q102 -29 249 71q32 21 64.5 53t56 61.5t50 70t40.5 65t34.5 61
t25.5 44.5q6 18 19 6q9 -9 5 -19zM426 1462q4 38 72.5 102t122.5 103h4q3 3 4 2q2 2 6 -2h2q56 -40 124.5 -103.5t72.5 -101.5q6 -41 -26 -38q-31 3 -66 36q-17 16 -15 23q-2 5 -43.5 62.5t-54.5 90.5q-13 -32 -54.5 -89t-42.5 -64q2 -12 -32 -37q-49 -35 -68 -17
q-9 9 -6 33zM547 1905q-6 40 24 37q31 -2 67 -36q16 -16 15 -24q0 -2 57 -108q62 -118 40 -117q-3 1 -9 4q-40 27 -115 115t-79 129z" />
    <glyph glyph-name="uni1EC1" unicode="&#x1ec1;" horiz-adv-x="425" 
d="M133 190q8 -46 33 -64.5t64.5 -4t86.5 62.5q54 59 132 203q6 11 14 4.5t2 -22.5q-49 -135 -125 -234q-46 -62 -102.5 -97.5t-104.5 -37.5q-69 0 -109 61.5t-43 159.5t25 221q27 145 97.5 231t134.5 68q59 -14 87 -67.5t21.5 -124.5t-32.5 -143.5t-75.5 -132t-105.5 -83.5
zM250 614q-41 -15 -77 -89.5t-48 -164.5q0 -7 -2.5 -39t-3 -52t3.5 -44q97 46 152 173q43 101 31 173q-9 57 -51 45q-2 -1 -5 -2zM31 834q4 38 72 101.5t122 102.5h4q3 3 4 2q3 2 7 -2h2q56 -40 124 -103t72 -101q6 -40 -24 -38q-32 2 -67 35q-17 16 -15 23q-2 5 -44 63
t-55 91q-13 -32 -53.5 -89.5t-42.5 -64.5q2 -12 -32 -36q-49 -35 -68 -17q-9 9 -6 33zM152 1276q-6 40 24 37q31 -2 67 -36q16 -16 15 -24q0 -2 57 -108q62 -118 40 -117q-3 1 -9 4q-40 27 -115 115t-79 129z" />
    <glyph glyph-name="uni1EC2" unicode="&#x1ec2;" horiz-adv-x="702" 
d="M776 446q-290 -548 -532 -548q-182 -3 -238 134q-49 119 11 294q58 169 180 285q47 44 98 73q-112 -34 -143 56q-31 87 26 235q63 166 188 280q120 111 257 125q44 4 77.5 -13t53.5 -54.5t14 -104t-41 -153.5q-3 -13 -16.5 -18.5t-24.5 1.5t-8 23q43 103 37.5 159.5
t-33.5 77t-64 7.5q-133 -40 -234 -190q-84 -125 -99 -245q-13 -108 44 -130q19 -8 46 -3q112 57 139 64q10 0 20 -14q24 -33 -57 -62q-31 -11 -76 -20q-171 -107 -247 -282q-62 -144 -32 -263q26 -102 110 -127q102 -29 249 71q32 21 64.5 53t56 61.5t50 70t40.5 65t34.5 61
t25.5 44.5q6 18 19 6q9 -9 5 -19zM436 1464q4 38 72.5 102t122.5 103h4q3 3 4 2q2 2 6 -2h2q56 -40 124.5 -103.5t72.5 -101.5q6 -41 -26 -38q-31 3 -66 36q-17 16 -15 23q-2 5 -43.5 62.5t-54.5 90.5q-13 -32 -54 -89t-42 -64q2 -12 -34 -37q-50 -36 -68 -16q-8 9 -5 32z
M694 1825q-1 50 44 88.5t102 38.5q59 0 92 -20.5t35.5 -49.5t-22 -62.5t-71.5 -58.5q-5 -2 -20 -9.5l-21 -10.5t-17 -9.5t-16 -11t-10.5 -12t-7.5 -14.5q-4 -24 -29 -25q-23 -2 -28 15q-1 5 0 10q3 22 15 34.5t39 26.5t40 23q63 45 47 89q-11 30 -49 35q-47 6 -73 -38
q-11 -18 -15 -43q-1 -13 -18 -12.5t-17 16.5z" />
    <glyph glyph-name="uni1EC3" unicode="&#x1ec3;" horiz-adv-x="425" 
d="M133 190q8 -46 33 -64.5t64.5 -4t86.5 62.5q54 59 132 203q6 11 14 4.5t2 -22.5q-49 -135 -125 -234q-46 -62 -102.5 -97.5t-104.5 -37.5q-69 0 -109 61.5t-43 159.5t25 221q27 145 97.5 231t134.5 68q59 -14 87 -67.5t21.5 -124.5t-32.5 -143.5t-75.5 -132t-105.5 -83.5
zM250 614q-41 -15 -77 -89.5t-48 -164.5q0 -7 -2.5 -39t-3 -52t3.5 -44q97 46 152 173q43 101 31 173q-9 57 -51 45q-2 -1 -5 -2zM31 836q4 38 72 101.5t122 102.5h4q3 3 4 2q3 2 7 -2h2q56 -40 124 -103t72 -101q6 -40 -24 -38q-32 2 -67 35q-17 16 -15 23q-2 5 -44 63
t-55 91q-13 -32 -53.5 -89.5t-42.5 -64.5q2 -12 -32 -36q-49 -35 -68 -17q-9 9 -6 33zM289 1196q-1 50 44 88.5t101 38.5q59 0 92 -20t36 -49t-21.5 -62.5t-71.5 -58.5l-17 -8.5t-18 -8.5t-15.5 -8t-15 -10t-11.5 -9.5t-10 -11.5t-5 -12q-4 -25 -30 -26q-24 0 -28 18
q-1 4 0 8q3 22 15.5 35t39.5 26.5t40 22.5q63 45 47 89q-11 30 -49 35q-47 6 -73 -38q-11 -19 -15 -43q-2 -13 -18.5 -12.5t-16.5 16.5z" />
    <glyph glyph-name="uni1EC4" unicode="&#x1ec4;" horiz-adv-x="702" 
d="M776 446q-290 -548 -532 -548q-182 -3 -238 134q-49 119 11 294q58 169 180 285q47 44 98 73q-112 -34 -143 56q-31 87 26 235q63 166 188 280q120 111 257 125q44 4 77.5 -13t53.5 -54.5t14 -104t-41 -153.5q-3 -13 -16.5 -18.5t-24.5 1.5t-8 23q43 103 37.5 159.5
t-33.5 77t-64 7.5q-133 -40 -234 -190q-84 -125 -99 -245q-13 -108 44 -130q19 -8 46 -3q112 57 139 64q10 0 20 -14q24 -33 -57 -62q-31 -11 -76 -20q-171 -107 -247 -282q-62 -144 -32 -263q26 -102 110 -127q102 -29 249 71q32 21 64.5 53t56 61.5t50 70t40.5 65t34.5 61
t25.5 44.5q6 18 19 6q9 -9 5 -19zM430 1466q4 38 72.5 102t122.5 103h4q3 3 4 2q2 2 6 -2h2q56 -40 124.5 -103.5t72.5 -101.5q6 -41 -26 -38q-31 3 -66 36q-17 16 -15 23q-2 5 -43.5 62.5t-54.5 90.5q-13 -32 -54 -89t-42 -64q2 -12 -34 -37q-50 -36 -68 -16q-8 9 -5 32z
M410 1741q59 62 111 90.5t92.5 27.5t78 -15.5t74.5 -32.5t74.5 -29.5t85.5 -1t100 48.5q1 1 5 6t9 4q5 0 9.5 -5t1.5 -9q-58 -62 -108 -88.5t-89 -23t-75.5 19.5t-73.5 35t-75.5 29.5t-90 -3.5t-109.5 -59q-4 -17 -18 -19q-8 -2 -8 8q1 7 6 17z" />
    <glyph glyph-name="uni1EC5" unicode="&#x1ec5;" horiz-adv-x="425" 
d="M133 190q8 -46 33 -64.5t64.5 -4t86.5 62.5q54 59 132 203q6 11 14 4.5t2 -22.5q-49 -135 -125 -234q-46 -62 -102.5 -97.5t-104.5 -37.5q-69 0 -109 61.5t-43 159.5t25 221q27 145 97.5 231t134.5 68q59 -14 87 -67.5t21.5 -124.5t-32.5 -143.5t-75.5 -132t-105.5 -83.5
zM250 614q-41 -15 -77 -89.5t-48 -164.5q0 -7 -2.5 -39t-3 -52t3.5 -44q97 46 152 173q43 101 31 173q-9 57 -51 45q-2 -1 -5 -2zM18 836q4 38 72 101.5t123 102.5h4q3 3 4 2q2 2 6 -2h2q57 -40 125 -103t72 -101q6 -41 -26 -38q-31 3 -66 35q-17 16 -15 23q-2 5 -43.5 63
t-54.5 91q-13 -32 -53.5 -89.5t-42.5 -64.5q2 -12 -34 -37q-50 -35 -68 -15q-8 9 -5 32zM-2 1110q59 62 111 90.5t92.5 27.5t78 -15.5t74.5 -32.5t74.5 -29.5t85.5 -1t100 48.5q2 1 4.5 4.5t4.5 5t6 0.5q5 0 9 -5t1 -9q-58 -62 -108 -88.5t-89 -23t-75.5 19.5t-73.5 35
t-75.5 29.5t-90 -3.5t-109.5 -59q-4 -17 -18 -19q-8 -2 -8 8q1 7 6 17z" />
    <glyph glyph-name="uni1EC6" unicode="&#x1ec6;" horiz-adv-x="702" 
d="M776 446q-290 -548 -532 -548q-182 -3 -238 134q-49 119 11 294q58 169 180 285q47 44 98 73q-112 -34 -143 56q-31 87 26 235q63 166 188 280q120 111 257 125q44 4 77.5 -13t53.5 -54.5t14 -104t-41 -153.5q-3 -13 -16.5 -18.5t-24.5 1.5t-8 23q43 103 37.5 159.5
t-33.5 77t-64 7.5q-133 -40 -234 -190q-84 -125 -99 -245q-13 -108 44 -130q19 -8 46 -3q112 57 139 64q10 0 20 -14q24 -33 -57 -62q-31 -11 -76 -20q-171 -107 -247 -282q-62 -144 -32 -263q26 -102 110 -127q102 -29 249 71q32 21 64.5 53t56 61.5t50 70t40.5 65t34.5 61
t25.5 44.5q6 18 19 6q9 -9 5 -19zM455 1468q4 38 72 102.5t122 102.5h4q3 3 4 2q3 3 7 -2h2q55 -39 123.5 -103t72.5 -102q6 -41 -26 -38q-32 4 -66 37q-16 15 -14 22q-2 5 -44 62.5t-55 90.5q-13 -32 -54 -89t-42 -64q2 -12 -32 -37q-49 -35 -68 -17q-9 9 -6 33zM199 -221
l-13 -64q-10 -32 -27.5 -43.5t-32.5 -4t-26.5 27t-11.5 41.5l12 71q8 24 26.5 36t35.5 9t29 -22.5t8 -50.5z" />
    <glyph glyph-name="uni1EC7" unicode="&#x1ec7;" horiz-adv-x="425" 
d="M133 190q8 -46 33 -64.5t64.5 -4t86.5 62.5q54 59 132 203q6 11 14 4.5t2 -22.5q-49 -135 -125 -234q-46 -62 -102.5 -97.5t-104.5 -37.5q-69 0 -109 61.5t-43 159.5t25 221q27 145 97.5 231t134.5 68q59 -14 87 -67.5t21.5 -124.5t-32.5 -143.5t-75.5 -132t-105.5 -83.5
zM250 614q-41 -15 -77 -89.5t-48 -164.5q0 -7 -2.5 -39t-3 -52t3.5 -44q97 46 152 173q43 101 31 173q-9 57 -51 45q-2 -1 -5 -2zM39 838q4 38 72 101.5t122 102.5h5q3 3 4 2q2 2 6 -2h2q56 -40 124 -103t72 -101q6 -40 -24 -38q-32 2 -67 35q-17 16 -15 23q-2 5 -43.5 63
t-54.5 91q-13 -32 -54.5 -89.5t-42.5 -64.5q2 -12 -32 -36q-49 -35 -68 -17q-9 9 -6 33zM158 -127l-13 -63q-13 -43 -37.5 -49t-42.5 16t-18 53l12 72q11 33 37.5 42.5t46.5 -10.5t15 -61z" />
    <glyph glyph-name="uni1EC8" unicode="&#x1ec8;" horiz-adv-x="755" 
d="M780 1356l-233 -1059q-43 -191 -130.5 -295.5t-219.5 -103.5q-56 0 -98.5 22t-66 55.5t-37.5 78.5t-18 85t-2 80q1 7 10 10.5t17.5 0.5t7.5 -11q-7 -99 50 -172q55 -71 129 -62q98 12 170 170q36 77 61 185l110 481q-64 124 -84 217q-8 37 -8 69.5t6 58t19.5 48.5
t29 40.5t38.5 33.5t45.5 28t51.5 24t54 20.5t56 19.5q8 3 12 4q35 11 37 8t-7 -36zM543 877q76 332 94 419v9q-110 -46 -144.5 -111t-0.5 -186q30 -91 51 -131zM641 1610q-1 58 50.5 102.5t115.5 44.5q67 0 104.5 -23.5t40.5 -57t-24.5 -72t-81.5 -66.5q-8 -4 -27.5 -14
t-28.5 -15t-21.5 -13.5t-19 -17.5t-8.5 -20q-3 -19 -20.5 -26t-32.5 1.5t-12 26.5q4 25 18.5 39.5t43.5 29.5t44 27q71 50 55 100q-11 34 -51 42q-51 10 -83 -34q-17 -23 -23 -58q-2 -14 -20.5 -14t-18.5 18z" />
    <glyph glyph-name="uni1EC9" unicode="&#x1ec9;" horiz-adv-x="335" 
d="M66 1022q-1 58 50 102.5t115 44.5q67 0 104.5 -23.5t40.5 -57t-24.5 -72t-81.5 -66.5q-7 -4 -27 -14t-28.5 -15t-21 -13.5t-19 -17.5t-8.5 -20q-3 -19 -20.5 -26t-33 1.5t-12.5 26.5q4 25 18.5 39.5t44 30t44.5 27.5q72 52 54 101q-12 34 -53 41q-52 8 -83 -37
q-15 -23 -21 -56q-1 -9 -10.5 -12.5t-18.5 0.5t-9 16zM35 817q35 19 61.5 0.5t32.5 -65.5q3 -18 0 -37l41 18q46 21 51 5t-12 -72q-63 -232 -70 -297q-6 -49 -7.5 -68t-3.5 -56.5t4 -57t18 -27.5q23 -15 57.5 9.5t67 70.5t57 87t37.5 68q5 8 12 9t10 -3.5t0 -13.5
q-34 -113 -172 -303q-38 -48 -82.5 -68t-80.5 -10t-58 59t-16 130q2 15 7.5 73.5t10.5 87.5q18 120 43 234q-25 -5 -44.5 15.5t-25.5 58.5q-7 43 11.5 87.5t50.5 65.5z" />
    <glyph glyph-name="uni1ECA" unicode="&#x1eca;" horiz-adv-x="755" 
d="M780 1356l-233 -1059q-43 -191 -130.5 -295.5t-219.5 -103.5q-56 0 -98.5 22t-66 55.5t-37.5 78.5t-18 85t-2 80q1 7 10 10.5t17.5 0.5t7.5 -11q-7 -99 50 -172q55 -71 129 -62q98 12 170 170q36 77 61 185l110 481q-64 124 -84 217q-8 37 -8 69.5t6 58t19.5 48.5
t29 40.5t38.5 33.5t45.5 28t51.5 24t54 20.5t56 19.5q8 3 12 4q35 11 37 8t-7 -36zM543 877q76 332 94 419v9q-110 -46 -144.5 -111t-0.5 -186q30 -91 51 -131zM274 -231l-12 -64q-10 -32 -27.5 -43.5t-32.5 -4t-26.5 27t-11.5 41.5l12 71q8 24 26 36t35.5 9t29 -22.5
t7.5 -50.5z" />
    <glyph glyph-name="uni1ECB" unicode="&#x1ecb;" horiz-adv-x="335" 
d="M201 666q-63 -232 -70 -297q-16 -132 -9 -170q4 -29 19 -39q23 -15 57.5 9.5t67 70.5t57 87t37.5 68q5 8 12 9.5t11 -3.5t0 -14q-34 -113 -172 -303q-38 -48 -82.5 -68t-81 -10t-58.5 59t-16 130q1 9 7.5 70t11.5 91q5 24 16.5 88t20.5 109t16 70q5 14 -3.5 26
t-12.5 15.5t12 13.5l121 55q46 21 51 5t-12 -72zM147 995q35 19 62 0.5t33 -65.5q7 -42 -12 -87.5t-50 -64.5q-32 -19 -60 -1t-34 65q-7 43 11 87.5t50 65.5zM109 -127l-13 -63q-13 -43 -37.5 -49t-42.5 16t-18 53l12 72q11 33 37.5 42.5t46.5 -10.5t15 -61z" />
    <glyph glyph-name="uni1ECC" unicode="&#x1ecc;" horiz-adv-x="1003" 
d="M807 1135q61 -40 79.5 -147t-3 -241t-76.5 -281.5t-130.5 -270.5t-176.5 -207t-203 -92q-134 -11 -199 91.5t-65 282.5q-110 -7 -180.5 39.5t-108.5 149.5q-3 17 14 20q18 4 21 -14q36 -89 96.5 -127t157.5 -31q4 112 30.5 238.5t70 248t104.5 231.5t129 191t149 125.5
t160 36.5q78 -8 117 -72.5t14 -170.5zM672 1303q-107 -20 -222.5 -178t-190.5 -373.5t-79 -397.5q110 55 236.5 192.5t219.5 294t120 273.5q-76 22 -158 -110q-10 -16 -25 -7t-6 25q102 156 195 131q19 75 -11.5 117.5t-78.5 32.5zM283 51q119 -86 263 64q126 130 220 375
q94 242 92 423q-1 139 -65 181q-35 -107 -97 -223.5t-141 -225t-178 -198t-197 -134.5q10 -195 103 -262zM268 -229l-12 -64q-10 -32 -27.5 -43.5t-32.5 -4t-26.5 27t-11.5 41.5l12 71q8 24 26 36t35.5 9t29 -22.5t7.5 -50.5z" />
    <glyph glyph-name="uni1ECD" unicode="&#x1ecd;" horiz-adv-x="509" 
d="M252 680q-45 -38 -81 -170.5t-33.5 -248t52.5 -107.5q30 4 52 35t51 100q-47 42 -65 115.5t-10 145.5t34 130zM334 307q22 -9 42.5 -10.5t37 1.5t33.5 15t29 21.5t26 29.5t21 32t19 36t15.5 32.5t13.5 31.5q5 11 17 7.5t8 -16.5q-9 -32 -25 -66t-41 -70t-55.5 -58.5
t-69 -32t-81.5 9.5q-28 -113 -92 -195t-119 -75q-62 5 -103 93t-22 243q12 102 46 200.5t75.5 166t84.5 108.5t74 41q18 0 35 -23.5t10 -62.5q41 -12 58 -67t11 -129.5t-18.5 -141.5t-29.5 -121zM309 326q48 132 41 264q-4 87 -31 91q-7 1 -16 -7q-18 -18 -32.5 -82
t-7 -143.5t45.5 -122.5zM121 -127l-12 -63q-13 -43 -37.5 -49t-43 16t-18.5 53l13 72q11 33 37 42.5t46 -10.5t15 -61z" />
    </font>
</defs>
</svg>
